<svg xmlns="http://www.w3.org/2000/svg" viewBox="0 0 540 440" role="img" aria-labelledby="t d" font-family="-apple-system, Segoe UI, Roboto, sans-serif">
  <title id="t">Enzyme reaction-coordinate diagram</title>
  <desc id="d">Free energy versus reaction progress. The uncatalyzed reaction has a high activation-energy barrier; the enzyme-catalyzed reaction has a lower barrier. Both share the same reactant and product energies, so the overall free-energy change is unchanged. The enzyme lowers activation energy only.</desc>
  <rect x="6" y="6" width="528" height="428" rx="14" fill="#ffffff" stroke="#cfd8dc" stroke-width="2"/>
  <text x="270" y="36" text-anchor="middle" font-size="18" font-weight="700" fill="#263238">Enzymes lower activation energy (not &#916;G)</text>

  <line x1="80" y1="60" x2="80" y2="360" stroke="#607d8b" stroke-width="2"/>
  <line x1="80" y1="360" x2="490" y2="360" stroke="#607d8b" stroke-width="2"/>
  <text transform="rotate(-90 40 210)" x="40" y="210" text-anchor="middle" font-size="12" fill="#37474f">Free energy (G)</text>
  <text x="285" y="392" text-anchor="middle" font-size="12" fill="#37474f">Reaction progress</text>

  <line x1="110" y1="190" x2="440" y2="190" stroke="#cfd8dc" stroke-width="1.5" stroke-dasharray="5 4"/>
  <line x1="250" y1="300" x2="470" y2="300" stroke="#cfd8dc" stroke-width="1.5" stroke-dasharray="5 4"/>

  <path d="M110,190 C 175,186 210,106 248,106 C 300,106 336,300 470,300" fill="none" stroke="#c62828" stroke-width="3"/>
  <path d="M110,190 C 175,188 214,170 256,170 C 300,170 336,300 470,300" fill="none" stroke="#2e7d32" stroke-width="2.5" stroke-dasharray="7 5"/>

  <text x="150" y="118" text-anchor="middle" font-size="11" font-weight="700" fill="#c62828">higher Ea (no enzyme)</text>
  <line x1="150" y1="126" x2="238" y2="110" stroke="#c62828" stroke-width="1.5"/>
  <text x="368" y="150" text-anchor="middle" font-size="11" font-weight="700" fill="#2e7d32">lower Ea (with enzyme)</text>
  <line x1="330" y1="156" x2="270" y2="172" stroke="#2e7d32" stroke-width="1.5"/>

  <line x1="430" y1="190" x2="430" y2="300" stroke="#37474f" stroke-width="2"/>
  <polygon points="425,196 435,196 430,188" fill="#37474f"/>
  <polygon points="425,294 435,294 430,302" fill="#37474f"/>
  <text x="444" y="250" text-anchor="start" font-size="13" font-weight="700" fill="#37474f">&#916;G</text>
  <text x="444" y="266" text-anchor="start" font-size="10" fill="#607d8b">(unchanged)</text>

  <text x="120" y="184" text-anchor="start" font-size="11" fill="#455a64">substrate</text>
  <text x="452" y="316" text-anchor="middle" font-size="11" fill="#455a64">product</text>

  <text x="270" y="416" text-anchor="middle" font-size="12" fill="#607d8b">Enzyme speeds the rate; it does not shift equilibrium or make a reaction spontaneous</text>
</svg>
