<svg xmlns="http://www.w3.org/2000/svg" viewBox="0 0 540 440" role="img" aria-labelledby="t d" font-family="-apple-system, Segoe UI, Roboto, sans-serif">
  <title id="t">Four levels of protein structure</title>
  <desc id="d">Primary is the amino-acid sequence. Secondary is local backbone patterns (alpha-helix and beta-sheet) held by backbone hydrogen bonds. Tertiary is the overall three-dimensional fold of one chain. Quaternary is the assembly of multiple folded subunits.</desc>
  <rect x="6" y="6" width="528" height="428" rx="14" fill="#ffffff" stroke="#cfd8dc" stroke-width="2"/>
  <text x="270" y="36" text-anchor="middle" font-size="18" font-weight="700" fill="#263238">Protein structure &#8212; four levels</text>

  <rect x="24" y="52" width="234" height="162" rx="10" fill="#f7f9fa" stroke="#cfd8dc" stroke-width="1.5"/>
  <text x="141" y="80" text-anchor="middle" font-size="15" font-weight="700" fill="#263238">1. Primary</text>
  <text x="141" y="100" text-anchor="middle" font-size="12" fill="#607d8b">amino-acid sequence</text>
  <line x1="60" y1="150" x2="222" y2="150" stroke="#607d8b" stroke-width="2"/>
  <circle cx="66" cy="150" r="10" fill="#b0bec5" stroke="#607d8b" stroke-width="2"/>
  <circle cx="102" cy="150" r="10" fill="#b0bec5" stroke="#607d8b" stroke-width="2"/>
  <circle cx="138" cy="150" r="10" fill="#b0bec5" stroke="#607d8b" stroke-width="2"/>
  <circle cx="174" cy="150" r="10" fill="#b0bec5" stroke="#607d8b" stroke-width="2"/>
  <circle cx="210" cy="150" r="10" fill="#b0bec5" stroke="#607d8b" stroke-width="2"/>
  <text x="50" y="154" text-anchor="middle" font-size="12" font-weight="700" fill="#37474f">N</text>
  <text x="228" y="154" text-anchor="middle" font-size="12" font-weight="700" fill="#37474f">C</text>
  <text x="141" y="192" text-anchor="middle" font-size="11" fill="#90a4ae">residue order</text>

  <rect x="282" y="52" width="234" height="162" rx="10" fill="#f7f9fa" stroke="#cfd8dc" stroke-width="1.5"/>
  <text x="399" y="80" text-anchor="middle" font-size="15" font-weight="700" fill="#263238">2. Secondary</text>
  <text x="399" y="100" text-anchor="middle" font-size="12" fill="#607d8b">backbone H-bonds</text>
  <rect x="300" y="118" width="94" height="30" rx="15" fill="#90caf9" stroke="#1565c0" stroke-width="2"/>
  <g stroke="#1565c0" stroke-width="1.5">
    <line x1="314" y1="146" x2="328" y2="120"/>
    <line x1="338" y1="146" x2="352" y2="120"/>
    <line x1="362" y1="146" x2="376" y2="120"/>
  </g>
  <text x="347" y="168" text-anchor="middle" font-size="11" fill="#1565c0">alpha-helix</text>
  <line x1="410" y1="124" x2="492" y2="124" stroke="#2e7d32" stroke-width="6"/>
  <polygon points="492,118 506,124 492,130" fill="#2e7d32"/>
  <line x1="410" y1="140" x2="492" y2="140" stroke="#2e7d32" stroke-width="6"/>
  <polygon points="492,134 506,140 492,146" fill="#2e7d32"/>
  <text x="456" y="168" text-anchor="middle" font-size="11" fill="#2e7d32">beta-sheet</text>

  <rect x="24" y="228" width="234" height="162" rx="10" fill="#f7f9fa" stroke="#cfd8dc" stroke-width="1.5"/>
  <text x="141" y="256" text-anchor="middle" font-size="15" font-weight="700" fill="#263238">3. Tertiary</text>
  <text x="141" y="276" text-anchor="middle" font-size="12" fill="#607d8b">one chain, 3-D fold</text>
  <path d="M60,360 C 96,300 150,306 156,342 C 160,372 214,372 214,336 C 214,300 168,300 120,320 C 92,332 84,352 100,362" fill="none" stroke="#ef6c00" stroke-width="4" stroke-linecap="round" stroke-linejoin="round"/>

  <rect x="282" y="228" width="234" height="162" rx="10" fill="#f7f9fa" stroke="#cfd8dc" stroke-width="1.5"/>
  <text x="399" y="256" text-anchor="middle" font-size="15" font-weight="700" fill="#263238">4. Quaternary</text>
  <text x="399" y="276" text-anchor="middle" font-size="12" fill="#607d8b">assembled subunits</text>
  <circle cx="375" cy="316" r="24" fill="#ef9a9a" stroke="#c62828" stroke-width="2"/>
  <circle cx="423" cy="316" r="24" fill="#90caf9" stroke="#1565c0" stroke-width="2"/>
  <circle cx="375" cy="352" r="24" fill="#a5d6a7" stroke="#2e7d32" stroke-width="2"/>
  <circle cx="423" cy="352" r="24" fill="#ffcc80" stroke="#ef6c00" stroke-width="2"/>
  <text x="399" y="386" text-anchor="middle" font-size="11" fill="#607d8b">e.g., hemoglobin (4)</text>

  <text x="270" y="416" text-anchor="middle" font-size="12" fill="#607d8b">Structure determines function; denaturation unfolds it</text>
</svg>
