<svg xmlns="http://www.w3.org/2000/svg" viewBox="0 0 540 440" role="img" aria-labelledby="t d" font-family="-apple-system, Segoe UI, Roboto, sans-serif">
  <title id="t">Energy conservation on a frictionless incline</title>
  <desc id="d">A block starts at rest at the top of a frictionless incline holding gravitational potential energy m g h. As it slides down, potential energy converts into kinetic energy. The bar charts show that potential plus kinetic energy stays constant: all potential at the top, half and half partway down, and all kinetic at the bottom.</desc>
  <defs>
    <marker id="ag" viewBox="0 0 10 10" refX="8" refY="5" markerWidth="7" markerHeight="7" orient="auto"><path d="M0,0 L10,5 L0,10 z" fill="#2e7d32"/></marker>
    <marker id="ad" viewBox="0 0 10 10" refX="8" refY="5" markerWidth="8" markerHeight="8" orient="auto"><path d="M0,0 L10,5 L0,10 z" fill="#546e7a"/></marker>
  </defs>
  <rect x="6" y="6" width="528" height="428" rx="14" fill="#ffffff" stroke="#cfd8dc" stroke-width="2"/>
  <text x="270" y="34" text-anchor="middle" font-size="18" font-weight="700" fill="#263238">Energy conservation on a frictionless incline</text>

  <polygon points="90,320 90,168 300,320" fill="#eceff1" stroke="#90a4ae" stroke-width="2"/>
  <rect x="108" y="176" width="24" height="18" rx="3" fill="#64b5f6" stroke="#1565c0" stroke-width="1.5"/>
  <rect x="256" y="300" width="24" height="18" rx="3" fill="#cfd8dc" stroke="#90a4ae" stroke-width="1.5"/>
  <line x1="140" y1="204" x2="240" y2="284" stroke="#2e7d32" stroke-width="3" marker-end="url(#ag)"/>
  <line x1="72" y1="176" x2="72" y2="320" stroke="#546e7a" stroke-width="1.5" marker-start="url(#ad)" marker-end="url(#ad)"/>
  <text x="60" y="252" text-anchor="middle" font-size="13" fill="#37474f">h</text>
  <text x="120" y="212" font-size="11" fill="#607d8b">v = 0</text>
  <text x="250" y="296" font-size="11" fill="#607d8b">v (fast)</text>

  <line x1="338" y1="150" x2="506" y2="150" stroke="#90a4ae" stroke-width="1.5" stroke-dasharray="5 4"/>
  <text x="422" y="144" text-anchor="middle" font-size="11" fill="#607d8b">E total (constant)</text>
  <line x1="345" y1="150" x2="345" y2="320" stroke="#546e7a" stroke-width="1.5"/>
  <line x1="345" y1="320" x2="505" y2="320" stroke="#546e7a" stroke-width="1.5"/>

  <rect x="352" y="150" width="38" height="170" fill="#1565c0"/>
  <rect x="408" y="235" width="38" height="85" fill="#1565c0"/>
  <rect x="408" y="150" width="38" height="85" fill="#ef6c00"/>
  <rect x="464" y="150" width="38" height="170" fill="#ef6c00"/>

  <text x="371" y="336" text-anchor="middle" font-size="11" fill="#37474f">top</text>
  <text x="427" y="336" text-anchor="middle" font-size="11" fill="#37474f">midway</text>
  <text x="483" y="336" text-anchor="middle" font-size="11" fill="#37474f">bottom</text>

  <text x="270" y="402" text-anchor="middle" font-size="12" font-weight="600" fill="#37474f">Frictionless: potential energy at top becomes kinetic energy at bottom</text>
  <text x="270" y="422" text-anchor="middle" font-size="12" fill="#607d8b">m g h = &#189; m v&#178; &#183; blue = PE, orange = KE, total height constant</text>
</svg>
