<svg xmlns="http://www.w3.org/2000/svg" viewBox="0 0 540 440" role="img" aria-labelledby="t d" font-family="-apple-system, Segoe UI, Roboto, sans-serif">
  <title id="t">Torque from a force applied to a rotating disk</title>
  <desc id="d">A disk turns about a central axle. A force F is applied at the end of a radius r, making angle theta with the radius. Only the component of F perpendicular to the radius, F sine theta, produces torque. Torque equals r times F sine theta, which equals the moment of inertia times angular acceleration.</desc>
  <defs>
    <marker id="ab" viewBox="0 0 10 10" refX="8" refY="5" markerWidth="7" markerHeight="7" orient="auto"><path d="M0,0 L10,5 L0,10 z" fill="#1565c0"/></marker>
    <marker id="ar" viewBox="0 0 10 10" refX="8" refY="5" markerWidth="7" markerHeight="7" orient="auto"><path d="M0,0 L10,5 L0,10 z" fill="#c62828"/></marker>
    <marker id="ao" viewBox="0 0 10 10" refX="8" refY="5" markerWidth="7" markerHeight="7" orient="auto"><path d="M0,0 L10,5 L0,10 z" fill="#ef6c00"/></marker>
    <marker id="ap" viewBox="0 0 10 10" refX="8" refY="5" markerWidth="8" markerHeight="8" orient="auto"><path d="M0,0 L10,5 L0,10 z" fill="#6a1b9a"/></marker>
  </defs>
  <rect x="6" y="6" width="528" height="428" rx="14" fill="#ffffff" stroke="#cfd8dc" stroke-width="2"/>
  <text x="270" y="34" text-anchor="middle" font-size="18" font-weight="700" fill="#263238">Torque = r &#215; F on a rotating disk</text>

  <circle cx="190" cy="248" r="128" fill="#eceff1" stroke="#b0bec5" stroke-width="2"/>
  <path d="M258,168 A105,105 0 0,0 122,168" fill="none" stroke="#6a1b9a" stroke-width="2.5" marker-end="url(#ap)"/>
  <text x="190" y="136" text-anchor="middle" font-size="15" fill="#6a1b9a">&#969;</text>

  <circle cx="190" cy="248" r="5" fill="#37474f"/>
  <line x1="190" y1="248" x2="312" y2="248" stroke="#1565c0" stroke-width="4" marker-end="url(#ab)"/>
  <text x="250" y="242" text-anchor="middle" font-size="14" font-weight="700" fill="#1565c0">r</text>

  <line x1="318" y1="248" x2="390" y2="248" stroke="#90a4ae" stroke-width="2" stroke-dasharray="5 4" marker-end="url(#ab)"/>
  <line x1="395" y1="248" x2="395" y2="160" stroke="#ef6c00" stroke-width="4" marker-end="url(#ao)"/>
  <line x1="318" y1="248" x2="393" y2="158" stroke="#c62828" stroke-width="4" marker-end="url(#ar)"/>
  <path d="M383,248 L383,236 L395,236" fill="none" stroke="#90a4ae" stroke-width="1.5"/>

  <path d="M358,248 A40,40 0 0,0 344,217" fill="none" stroke="#37474f" stroke-width="2"/>
  <text x="360" y="232" font-size="14" fill="#37474f">&#952;</text>

  <text x="398" y="152" font-size="14" font-weight="700" fill="#c62828">F</text>
  <text x="352" y="266" font-size="12" fill="#607d8b">F cos&#952;</text>
  <text x="402" y="206" font-size="13" font-weight="700" fill="#ef6c00">F sin&#952;</text>

  <text x="270" y="402" text-anchor="middle" font-size="12" font-weight="600" fill="#37474f">Only the perpendicular part F sin&#952; produces torque</text>
  <text x="270" y="422" text-anchor="middle" font-size="12" fill="#607d8b">torque = r F sin&#952; = I &#945; &#183; I is rotational inertia, &#945; is angular acceleration</text>
</svg>
