<svg xmlns="http://www.w3.org/2000/svg" viewBox="0 0 540 440" role="img" aria-labelledby="t d" font-family="-apple-system, Segoe UI, Roboto, sans-serif">
  <title id="t">Atomic energy levels: absorption and emission</title>
  <desc id="d">Quantized energy levels of an atom, drawn as horizontal lines that crowd together as energy rises. An electron absorbs a photon to jump up to a higher level and emits a photon to fall to a lower level. The photon energy equals the gap between the levels, given by Planck constant times frequency.</desc>
  <defs>
    <marker id="ab" viewBox="0 0 10 10" refX="8" refY="5" markerWidth="7" markerHeight="7" orient="auto"><path d="M0,0 L10,5 L0,10 z" fill="#1565c0"/></marker>
    <marker id="ao" viewBox="0 0 10 10" refX="8" refY="5" markerWidth="7" markerHeight="7" orient="auto"><path d="M0,0 L10,5 L0,10 z" fill="#ef6c00"/></marker>
    <marker id="ak" viewBox="0 0 10 10" refX="8" refY="5" markerWidth="7" markerHeight="7" orient="auto"><path d="M0,0 L10,5 L0,10 z" fill="#546e7a"/></marker>
  </defs>
  <rect x="6" y="6" width="528" height="428" rx="14" fill="#ffffff" stroke="#cfd8dc" stroke-width="2"/>
  <text x="270" y="34" text-anchor="middle" font-size="18" font-weight="700" fill="#263238">Atomic energy levels: absorption and emission</text>

  <line x1="90" y1="342" x2="90" y2="140" stroke="#546e7a" stroke-width="2" marker-end="url(#ak)"/>
  <text x="72" y="250" font-size="13" fill="#37474f" transform="rotate(-90 72 250)">Energy</text>

  <g stroke="#37474f" stroke-width="2.5">
    <line x1="120" y1="330" x2="360" y2="330"/>
    <line x1="120" y1="240" x2="360" y2="240"/>
    <line x1="120" y1="190" x2="360" y2="190"/>
    <line x1="120" y1="162" x2="360" y2="162"/>
  </g>
  <g font-size="11" fill="#37474f">
    <text x="368" y="334">n = 1 (ground state)</text>
    <text x="368" y="244">n = 2</text>
    <text x="368" y="194">n = 3</text>
    <text x="368" y="166">n = 4</text>
  </g>

  <line x1="175" y1="330" x2="175" y2="196" stroke="#1565c0" stroke-width="3" marker-end="url(#ab)"/>
  <text x="150" y="280" text-anchor="end" font-size="11" font-weight="700" fill="#1565c0">absorbs</text>
  <text x="150" y="294" text-anchor="end" font-size="11" font-weight="700" fill="#1565c0">photon</text>

  <line x1="300" y1="162" x2="300" y2="234" stroke="#ef6c00" stroke-width="3" marker-end="url(#ao)"/>
  <text x="312" y="196" font-size="11" font-weight="700" fill="#ef6c00">emits</text>
  <text x="312" y="210" font-size="11" font-weight="700" fill="#ef6c00">photon</text>

  <text x="270" y="402" text-anchor="middle" font-size="12" font-weight="600" fill="#37474f">Energy levels are quantized: electrons jump only between allowed levels</text>
  <text x="270" y="422" text-anchor="middle" font-size="12" fill="#607d8b">photon energy equals the level gap: E = h f</text>
</svg>
