<svg xmlns="http://www.w3.org/2000/svg" viewBox="0 0 540 440" role="img" aria-labelledby="t d" font-family="-apple-system, Segoe UI, Roboto, sans-serif">
  <title id="t">Simple harmonic motion of a mass on a spring</title>
  <desc id="d">A mass on a spring is displaced from equilibrium, so a restoring force proportional to displacement pulls it back. Its displacement traces a sine curve in time. The amplitude A is the maximum displacement and the period T is the time for one full cycle; for ideal motion the period does not depend on amplitude.</desc>
  <defs>
    <marker id="ar" viewBox="0 0 10 10" refX="8" refY="5" markerWidth="7" markerHeight="7" orient="auto"><path d="M0,0 L10,5 L0,10 z" fill="#c62828"/></marker>
    <marker id="ak" viewBox="0 0 10 10" refX="8" refY="5" markerWidth="8" markerHeight="8" orient="auto"><path d="M0,0 L10,5 L0,10 z" fill="#546e7a"/></marker>
  </defs>
  <rect x="6" y="6" width="528" height="428" rx="14" fill="#ffffff" stroke="#cfd8dc" stroke-width="2"/>
  <text x="270" y="34" text-anchor="middle" font-size="18" font-weight="700" fill="#263238">Simple harmonic motion: restoring force and sine trace</text>

  <rect x="56" y="70" width="8" height="54" fill="#607d8b"/>
  <polyline points="64,97 78,84 92,110 106,84 120,110 134,84 148,110 162,97 182,97" fill="none" stroke="#90a4ae" stroke-width="2.5"/>
  <line x1="164" y1="66" x2="164" y2="150" stroke="#b0bec5" stroke-width="1.5" stroke-dasharray="4 4"/>
  <text x="164" y="164" text-anchor="middle" font-size="10" fill="#607d8b">equilibrium (x = 0)</text>
  <rect x="182" y="78" width="38" height="38" rx="4" fill="#64b5f6" stroke="#1565c0" stroke-width="2"/>
  <text x="201" y="102" text-anchor="middle" font-size="14" font-weight="700" fill="#ffffff">m</text>
  <line x1="201" y1="130" x2="167" y2="130" stroke="#c62828" stroke-width="3" marker-end="url(#ar)"/>
  <text x="235" y="102" font-size="12" fill="#c62828">F = &#8722;k x</text>
  <line x1="164" y1="130" x2="201" y2="130" stroke="#546e7a" stroke-width="1" marker-start="url(#ak)" marker-end="url(#ak)"/>

  <line x1="80" y1="270" x2="470" y2="270" stroke="#b0bec5" stroke-width="1.5" stroke-dasharray="4 4"/>
  <text x="474" y="274" font-size="11" fill="#607d8b">t</text>
  <line x1="90" y1="340" x2="90" y2="196" stroke="#546e7a" stroke-width="2" marker-end="url(#ak)"/>
  <text x="80" y="196" font-size="11" fill="#37474f">x</text>

  <path d="M100,270 C127,197 153,197 180,270 C207,343 233,343 260,270 C287,197 313,197 340,270 C367,343 393,343 420,270" fill="none" stroke="#1565c0" stroke-width="4"/>

  <line x1="140" y1="215" x2="300" y2="215" stroke="#546e7a" stroke-width="1.5" marker-start="url(#ak)" marker-end="url(#ak)"/>
  <text x="220" y="209" text-anchor="middle" font-size="12" font-weight="700" fill="#37474f">T (period)</text>
  <line x1="140" y1="270" x2="140" y2="217" stroke="#2e7d32" stroke-width="1.5" marker-start="url(#ak)" marker-end="url(#ak)"/>
  <text x="150" y="248" font-size="12" font-weight="700" fill="#2e7d32">A</text>

  <text x="270" y="402" text-anchor="middle" font-size="12" font-weight="600" fill="#37474f">Restoring force F = &#8722;k x drives a sinusoidal displacement in time</text>
  <text x="270" y="422" text-anchor="middle" font-size="12" fill="#607d8b">spring: T = 2&#960; sqrt(m/k) &#183; period is independent of amplitude A</text>
</svg>
