<svg xmlns="http://www.w3.org/2000/svg" viewBox="0 0 540 440" role="img" aria-labelledby="t d" font-family="-apple-system, Segoe UI, Roboto, sans-serif">
  <title id="t">Resolving a vector into perpendicular components</title>
  <desc id="d">A vector V is drawn from the origin at angle theta above the horizontal axis. Its horizontal component Vx equals V times cosine theta and its vertical component Vy equals V times sine theta. The two components meet at a right angle and add back to V.</desc>
  <defs>
    <marker id="ah" viewBox="0 0 10 10" refX="8" refY="5" markerWidth="7" markerHeight="7" orient="auto"><path d="M0,0 L10,5 L0,10 z" fill="#1565c0"/></marker>
    <marker id="ag" viewBox="0 0 10 10" refX="8" refY="5" markerWidth="7" markerHeight="7" orient="auto"><path d="M0,0 L10,5 L0,10 z" fill="#2e7d32"/></marker>
    <marker id="ao" viewBox="0 0 10 10" refX="8" refY="5" markerWidth="7" markerHeight="7" orient="auto"><path d="M0,0 L10,5 L0,10 z" fill="#ef6c00"/></marker>
    <marker id="ak" viewBox="0 0 10 10" refX="8" refY="5" markerWidth="7" markerHeight="7" orient="auto"><path d="M0,0 L10,5 L0,10 z" fill="#546e7a"/></marker>
  </defs>
  <rect x="6" y="6" width="528" height="428" rx="14" fill="#ffffff" stroke="#cfd8dc" stroke-width="2"/>
  <text x="270" y="34" text-anchor="middle" font-size="18" font-weight="700" fill="#263238">Resolving a vector into components</text>

  <line x1="110" y1="330" x2="470" y2="330" stroke="#546e7a" stroke-width="2" marker-end="url(#ak)"/>
  <line x1="110" y1="330" x2="110" y2="86" stroke="#546e7a" stroke-width="2" marker-end="url(#ak)"/>
  <text x="476" y="335" font-size="13" fill="#37474f">x</text>
  <text x="102" y="82" font-size="13" fill="#37474f">y</text>

  <line x1="110" y1="150" x2="350" y2="150" stroke="#b0bec5" stroke-width="1.5" stroke-dasharray="4 4"/>

  <line x1="110" y1="330" x2="344" y2="330" stroke="#2e7d32" stroke-width="4" marker-end="url(#ag)"/>
  <line x1="350" y1="330" x2="350" y2="156" stroke="#ef6c00" stroke-width="4" marker-end="url(#ao)"/>
  <path d="M336,330 L336,316 L350,316" fill="none" stroke="#90a4ae" stroke-width="1.5"/>

  <line x1="110" y1="330" x2="347" y2="152" stroke="#1565c0" stroke-width="5" marker-end="url(#ah)"/>

  <path d="M170,330 A60,60 0 0,0 158,294" fill="none" stroke="#37474f" stroke-width="2"/>
  <text x="158" y="320" font-size="15" fill="#37474f">&#952;</text>

  <text x="216" y="228" font-size="17" font-weight="700" fill="#1565c0">V</text>
  <text x="222" y="352" font-size="14" font-weight="700" fill="#2e7d32">Vx = V cos&#952;</text>
  <text x="360" y="248" font-size="14" font-weight="700" fill="#ef6c00">Vy = V sin&#952;</text>

  <text x="270" y="402" text-anchor="middle" font-size="12" font-weight="600" fill="#37474f">A vector splits into perpendicular components that add independently</text>
  <text x="270" y="422" text-anchor="middle" font-size="12" fill="#607d8b">magnitude V = sqrt(Vx&#178; + Vy&#178;) &#183; direction &#952; = arctan(Vy / Vx)</text>
</svg>
