<svg xmlns="http://www.w3.org/2000/svg" viewBox="0 0 540 440" role="img" aria-labelledby="t d" font-family="-apple-system, Segoe UI, Roboto, sans-serif">
  <title id="t">Torque balance on a lever</title>
  <desc id="d">A uniform beam rests on a central pivot. A 4 newton weight hangs 0.5 meters left of the pivot and a 2 newton weight hangs 1.0 meter right. The counterclockwise torque from the left weight equals the clockwise torque from the right weight, so the beam is in rotational equilibrium.</desc>
  <defs>
    <marker id="ar" viewBox="0 0 10 10" refX="8" refY="5" markerWidth="7" markerHeight="7" orient="auto"><path d="M0,0 L10,5 L0,10 z" fill="#c62828"/></marker>
    <marker id="ad" viewBox="0 0 10 10" refX="8" refY="5" markerWidth="8" markerHeight="8" orient="auto"><path d="M0,0 L10,5 L0,10 z" fill="#546e7a"/></marker>
  </defs>
  <rect x="6" y="6" width="528" height="428" rx="14" fill="#ffffff" stroke="#cfd8dc" stroke-width="2"/>
  <text x="270" y="34" text-anchor="middle" font-size="18" font-weight="700" fill="#263238">Torque balance on a lever</text>

  <rect x="100" y="196" width="340" height="12" rx="3" fill="#90a4ae"/>
  <polygon points="270,208 250,250 290,250" fill="#607d8b"/>
  <text x="270" y="268" text-anchor="middle" font-size="12" fill="#607d8b">pivot</text>

  <line x1="190" y1="208" x2="190" y2="248" stroke="#37474f" stroke-width="2"/>
  <rect x="166" y="248" width="48" height="38" rx="4" fill="#1565c0"/>
  <text x="190" y="272" text-anchor="middle" font-size="14" font-weight="700" fill="#ffffff">4 N</text>
  <line x1="190" y1="290" x2="190" y2="316" stroke="#c62828" stroke-width="3" marker-end="url(#ar)"/>

  <line x1="430" y1="208" x2="430" y2="248" stroke="#37474f" stroke-width="2"/>
  <rect x="412" y="248" width="36" height="30" rx="4" fill="#1565c0"/>
  <text x="430" y="268" text-anchor="middle" font-size="12" font-weight="700" fill="#ffffff">2 N</text>
  <line x1="430" y1="282" x2="430" y2="316" stroke="#c62828" stroke-width="3" marker-end="url(#ar)"/>

  <line x1="190" y1="340" x2="270" y2="340" stroke="#546e7a" stroke-width="1.5" marker-start="url(#ad)" marker-end="url(#ad)"/>
  <line x1="270" y1="340" x2="430" y2="340" stroke="#546e7a" stroke-width="1.5" marker-start="url(#ad)" marker-end="url(#ad)"/>
  <line x1="190" y1="316" x2="190" y2="346" stroke="#b0bec5" stroke-width="1" stroke-dasharray="3 3"/>
  <line x1="270" y1="250" x2="270" y2="346" stroke="#b0bec5" stroke-width="1" stroke-dasharray="3 3"/>
  <line x1="430" y1="316" x2="430" y2="346" stroke="#b0bec5" stroke-width="1" stroke-dasharray="3 3"/>
  <text x="230" y="334" text-anchor="middle" font-size="12" fill="#37474f">0.5 m</text>
  <text x="350" y="334" text-anchor="middle" font-size="12" fill="#37474f">1.0 m</text>

  <text x="270" y="402" text-anchor="middle" font-size="12" font-weight="600" fill="#37474f">Rotational equilibrium: counterclockwise torque = clockwise torque</text>
  <text x="270" y="422" text-anchor="middle" font-size="12" fill="#607d8b">(4 N)(0.5 m) = (2 N)(1.0 m) = 2 N&#183;m &#183; torque = force &#215; lever arm</text>
</svg>
