<svg xmlns="http://www.w3.org/2000/svg" viewBox="0 0 540 440" role="img" aria-labelledby="t d" font-family="-apple-system, Segoe UI, Roboto, sans-serif">
  <title id="t">Blood velocity versus total cross-sectional area</title>
  <desc id="d">Across the vessel types from aorta to venae cavae, the total cross-sectional area rises to a large peak at the capillaries and then falls. Flow velocity does the opposite: it is high in the aorta, drops to its lowest value in the capillaries where area is greatest, and rises again toward the veins. This inverse relationship follows from continuity, flow equals area times velocity.</desc>
  <defs>
    <marker id="ak" viewBox="0 0 10 10" refX="8" refY="5" markerWidth="7" markerHeight="7" orient="auto"><path d="M0,0 L10,5 L0,10 z" fill="#546e7a"/></marker>
  </defs>
  <rect x="6" y="6" width="528" height="428" rx="14" fill="#ffffff" stroke="#cfd8dc" stroke-width="2"/>
  <text x="270" y="34" text-anchor="middle" font-size="18" font-weight="700" fill="#263238">Blood velocity vs total cross-sectional area</text>

  <line x1="90" y1="320" x2="512" y2="320" stroke="#546e7a" stroke-width="2" marker-end="url(#ak)"/>
  <line x1="90" y1="320" x2="90" y2="86" stroke="#546e7a" stroke-width="2" marker-end="url(#ak)"/>

  <line x1="299" y1="100" x2="299" y2="320" stroke="#b0bec5" stroke-width="1.2" stroke-dasharray="4 4"/>

  <polyline points="110,300 173,285 236,235 299,110 362,240 425,288 488,300" fill="none" stroke="#ef6c00" stroke-width="3.5"/>
  <polyline points="110,120 173,150 236,235 299,300 362,250 425,205 488,175" fill="none" stroke="#1565c0" stroke-width="3.5"/>

  <line x1="312" y1="92" x2="334" y2="92" stroke="#ef6c00" stroke-width="3.5"/>
  <text x="340" y="96" font-size="11" fill="#37474f">total cross-sectional area</text>
  <line x1="312" y1="110" x2="334" y2="110" stroke="#1565c0" stroke-width="3.5"/>
  <text x="340" y="114" font-size="11" fill="#37474f">flow velocity</text>

  <g font-size="9" fill="#37474f" text-anchor="end">
    <text x="110" y="336" transform="rotate(-30 110 336)">aorta</text>
    <text x="173" y="336" transform="rotate(-30 173 336)">arteries</text>
    <text x="236" y="336" transform="rotate(-30 236 336)">arterioles</text>
    <text x="299" y="336" transform="rotate(-30 299 336)">capillaries</text>
    <text x="362" y="336" transform="rotate(-30 362 336)">venules</text>
    <text x="425" y="336" transform="rotate(-30 425 336)">veins</text>
    <text x="488" y="336" transform="rotate(-30 488 336)">venae cavae</text>
  </g>

  <text x="270" y="402" text-anchor="middle" font-size="12" font-weight="600" fill="#37474f">Continuity Q = A v: velocity is lowest where total area is largest</text>
  <text x="270" y="422" text-anchor="middle" font-size="12" fill="#607d8b">slow capillary flow maximizes exchange time &#183; resistance &#8733; 1/r&#8308;</text>
</svg>
