<svg xmlns="http://www.w3.org/2000/svg" viewBox="0 0 540 440" role="img" aria-labelledby="t d" font-family="-apple-system, Segoe UI, Roboto, sans-serif">
  <title id="t">Radioactive decay and half-life</title>
  <desc id="d">A graph of the amount of a radioactive sample remaining versus time measured in half-lives. Starting at 40 milligrams, each half-life halves the amount to 20, then 10, then 5 milligrams. The curve falls quickly at first and levels off, showing that decay is exponential rather than linear.</desc>
  <defs>
    <marker id="ak" viewBox="0 0 10 10" refX="8" refY="5" markerWidth="7" markerHeight="7" orient="auto"><path d="M0,0 L10,5 L0,10 z" fill="#546e7a"/></marker>
  </defs>
  <rect x="6" y="6" width="528" height="428" rx="14" fill="#ffffff" stroke="#cfd8dc" stroke-width="2"/>
  <text x="270" y="34" text-anchor="middle" font-size="18" font-weight="700" fill="#263238">Radioactive decay: constant half-life</text>

  <line x1="90" y1="322" x2="510" y2="322" stroke="#546e7a" stroke-width="2" marker-end="url(#ak)"/>
  <line x1="90" y1="322" x2="90" y2="80" stroke="#546e7a" stroke-width="2" marker-end="url(#ak)"/>
  <text x="300" y="356" text-anchor="middle" font-size="12" fill="#37474f">time (half-lives)</text>
  <text x="60" y="200" font-size="12" fill="#37474f" transform="rotate(-90 60 200)">amount remaining</text>

  <g stroke="#b0bec5" stroke-width="1.2" stroke-dasharray="4 4">
    <line x1="190" y1="322" x2="190" y2="215"/><line x1="90" y1="215" x2="190" y2="215"/>
    <line x1="290" y1="322" x2="290" y2="268"/><line x1="90" y1="268" x2="290" y2="268"/>
    <line x1="390" y1="322" x2="390" y2="294"/><line x1="90" y1="294" x2="390" y2="294"/>
  </g>

  <path d="M90,110 C130,175 160,200 190,215 C230,235 260,258 290,268 C330,279 360,289 390,294 C430,301 460,305 490,307" fill="none" stroke="#c62828" stroke-width="4"/>

  <g fill="#c62828">
    <circle cx="90" cy="110" r="4"/><circle cx="190" cy="215" r="4"/><circle cx="290" cy="268" r="4"/><circle cx="390" cy="294" r="4"/>
  </g>
  <g font-size="11" fill="#37474f" text-anchor="end">
    <text x="84" y="114">40</text><text x="84" y="219">20</text><text x="84" y="272">10</text><text x="86" y="298">5</text>
  </g>
  <g font-size="11" fill="#37474f" text-anchor="middle">
    <text x="190" y="340">1</text><text x="290" y="340">2</text><text x="390" y="340">3</text><text x="490" y="340">4</text>
  </g>
  <g font-size="12" fill="#607d8b" text-anchor="middle">
    <text x="140" y="150">&#215; &#189;</text><text x="240" y="232">&#215; &#189;</text><text x="340" y="278">&#215; &#189;</text>
  </g>

  <text x="270" y="402" text-anchor="middle" font-size="12" font-weight="600" fill="#37474f">Each half-life halves the amount: 40 &#8594; 20 &#8594; 10 &#8594; 5 mg</text>
  <text x="270" y="422" text-anchor="middle" font-size="12" fill="#607d8b">decay is exponential, not linear &#183; half-life is fixed for an isotope</text>
</svg>
