<svg xmlns="http://www.w3.org/2000/svg" viewBox="0 0 540 440" role="img" aria-labelledby="t d" font-family="-apple-system, Segoe UI, Roboto, sans-serif">
  <title id="t">Series circuit with a battery and two resistors</title>
  <desc id="d">A 12 volt battery drives current around a single loop through two 3 ohm resistors in series. The total resistance is 6 ohms, so the current is 2 amperes everywhere in the loop. Each resistor drops 6 volts, and the two drops add back to the 12 volt source.</desc>
  <defs>
    <marker id="ag" viewBox="0 0 10 10" refX="8" refY="5" markerWidth="7" markerHeight="7" orient="auto"><path d="M0,0 L10,5 L0,10 z" fill="#2e7d32"/></marker>
  </defs>
  <rect x="6" y="6" width="528" height="428" rx="14" fill="#ffffff" stroke="#cfd8dc" stroke-width="2"/>
  <text x="270" y="34" text-anchor="middle" font-size="18" font-weight="700" fill="#263238">Series circuit: Ohm's law and the loop rule</text>

  <g stroke="#37474f" stroke-width="3" fill="none">
    <polyline points="110,130 140,130"/>
    <polyline points="258,130 300,130"/>
    <polyline points="390,130 430,130"/>
    <polyline points="430,130 430,320"/>
    <polyline points="430,320 110,320"/>
    <polyline points="110,320 110,245"/>
    <polyline points="110,205 110,130"/>
    <polyline points="140,130 168,130"/>
  </g>

  <polyline points="168,130 176,130 182,118 194,142 206,118 218,142 230,118 242,142 250,118 256,130 258,130" fill="none" stroke="#37474f" stroke-width="3"/>
  <polyline points="300,130 308,130 314,118 326,142 338,118 350,142 362,118 374,142 382,118 388,130 390,130" fill="none" stroke="#37474f" stroke-width="3"/>
  <text x="213" y="104" text-anchor="middle" font-size="13" font-weight="700" fill="#37474f">R1 = 3 &#937;</text>
  <text x="345" y="104" text-anchor="middle" font-size="13" font-weight="700" fill="#37474f">R2 = 3 &#937;</text>
  <text x="213" y="160" text-anchor="middle" font-size="11" fill="#607d8b">6 V drop</text>
  <text x="345" y="160" text-anchor="middle" font-size="11" fill="#607d8b">6 V drop</text>

  <line x1="88" y1="210" x2="132" y2="210" stroke="#37474f" stroke-width="4"/>
  <line x1="100" y1="240" x2="120" y2="240" stroke="#37474f" stroke-width="6"/>
  <text x="138" y="208" font-size="13" font-weight="700" fill="#c62828">+</text>
  <text x="138" y="248" font-size="13" font-weight="700" fill="#1565c0">&#8722;</text>
  <text x="70" y="228" text-anchor="middle" font-size="13" font-weight="700" fill="#37474f">12 V</text>

  <line x1="270" y1="130" x2="298" y2="130" stroke="#2e7d32" stroke-width="3" marker-end="url(#ag)"/>
  <line x1="330" y1="320" x2="300" y2="320" stroke="#2e7d32" stroke-width="3" marker-end="url(#ag)"/>
  <line x1="430" y1="250" x2="430" y2="280" stroke="#2e7d32" stroke-width="3" marker-end="url(#ag)"/>
  <text x="360" y="340" text-anchor="middle" font-size="12" font-weight="700" fill="#2e7d32">I = 2 A</text>

  <text x="270" y="402" text-anchor="middle" font-size="12" font-weight="600" fill="#37474f">Ohm's law V = I R &#183; series resistors add: R total = R1 + R2 = 6 &#937;</text>
  <text x="270" y="422" text-anchor="middle" font-size="12" fill="#607d8b">same current in the loop; drops sum to the source (6 V + 6 V = 12 V)</text>
</svg>
