<svg xmlns="http://www.w3.org/2000/svg" viewBox="0 0 540 440" role="img" aria-labelledby="t d" font-family="-apple-system, Segoe UI, Roboto, sans-serif">
  <title id="t">Converging lens ray diagram, object beyond 2F</title>
  <desc id="d">An object stands beyond twice the focal length of a converging lens. Three principal rays (one parallel then through the far focal point, one straight through the lens center, and one through the near focal point then parallel) meet on the far side between F and 2F. They form a real, inverted, reduced image, with magnification equal to minus the image distance over the object distance.</desc>
  <defs>
    <marker id="ag" viewBox="0 0 10 10" refX="8" refY="5" markerWidth="7" markerHeight="7" orient="auto"><path d="M0,0 L10,5 L0,10 z" fill="#2e7d32"/></marker>
    <marker id="ar" viewBox="0 0 10 10" refX="8" refY="5" markerWidth="7" markerHeight="7" orient="auto"><path d="M0,0 L10,5 L0,10 z" fill="#c62828"/></marker>
    <marker id="ak" viewBox="0 0 10 10" refX="8" refY="5" markerWidth="7" markerHeight="7" orient="auto"><path d="M0,0 L10,5 L0,10 z" fill="#546e7a"/></marker>
  </defs>
  <rect x="6" y="6" width="528" height="428" rx="14" fill="#ffffff" stroke="#cfd8dc" stroke-width="2"/>
  <text x="270" y="34" text-anchor="middle" font-size="18" font-weight="700" fill="#263238">Converging lens: object beyond 2F</text>

  <line x1="60" y1="250" x2="500" y2="250" stroke="#546e7a" stroke-width="1.5" marker-end="url(#ak)"/>
  <text x="500" y="244" text-anchor="end" font-size="10" fill="#607d8b">principal axis</text>
  <ellipse cx="270" cy="250" rx="14" ry="100" fill="#bbdefb" stroke="#1565c0" stroke-width="2"/>
  <text x="270" y="368" text-anchor="middle" font-size="10" fill="#1565c0">converging lens</text>

  <circle cx="210" cy="250" r="3" fill="#37474f"/><text x="210" y="266" text-anchor="middle" font-size="10" fill="#607d8b">F</text>
  <circle cx="150" cy="250" r="3" fill="#37474f"/><text x="150" y="266" text-anchor="middle" font-size="10" fill="#607d8b">2F</text>
  <circle cx="330" cy="250" r="3" fill="#37474f"/><text x="330" y="242" text-anchor="middle" font-size="10" fill="#607d8b">F</text>
  <circle cx="390" cy="250" r="3" fill="#37474f"/><text x="390" y="242" text-anchor="middle" font-size="10" fill="#607d8b">2F</text>

  <line x1="90" y1="250" x2="90" y2="190" stroke="#2e7d32" stroke-width="4" marker-end="url(#ag)"/>
  <text x="90" y="270" text-anchor="middle" font-size="11" font-weight="700" fill="#2e7d32">object</text>

  <polyline points="90,190 270,190 420,340" fill="none" stroke="#ef6c00" stroke-width="1.8"/>
  <line x1="90" y1="190" x2="440" y2="306" stroke="#6a1b9a" stroke-width="1.8"/>
  <polyline points="90,190 270,280 440,280" fill="none" stroke="#0097a7" stroke-width="1.8"/>

  <line x1="360" y1="250" x2="360" y2="280" stroke="#c62828" stroke-width="4" marker-end="url(#ar)"/>
  <text x="360" y="298" text-anchor="middle" font-size="11" font-weight="700" fill="#c62828">image</text>

  <text x="270" y="402" text-anchor="middle" font-size="12" font-weight="600" fill="#37474f">Object beyond 2F gives a real, inverted, reduced image</text>
  <text x="270" y="422" text-anchor="middle" font-size="12" fill="#607d8b">1/f = 1/do + 1/di &#183; magnification m = &#8722;di/do</text>
</svg>
