<svg xmlns="http://www.w3.org/2000/svg" viewBox="0 0 540 440" role="img" aria-labelledby="t d" font-family="-apple-system, Segoe UI, Roboto, sans-serif">
  <title id="t">Continuity and Bernoulli in a narrowing pipe</title>
  <desc id="d">A pipe narrows from a wide cross-section to a smaller one. By continuity the fluid must speed up in the narrow section, so the velocity arrow is longer there. By Bernoulli the faster flow has lower pressure, so pressure is higher in the wide section and lower in the narrow section.</desc>
  <defs>
    <marker id="ag" viewBox="0 0 10 10" refX="8" refY="5" markerWidth="7" markerHeight="7" orient="auto"><path d="M0,0 L10,5 L0,10 z" fill="#2e7d32"/></marker>
    <marker id="ak" viewBox="0 0 10 10" refX="8" refY="5" markerWidth="8" markerHeight="8" orient="auto"><path d="M0,0 L10,5 L0,10 z" fill="#546e7a"/></marker>
  </defs>
  <rect x="6" y="6" width="528" height="428" rx="14" fill="#ffffff" stroke="#cfd8dc" stroke-width="2"/>
  <text x="270" y="34" text-anchor="middle" font-size="18" font-weight="700" fill="#263238">Continuity and Bernoulli in a narrowing pipe</text>

  <polygon points="80,150 250,150 330,195 470,195 470,245 330,245 250,290 80,290" fill="#bbdefb"/>
  <path d="M80,150 L250,150 L330,195 L470,195" fill="none" stroke="#607d8b" stroke-width="3"/>
  <path d="M80,290 L250,290 L330,245 L470,245" fill="none" stroke="#607d8b" stroke-width="3"/>
  <g stroke="#90a4ae" stroke-width="1.4" stroke-dasharray="5 4" fill="none">
    <path d="M85,185 L250,185 L330,208 L468,208"/>
    <path d="M85,255 L250,255 L330,232 L468,232"/>
  </g>

  <line x1="115" y1="220" x2="162" y2="220" stroke="#2e7d32" stroke-width="4" marker-end="url(#ag)"/>
  <text x="138" y="278" text-anchor="middle" font-size="12" font-weight="700" fill="#2e7d32">v1 (slow)</text>
  <line x1="358" y1="220" x2="452" y2="220" stroke="#2e7d32" stroke-width="4" marker-end="url(#ag)"/>
  <text x="405" y="182" text-anchor="middle" font-size="12" font-weight="700" fill="#2e7d32">v2 (fast)</text>

  <line x1="68" y1="150" x2="68" y2="290" stroke="#546e7a" stroke-width="1.5" marker-start="url(#ak)" marker-end="url(#ak)"/>
  <text x="56" y="224" text-anchor="middle" font-size="12" font-weight="700" fill="#37474f">A1</text>
  <line x1="484" y1="195" x2="484" y2="245" stroke="#546e7a" stroke-width="1.5" marker-start="url(#ak)" marker-end="url(#ak)"/>
  <text x="496" y="224" text-anchor="middle" font-size="12" font-weight="700" fill="#37474f">A2</text>

  <text x="150" y="138" text-anchor="middle" font-size="12" font-weight="700" fill="#6a1b9a">P1 higher</text>
  <text x="405" y="176" text-anchor="middle" font-size="12" font-weight="700" fill="#6a1b9a">P2 lower</text>

  <text x="270" y="402" text-anchor="middle" font-size="12" font-weight="600" fill="#37474f">Continuity: A1 v1 = A2 v2, so fluid speeds up where the pipe narrows</text>
  <text x="270" y="422" text-anchor="middle" font-size="12" fill="#607d8b">Bernoulli: faster flow has lower pressure, so P2 &lt; P1</text>
</svg>
