<svg xmlns="http://www.w3.org/2000/svg" viewBox="0 0 540 440" role="img" aria-labelledby="t d" font-family="-apple-system, Segoe UI, Roboto, sans-serif">
  <title id="t">Myopia and its correction with a diverging lens</title>
  <desc id="d">Top: in a nearsighted (myopic) eye, parallel light rays are focused to a point in front of the retina, so the image on the retina is blurred. Bottom: a diverging lens placed in front of the eye spreads the rays first, moving the focus back so it lands exactly on the retina and the image is sharp.</desc>
  <defs>
    <marker id="ao" viewBox="0 0 10 10" refX="8" refY="5" markerWidth="6" markerHeight="6" orient="auto"><path d="M0,0 L10,5 L0,10 z" fill="#ef6c00"/></marker>
  </defs>
  <rect x="6" y="6" width="528" height="428" rx="14" fill="#ffffff" stroke="#cfd8dc" stroke-width="2"/>
  <text x="270" y="34" text-anchor="middle" font-size="18" font-weight="700" fill="#263238">Myopia and its correction</text>

  <text x="150" y="86" text-anchor="middle" font-size="12" font-weight="700" fill="#37474f">Uncorrected (myopic)</text>
  <circle cx="308" cy="150" r="66" fill="#eceff1" stroke="#90a4ae" stroke-width="2"/>
  <line x1="150" y1="150" x2="378" y2="150" stroke="#b0bec5" stroke-width="1" stroke-dasharray="4 4"/>
  <ellipse cx="250" cy="150" rx="10" ry="38" fill="#bbdefb" stroke="#1565c0" stroke-width="2"/>
  <line x1="373" y1="126" x2="373" y2="174" stroke="#546e7a" stroke-width="3"/>
  <text x="384" y="154" font-size="10" fill="#607d8b">retina</text>
  <polyline points="150,126 250,126 374,163" fill="none" stroke="#ef6c00" stroke-width="1.8" marker-end="url(#ao)"/>
  <polyline points="150,174 250,174 374,137" fill="none" stroke="#ef6c00" stroke-width="1.8" marker-end="url(#ao)"/>
  <circle cx="330" cy="150" r="4" fill="#c62828"/>
  <text x="330" y="200" text-anchor="middle" font-size="10" fill="#c62828">focus in front of retina</text>

  <text x="150" y="256" text-anchor="middle" font-size="12" font-weight="700" fill="#37474f">Corrected (diverging lens)</text>
  <circle cx="308" cy="325" r="60" fill="#eceff1" stroke="#90a4ae" stroke-width="2"/>
  <line x1="110" y1="325" x2="378" y2="325" stroke="#b0bec5" stroke-width="1" stroke-dasharray="4 4"/>
  <line x1="180" y1="295" x2="180" y2="355" stroke="#6a1b9a" stroke-width="2"/>
  <polygon points="174,299 186,299 180,309" fill="#6a1b9a"/>
  <polygon points="174,351 186,351 180,341" fill="#6a1b9a"/>
  <text x="180" y="376" text-anchor="middle" font-size="10" fill="#6a1b9a">diverging lens</text>
  <ellipse cx="250" cy="325" rx="10" ry="34" fill="#bbdefb" stroke="#1565c0" stroke-width="2"/>
  <line x1="370" y1="299" x2="370" y2="351" stroke="#546e7a" stroke-width="3"/>
  <text x="382" y="329" font-size="10" fill="#607d8b">retina</text>
  <polyline points="110,303 180,303 250,298 370,325" fill="none" stroke="#ef6c00" stroke-width="1.8" marker-end="url(#ao)"/>
  <polyline points="110,347 180,347 250,352 370,325" fill="none" stroke="#ef6c00" stroke-width="1.8" marker-end="url(#ao)"/>
  <circle cx="370" cy="325" r="4" fill="#2e7d32"/>
  <text x="300" y="368" text-anchor="middle" font-size="10" fill="#2e7d32">focus on retina (clear)</text>

  <text x="270" y="402" text-anchor="middle" font-size="12" font-weight="600" fill="#37474f">Myopia: the eye over-converges, focusing in front of the retina</text>
  <text x="270" y="422" text-anchor="middle" font-size="12" fill="#607d8b">a diverging (minus-diopter) lens moves the focus onto the retina &#183; D = 1/f</text>
</svg>
