<svg xmlns="http://www.w3.org/2000/svg" viewBox="0 0 540 440" role="img" aria-labelledby="t d" font-family="-apple-system, Segoe UI, Roboto, sans-serif">
  <title id="t">Transverse wave: wavelength and amplitude</title>
  <desc id="d">A transverse wave drawn as a sine curve about a rest line. The wavelength lambda is the distance between successive crests. The amplitude A is the maximum displacement from the rest position. Particles of the medium move up and down, perpendicular to the direction the wave travels.</desc>
  <defs>
    <marker id="ak" viewBox="0 0 10 10" refX="8" refY="5" markerWidth="8" markerHeight="8" orient="auto"><path d="M0,0 L10,5 L0,10 z" fill="#546e7a"/></marker>
    <marker id="ao" viewBox="0 0 10 10" refX="8" refY="5" markerWidth="7" markerHeight="7" orient="auto"><path d="M0,0 L10,5 L0,10 z" fill="#ef6c00"/></marker>
    <marker id="ag" viewBox="0 0 10 10" refX="8" refY="5" markerWidth="7" markerHeight="7" orient="auto"><path d="M0,0 L10,5 L0,10 z" fill="#2e7d32"/></marker>
  </defs>
  <rect x="6" y="6" width="528" height="428" rx="14" fill="#ffffff" stroke="#cfd8dc" stroke-width="2"/>
  <text x="270" y="34" text-anchor="middle" font-size="18" font-weight="700" fill="#263238">Transverse wave: wavelength and amplitude</text>

  <line x1="70" y1="230" x2="470" y2="230" stroke="#b0bec5" stroke-width="1.5" stroke-dasharray="5 4"/>
  <text x="474" y="234" font-size="11" fill="#607d8b">rest</text>

  <path d="M90,230 C117,150 143,150 170,230 C197,310 223,310 250,230 C277,150 303,150 330,230 C357,310 383,310 410,230" fill="none" stroke="#1565c0" stroke-width="4"/>

  <line x1="150" y1="86" x2="250" y2="86" stroke="#2e7d32" stroke-width="2" marker-end="url(#ag)"/>
  <text x="200" y="80" text-anchor="middle" font-size="11" fill="#2e7d32">direction of travel</text>

  <line x1="130" y1="150" x2="290" y2="150" stroke="#546e7a" stroke-width="1.5" marker-start="url(#ak)" marker-end="url(#ak)"/>
  <text x="210" y="144" text-anchor="middle" font-size="13" font-weight="700" fill="#37474f">&#955; (wavelength)</text>

  <line x1="130" y1="230" x2="130" y2="172" stroke="#c62828" stroke-width="1.5" marker-start="url(#ak)" marker-end="url(#ak)"/>
  <text x="98" y="204" font-size="13" font-weight="700" fill="#c62828">A</text>

  <line x1="410" y1="205" x2="410" y2="255" stroke="#ef6c00" stroke-width="3" marker-start="url(#ao)" marker-end="url(#ao)"/>
  <text x="418" y="234" font-size="11" fill="#ef6c00">particle</text>

  <text x="130" y="140" text-anchor="middle" font-size="11" fill="#607d8b">crest</text>
  <text x="210" y="326" text-anchor="middle" font-size="11" fill="#607d8b">trough</text>

  <text x="270" y="402" text-anchor="middle" font-size="12" font-weight="600" fill="#37474f">Wave speed v = f &#955; &#183; frequency is set by the source</text>
  <text x="270" y="422" text-anchor="middle" font-size="12" fill="#607d8b">transverse: particles oscillate perpendicular to the travel direction</text>
</svg>
