<svg xmlns="http://www.w3.org/2000/svg" viewBox="0 0 540 440" role="img" aria-labelledby="t d" font-family="-apple-system, Segoe UI, Roboto, sans-serif">
  <title id="t">RC charging curve of a capacitor</title>
  <desc id="d">A capacitor charging through a resistor. Its voltage rises quickly at first and then levels off toward the supply voltage, following an exponential curve. After one time constant tau, equal to R times C, the capacitor reaches about 63 percent of the supply voltage, and after about five time constants it is essentially full.</desc>
  <defs>
    <marker id="ak" viewBox="0 0 10 10" refX="8" refY="5" markerWidth="7" markerHeight="7" orient="auto"><path d="M0,0 L10,5 L0,10 z" fill="#546e7a"/></marker>
  </defs>
  <rect x="6" y="6" width="528" height="428" rx="14" fill="#ffffff" stroke="#cfd8dc" stroke-width="2"/>
  <text x="270" y="34" text-anchor="middle" font-size="18" font-weight="700" fill="#263238">RC charging: capacitor voltage over time</text>

  <line x1="100" y1="322" x2="510" y2="322" stroke="#546e7a" stroke-width="2" marker-end="url(#ak)"/>
  <line x1="100" y1="322" x2="100" y2="80" stroke="#546e7a" stroke-width="2" marker-end="url(#ak)"/>
  <text x="514" y="326" font-size="12" fill="#37474f">t</text>
  <text x="88" y="92" font-size="12" fill="#37474f">V</text>

  <line x1="100" y1="110" x2="500" y2="110" stroke="#90a4ae" stroke-width="1.5" stroke-dasharray="6 4"/>
  <text x="500" y="104" text-anchor="end" font-size="11" fill="#607d8b">V supply (maximum)</text>

  <path d="M100,322 C130,250 152,205 180,188 C232,158 284,131 340,121 C400,113 460,111 500,110" fill="none" stroke="#1565c0" stroke-width="4"/>

  <line x1="180" y1="322" x2="180" y2="188" stroke="#b0bec5" stroke-width="1.5" stroke-dasharray="4 4"/>
  <line x1="100" y1="188" x2="180" y2="188" stroke="#b0bec5" stroke-width="1.5" stroke-dasharray="4 4"/>
  <circle cx="180" cy="188" r="4" fill="#c62828"/>
  <text x="196" y="184" font-size="12" font-weight="700" fill="#c62828">63% at t = &#964;</text>
  <text x="180" y="340" text-anchor="middle" font-size="12" font-weight="700" fill="#37474f">&#964; = R C</text>
  <text x="340" y="340" text-anchor="middle" font-size="11" fill="#607d8b">~5&#964;: nearly full</text>

  <text x="270" y="402" text-anchor="middle" font-size="12" font-weight="600" fill="#37474f">The time constant &#964; = R C sets how fast the capacitor charges</text>
  <text x="270" y="422" text-anchor="middle" font-size="12" fill="#607d8b">~63% charged after one &#964; &#183; energy stored U = &#189; C V&#178;</text>
</svg>
