<svg xmlns="http://www.w3.org/2000/svg" viewBox="0 0 540 440" role="img" aria-labelledby="t d" font-family="-apple-system, Segoe UI, Roboto, sans-serif">
  <title id="t">Acid-base equilibria: the pH scale</title>
  <desc id="d">The pH scale from 0 to 14. Values below 7 are acidic, 7 is neutral, and above 7 is basic. Example substances are placed along the scale: hydrochloric acid near 1, vinegar near 3, blood near 7.4, ammonia near 11, and lye near 14. pH equals negative log of hydrogen-ion concentration, and pH plus pOH equals 14 at 25 degrees C.</desc>
  <rect x="6" y="6" width="528" height="428" rx="14" fill="#ffffff" stroke="#cfd8dc" stroke-width="2"/>
  <text x="270" y="32" text-anchor="middle" font-size="17" font-weight="700" fill="#263238">Acid-base equilibria &#8212; the pH scale</text>

  <text x="150" y="72" text-anchor="middle" font-size="12" font-weight="700" fill="#c62828">acidic (pH &lt; 7)</text>
  <text x="270" y="72" text-anchor="middle" font-size="12" font-weight="700" fill="#2e7d32">neutral (7)</text>
  <text x="400" y="72" text-anchor="middle" font-size="12" font-weight="700" fill="#1565c0">basic (pH &gt; 7)</text>

  <g>
    <rect x="60" y="180" width="60" height="40" fill="#c62828"/>
    <rect x="120" y="180" width="60" height="40" fill="#ef6c00"/>
    <rect x="180" y="180" width="60" height="40" fill="#f9a825"/>
    <rect x="240" y="180" width="30" height="40" fill="#9ccc65"/>
    <rect x="270" y="180" width="30" height="40" fill="#2e7d32"/>
    <rect x="300" y="180" width="60" height="40" fill="#00838f"/>
    <rect x="360" y="180" width="60" height="40" fill="#1565c0"/>
    <rect x="420" y="180" width="60" height="40" fill="#6a1b9a"/>
  </g>
  <g font-size="11" fill="#37474f" text-anchor="middle">
    <text x="60" y="238">0</text>
    <text x="120" y="238">2</text>
    <text x="180" y="238">4</text>
    <text x="270" y="238">7</text>
    <text x="360" y="238">10</text>
    <text x="420" y="238">12</text>
    <text x="480" y="238">14</text>
  </g>

  <g font-size="10" fill="#37474f" text-anchor="middle">
    <line x1="90" y1="180" x2="90" y2="160" stroke="#37474f"/><text x="90" y="152">HCl ~1</text>
    <line x1="150" y1="180" x2="150" y2="140" stroke="#37474f"/><text x="150" y="132">vinegar ~3</text>
    <line x1="282" y1="180" x2="282" y2="160" stroke="#37474f"/><text x="292" y="152">blood 7.4</text>
    <line x1="390" y1="180" x2="390" y2="140" stroke="#37474f"/><text x="390" y="132">ammonia ~11</text>
    <line x1="480" y1="180" x2="480" y2="160" stroke="#37474f"/><text x="472" y="152">lye ~14</text>
  </g>

  <text x="270" y="300" text-anchor="middle" font-size="13" font-weight="600" fill="#263238">pH = &#8722;log[H+]   &#183;   pH + pOH = 14</text>
  <text x="270" y="330" text-anchor="middle" font-size="12" fill="#37474f">Kw = [H+][OH&#8722;] = 1.0 &#215; 10^&#8722;14 at 25 &#176;C</text>
  <text x="270" y="362" text-anchor="middle" font-size="12" fill="#607d8b">strong acids/bases ionize fully; weak ones reach a Ka or Kb equilibrium</text>
  <text x="270" y="392" text-anchor="middle" font-size="12" fill="#607d8b">smaller pKa = stronger acid; each pH unit is a 10&#215; change in [H+]</text>
</svg>
