<svg xmlns="http://www.w3.org/2000/svg" viewBox="0 0 540 440" role="img" aria-labelledby="t d" font-family="-apple-system, Segoe UI, Roboto, sans-serif">
  <title id="t">Colligative properties: freezing-point depression and boiling-point elevation</title>
  <desc id="d">A temperature axis. Adding solute widens the liquid range: the freezing point drops below the pure solvent's and the boiling point rises above it. The shifts scale with the number of dissolved particles through the van't Hoff factor i.</desc>
  <rect x="6" y="6" width="528" height="428" rx="14" fill="#ffffff" stroke="#cfd8dc" stroke-width="2"/>
  <text x="270" y="32" text-anchor="middle" font-size="17" font-weight="700" fill="#263238">Colligative properties &#8212; particle counting</text>

  <rect x="140" y="150" width="300" height="24" fill="#e3f2fd"/>
  <line x1="70" y1="162" x2="500" y2="162" stroke="#37474f" stroke-width="2"/>
  <polygon points="500,157 500,167 510,162" fill="#37474f"/>
  <text x="470" y="150" font-size="11" fill="#37474f">Temperature &#8594;</text>

  <line x1="180" y1="140" x2="180" y2="184" stroke="#1565c0" stroke-width="2.5"/>
  <line x1="400" y1="140" x2="400" y2="184" stroke="#1565c0" stroke-width="2.5"/>
  <text x="180" y="132" text-anchor="middle" font-size="10" fill="#1565c0">solvent Tf</text>
  <text x="400" y="132" text-anchor="middle" font-size="10" fill="#1565c0">solvent Tb</text>

  <line x1="140" y1="140" x2="140" y2="184" stroke="#ef6c00" stroke-width="2.5" stroke-dasharray="5 3"/>
  <line x1="440" y1="140" x2="440" y2="184" stroke="#ef6c00" stroke-width="2.5" stroke-dasharray="5 3"/>
  <text x="140" y="204" text-anchor="middle" font-size="10" fill="#ef6c00">solution Tf</text>
  <text x="440" y="204" text-anchor="middle" font-size="10" fill="#ef6c00">solution Tb</text>

  <line x1="180" y1="230" x2="140" y2="230" stroke="#c62828" stroke-width="2"/>
  <polygon points="140,225 140,235 130,230" fill="#c62828"/>
  <text x="120" y="250" font-size="10" fill="#c62828">&#916;Tf depression</text>

  <line x1="400" y1="230" x2="440" y2="230" stroke="#2e7d32" stroke-width="2"/>
  <polygon points="440,225 440,235 450,230" fill="#2e7d32"/>
  <text x="420" y="250" font-size="10" fill="#2e7d32">&#916;Tb elevation</text>

  <text x="290" y="196" text-anchor="middle" font-size="10" fill="#607d8b">solution stays liquid over a wider range</text>

  <text x="270" y="300" text-anchor="middle" font-size="13" font-weight="700" fill="#263238">&#916;T = i &#183; K &#183; m      &#928; = i M R T</text>
  <text x="270" y="336" text-anchor="middle" font-size="12" fill="#37474f">van't Hoff factor i = particles per formula unit</text>
  <text x="270" y="360" text-anchor="middle" font-size="12" fill="#607d8b">glucose i &#8776; 1 &#183; NaCl i &#8776; 2 &#183; CaCl2 i &#8776; 3</text>
  <text x="270" y="392" text-anchor="middle" font-size="11" fill="#607d8b">only particle count matters, not the identity of the solute</text>
  <text x="270" y="414" text-anchor="middle" font-size="11" fill="#607d8b">so 1 m NaCl depresses freezing about twice as much as 1 m glucose</text>
</svg>
