<svg xmlns="http://www.w3.org/2000/svg" viewBox="0 0 540 440" role="img" aria-labelledby="t d" font-family="-apple-system, Segoe UI, Roboto, sans-serif">
  <title id="t">Gas phase: pressure-volume and volume-temperature relationships</title>
  <desc id="d">Left: Boyle's law at fixed temperature, pressure versus volume traces a hyperbola because P times V is constant. Right: Charles's law at fixed pressure, volume is directly proportional to absolute temperature, a straight line that extrapolates to zero volume at zero kelvin.</desc>
  <rect x="6" y="6" width="528" height="428" rx="14" fill="#ffffff" stroke="#cfd8dc" stroke-width="2"/>
  <text x="270" y="30" text-anchor="middle" font-size="17" font-weight="700" fill="#263238">Gas phase &#8212; PV = nRT relationships</text>

  <!-- Boyle panel -->
  <line x1="70" y1="90" x2="70" y2="250" stroke="#37474f" stroke-width="2"/>
  <line x1="70" y1="250" x2="250" y2="250" stroke="#37474f" stroke-width="2"/>
  <text x="46" y="170" font-size="12" fill="#37474f" transform="rotate(-90 46 170)">Pressure</text>
  <text x="160" y="272" text-anchor="middle" font-size="12" fill="#37474f">Volume</text>
  <path d="M80,110 C100,150 112,175 122,185 C155,215 190,230 245,238" fill="none" stroke="#1565c0" stroke-width="2.5"/>
  <text x="160" y="106" text-anchor="middle" font-size="12" font-weight="600" fill="#1565c0">Boyle: P &#215; V = constant</text>
  <text x="160" y="300" text-anchor="middle" font-size="11" fill="#607d8b">T fixed &#183; P rises as V falls</text>

  <!-- Charles panel -->
  <line x1="310" y1="90" x2="310" y2="250" stroke="#37474f" stroke-width="2"/>
  <line x1="310" y1="250" x2="500" y2="250" stroke="#37474f" stroke-width="2"/>
  <text x="286" y="170" font-size="12" fill="#37474f" transform="rotate(-90 286 170)">Volume</text>
  <text x="405" y="272" text-anchor="middle" font-size="12" fill="#37474f">Temperature (K)</text>
  <line x1="360" y1="220" x2="495" y2="110" stroke="#2e7d32" stroke-width="2.5"/>
  <line x1="310" y1="250" x2="360" y2="220" stroke="#2e7d32" stroke-width="2" stroke-dasharray="5 4"/>
  <circle cx="310" cy="250" r="3" fill="#c62828"/>
  <text x="316" y="264" font-size="10" fill="#c62828">0 K, V=0</text>
  <text x="405" y="106" text-anchor="middle" font-size="12" font-weight="600" fill="#2e7d32">Charles: V proportional to T</text>
  <text x="405" y="300" text-anchor="middle" font-size="11" fill="#607d8b">P fixed &#183; extrapolates to 0 at 0 K</text>

  <text x="270" y="358" text-anchor="middle" font-size="13" font-weight="600" fill="#263238">PV = nRT</text>
  <text x="270" y="384" text-anchor="middle" font-size="11" fill="#607d8b">temperature must be in kelvin &#183; particles fast, tiny, and far apart</text>
  <text x="270" y="406" text-anchor="middle" font-size="11" fill="#607d8b">real gases deviate at high pressure and low temperature</text>
</svg>
