<svg xmlns="http://www.w3.org/2000/svg" viewBox="0 0 540 440" role="img" aria-labelledby="t d" font-family="-apple-system, Segoe UI, Roboto, sans-serif">
  <title id="t">Ions in solution: dissociation and conductivity</title>
  <desc id="d">Left: sodium chloride dissolves and dissociates into free sodium and chloride ions surrounded by water. Right: conductivity comparison. A strong electrolyte fully dissociates and lights the bulb brightly, a weak electrolyte only partially dissociates and lights it dimly, and a nonelectrolyte stays intact and does not conduct.</desc>
  <rect x="6" y="6" width="528" height="428" rx="14" fill="#ffffff" stroke="#cfd8dc" stroke-width="2"/>
  <text x="270" y="30" text-anchor="middle" font-size="17" font-weight="700" fill="#263238">Ions in solution</text>

  <text x="140" y="66" text-anchor="middle" font-size="12" font-weight="600" fill="#263238">NaCl(s) &#8594; Na+(aq) + Cl&#8722;(aq)</text>
  <path d="M60,90 L60,300 Q60,320 80,320 L200,320 Q220,320 220,300 L220,90" fill="#e3f2fd" stroke="#90a4ae" stroke-width="2"/>
  <circle cx="100" cy="150" r="13" fill="#1565c0"/><text x="100" y="154" text-anchor="middle" font-size="10" fill="#fff">Na+</text>
  <circle cx="165" cy="180" r="13" fill="#2e7d32"/><text x="165" y="184" text-anchor="middle" font-size="10" fill="#fff">Cl&#8722;</text>
  <circle cx="110" cy="240" r="13" fill="#2e7d32"/><text x="110" y="244" text-anchor="middle" font-size="10" fill="#fff">Cl&#8722;</text>
  <circle cx="170" cy="255" r="13" fill="#1565c0"/><text x="170" y="259" text-anchor="middle" font-size="10" fill="#fff">Na+</text>
  <circle cx="90" cy="290" r="13" fill="#1565c0"/><text x="90" y="294" text-anchor="middle" font-size="10" fill="#fff">Na+</text>
  <circle cx="150" cy="115" r="13" fill="#2e7d32"/><text x="150" y="119" text-anchor="middle" font-size="10" fill="#fff">Cl&#8722;</text>
  <text x="140" y="342" text-anchor="middle" font-size="10" fill="#607d8b">free ions, each hydrated by water</text>

  <text x="380" y="66" text-anchor="middle" font-size="12" font-weight="600" fill="#263238">Conductivity</text>
  <!-- strong -->
  <circle cx="300" cy="110" r="14" fill="#ffee58" stroke="#f9a825"/>
  <rect x="278" y="150" width="44" height="60" rx="4" fill="#e3f2fd" stroke="#90a4ae"/>
  <circle cx="290" cy="180" r="4" fill="#1565c0"/><circle cx="302" cy="192" r="4" fill="#2e7d32"/><circle cx="312" cy="170" r="4" fill="#1565c0"/><circle cx="296" cy="200" r="4" fill="#2e7d32"/>
  <text x="300" y="228" text-anchor="middle" font-size="11" font-weight="600" fill="#37474f">strong</text>
  <text x="300" y="244" text-anchor="middle" font-size="9" fill="#607d8b">full, bright</text>

  <!-- weak -->
  <circle cx="380" cy="110" r="14" fill="#fff9c4" stroke="#c0ca33"/>
  <rect x="358" y="150" width="44" height="60" rx="4" fill="#e3f2fd" stroke="#90a4ae"/>
  <circle cx="372" cy="188" r="4" fill="#1565c0"/><circle cx="386" cy="196" r="4" fill="#2e7d32"/>
  <text x="380" y="228" text-anchor="middle" font-size="11" font-weight="600" fill="#37474f">weak</text>
  <text x="380" y="244" text-anchor="middle" font-size="9" fill="#607d8b">partial, dim</text>

  <!-- none -->
  <circle cx="460" cy="110" r="14" fill="#eceff1" stroke="#b0bec5"/>
  <rect x="438" y="150" width="44" height="60" rx="4" fill="#e3f2fd" stroke="#90a4ae"/>
  <circle cx="452" cy="185" r="5" fill="#b0bec5"/><circle cx="468" cy="196" r="5" fill="#b0bec5"/>
  <text x="460" y="228" text-anchor="middle" font-size="11" font-weight="600" fill="#37474f">none</text>
  <text x="460" y="244" text-anchor="middle" font-size="9" fill="#607d8b">glucose, off</text>

  <text x="270" y="300" text-anchor="middle" font-size="12" font-weight="600" fill="#37474f">conductivity scales with the concentration of free ions</text>
  <text x="270" y="326" text-anchor="middle" font-size="11" fill="#607d8b">being ionic guarantees dissociation of the part that dissolves, not high solubility</text>
  <text x="270" y="352" text-anchor="middle" font-size="11" fill="#607d8b">AgCl and CaCO3 are ionic yet only slightly soluble</text>
</svg>
