<svg xmlns="http://www.w3.org/2000/svg" viewBox="0 0 540 440" role="img" aria-labelledby="t d" font-family="-apple-system, Segoe UI, Roboto, sans-serif">
  <title id="t">Kinetics: energy profile with and without a catalyst</title>
  <desc id="d">A reaction-coordinate energy profile. The uncatalyzed path (solid) has a tall activation-energy barrier; the catalyzed path (dashed) has a lower barrier. Both share the same reactant and product energies, so the catalyst lowers activation energy without changing delta H.</desc>
  <rect x="6" y="6" width="528" height="428" rx="14" fill="#ffffff" stroke="#cfd8dc" stroke-width="2"/>
  <text x="270" y="32" text-anchor="middle" font-size="17" font-weight="700" fill="#263238">Kinetics &#8212; a catalyst lowers Ea, not &#916;H</text>

  <line x1="70" y1="70" x2="70" y2="330" stroke="#37474f" stroke-width="2"/>
  <line x1="70" y1="330" x2="500" y2="330" stroke="#37474f" stroke-width="2"/>
  <text x="46" y="210" font-size="12" fill="#37474f" transform="rotate(-90 46 210)">Energy</text>
  <text x="285" y="360" text-anchor="middle" font-size="12" fill="#37474f">Reaction progress &#8594;</text>

  <path d="M90,190 L150,190 C200,190 220,90 250,90 C280,90 300,260 380,260 L440,260" fill="none" stroke="#c62828" stroke-width="2.5"/>
  <path d="M90,190 L160,190 C205,190 225,150 250,150 C275,150 300,260 380,260 L440,260" fill="none" stroke="#2e7d32" stroke-width="2.5" stroke-dasharray="6 4"/>

  <line x1="90" y1="190" x2="440" y2="190" stroke="#cfd8dc" stroke-width="1" stroke-dasharray="3 3"/>
  <line x1="90" y1="260" x2="440" y2="260" stroke="#cfd8dc" stroke-width="1" stroke-dasharray="3 3"/>

  <line x1="212" y1="188" x2="212" y2="92" stroke="#c62828" stroke-width="1.5"/>
  <polygon points="207,98 217,98 212,90" fill="#c62828"/>
  <text x="120" y="130" font-size="10" fill="#c62828">Ea (no catalyst)</text>

  <line x1="292" y1="188" x2="292" y2="152" stroke="#2e7d32" stroke-width="1.5"/>
  <polygon points="287,158 297,158 292,150" fill="#2e7d32"/>
  <text x="300" y="150" font-size="10" fill="#2e7d32">Ea (catalyst)</text>

  <line x1="410" y1="192" x2="410" y2="258" stroke="#37474f" stroke-width="1.5"/>
  <polygon points="405,252 415,252 410,260" fill="#37474f"/>
  <polygon points="405,198 415,198 410,190" fill="#37474f"/>
  <text x="416" y="228" font-size="10" fill="#37474f">&#916;H (same)</text>

  <text x="100" y="182" font-size="10" fill="#607d8b">reactants</text>
  <text x="395" y="278" font-size="10" fill="#607d8b">products</text>

  <text x="270" y="392" text-anchor="middle" font-size="11" fill="#607d8b">lower Ea &#8594; larger rate constant k (Arrhenius); the slow step sets the overall rate</text>
  <text x="270" y="414" text-anchor="middle" font-size="11" fill="#607d8b">the catalyst is not consumed and does not shift the equilibrium position</text>
</svg>
