<svg xmlns="http://www.w3.org/2000/svg" viewBox="0 0 540 440" role="img" aria-labelledby="t d" font-family="-apple-system, Segoe UI, Roboto, sans-serif">
  <title id="t">Molecular geometry: VSEPR shapes and bond angles</title>
  <desc id="d">Five VSEPR shapes with representative bond angles: linear (CO2, 180 degrees), trigonal planar (BF3, 120 degrees), tetrahedral (CH4, 109.5 degrees), trigonal pyramidal (NH3, 107 degrees, one lone pair), and bent (H2O, 104.5 degrees, two lone pairs). Lone pairs push bonding pairs closer, shrinking the angle.</desc>
  <rect x="6" y="6" width="528" height="428" rx="14" fill="#ffffff" stroke="#cfd8dc" stroke-width="2"/>
  <text x="270" y="32" text-anchor="middle" font-size="17" font-weight="700" fill="#263238">Molecular geometry &#8212; VSEPR shapes</text>

  <!-- linear -->
  <g stroke="#607d8b" stroke-width="3">
    <line x1="110" y1="120" x2="190" y2="120"/>
  </g>
  <circle cx="150" cy="120" r="12" fill="#1565c0"/>
  <circle cx="110" cy="120" r="9" fill="#c62828"/>
  <circle cx="190" cy="120" r="9" fill="#c62828"/>
  <text x="150" y="160" text-anchor="middle" font-size="12" font-weight="600" fill="#263238">linear</text>
  <text x="150" y="178" text-anchor="middle" font-size="11" fill="#607d8b">CO2 &#183; 180&#176;</text>

  <!-- trigonal planar -->
  <g stroke="#607d8b" stroke-width="3">
    <line x1="290" y1="118" x2="290" y2="82"/>
    <line x1="290" y1="118" x2="262" y2="140"/>
    <line x1="290" y1="118" x2="318" y2="140"/>
  </g>
  <circle cx="290" cy="118" r="12" fill="#1565c0"/>
  <circle cx="290" cy="82" r="8" fill="#2e7d32"/>
  <circle cx="262" cy="140" r="8" fill="#2e7d32"/>
  <circle cx="318" cy="140" r="8" fill="#2e7d32"/>
  <text x="290" y="160" text-anchor="middle" font-size="12" font-weight="600" fill="#263238">trigonal planar</text>
  <text x="290" y="178" text-anchor="middle" font-size="11" fill="#607d8b">BF3 &#183; 120&#176;</text>

  <!-- tetrahedral -->
  <g stroke="#607d8b" stroke-width="3">
    <line x1="430" y1="118" x2="430" y2="82"/>
    <line x1="430" y1="118" x2="400" y2="140"/>
    <line x1="430" y1="118" x2="460" y2="140"/>
    <line x1="430" y1="118" x2="430" y2="150"/>
  </g>
  <circle cx="430" cy="118" r="12" fill="#1565c0"/>
  <circle cx="430" cy="82" r="8" fill="#90a4ae"/>
  <circle cx="400" cy="140" r="8" fill="#90a4ae"/>
  <circle cx="460" cy="140" r="8" fill="#90a4ae"/>
  <circle cx="430" cy="150" r="8" fill="#90a4ae"/>
  <text x="430" y="176" text-anchor="middle" font-size="12" font-weight="600" fill="#263238">tetrahedral</text>
  <text x="430" y="194" text-anchor="middle" font-size="11" fill="#607d8b">CH4 &#183; 109.5&#176;</text>

  <!-- trigonal pyramidal -->
  <g stroke="#607d8b" stroke-width="3">
    <line x1="180" y1="290" x2="150" y2="312"/>
    <line x1="180" y1="290" x2="210" y2="312"/>
    <line x1="180" y1="290" x2="180" y2="322"/>
  </g>
  <ellipse cx="180" cy="262" rx="16" ry="11" fill="#eceff1" stroke="#ef6c00" stroke-dasharray="3 2"/>
  <text x="180" y="266" text-anchor="middle" font-size="9" fill="#ef6c00">lone</text>
  <circle cx="180" cy="290" r="12" fill="#1565c0"/>
  <circle cx="150" cy="312" r="8" fill="#90a4ae"/>
  <circle cx="210" cy="312" r="8" fill="#90a4ae"/>
  <circle cx="180" cy="322" r="8" fill="#90a4ae"/>
  <text x="180" y="352" text-anchor="middle" font-size="12" font-weight="600" fill="#263238">trigonal pyramidal</text>
  <text x="180" y="370" text-anchor="middle" font-size="11" fill="#607d8b">NH3 &#183; 107&#176;</text>

  <!-- bent -->
  <g stroke="#607d8b" stroke-width="3">
    <line x1="360" y1="300" x2="330" y2="322"/>
    <line x1="360" y1="300" x2="390" y2="322"/>
  </g>
  <ellipse cx="342" cy="278" rx="13" ry="9" fill="#eceff1" stroke="#ef6c00" stroke-dasharray="3 2"/>
  <ellipse cx="378" cy="278" rx="13" ry="9" fill="#eceff1" stroke="#ef6c00" stroke-dasharray="3 2"/>
  <circle cx="360" cy="300" r="12" fill="#c62828"/>
  <circle cx="330" cy="322" r="8" fill="#90a4ae"/>
  <circle cx="390" cy="322" r="8" fill="#90a4ae"/>
  <text x="360" y="352" text-anchor="middle" font-size="12" font-weight="600" fill="#263238">bent</text>
  <text x="360" y="370" text-anchor="middle" font-size="11" fill="#607d8b">H2O &#183; 104.5&#176;</text>

  <text x="270" y="412" text-anchor="middle" font-size="11" fill="#607d8b">lone pairs repel more strongly, so each one squeezes the bond angle smaller</text>
</svg>
