<svg xmlns="http://www.w3.org/2000/svg" viewBox="0 0 540 440" role="img" aria-labelledby="t d" font-family="-apple-system, Segoe UI, Roboto, sans-serif">
  <title id="t">Periodic trends: radius, ionization energy, and electronegativity</title>
  <desc id="d">A schematic periodic-table grid. Ionization energy and electronegativity increase left to right and bottom to top, tracking rising effective nuclear charge. Atomic radius increases in the opposite direction: down a group and right to left. Fluorine (top right) is most electronegative; cesium (bottom left) is largest.</desc>
  <rect x="6" y="6" width="528" height="428" rx="14" fill="#ffffff" stroke="#cfd8dc" stroke-width="2"/>
  <text x="270" y="32" text-anchor="middle" font-size="17" font-weight="700" fill="#263238">Periodic trends across the table</text>

  <text x="264" y="86" text-anchor="middle" font-size="12" font-weight="600" fill="#c62828">Zeff, ionization energy, electronegativity increase &#8594;</text>
  <line x1="120" y1="98" x2="404" y2="98" stroke="#c62828" stroke-width="2"/>
  <polygon points="404,93 404,103 414,98" fill="#c62828"/>

  <g stroke="#cfd8dc" stroke-width="1" fill="#f5f7f8">
    <rect x="120" y="120" width="288" height="128"/>
  </g>
  <g stroke="#cfd8dc" stroke-width="1">
    <line x1="152" y1="120" x2="152" y2="248"/>
    <line x1="184" y1="120" x2="184" y2="248"/>
    <line x1="216" y1="120" x2="216" y2="248"/>
    <line x1="248" y1="120" x2="248" y2="248"/>
    <line x1="280" y1="120" x2="280" y2="248"/>
    <line x1="312" y1="120" x2="312" y2="248"/>
    <line x1="344" y1="120" x2="344" y2="248"/>
    <line x1="376" y1="120" x2="376" y2="248"/>
    <line x1="120" y1="152" x2="408" y2="152"/>
    <line x1="120" y1="184" x2="408" y2="184"/>
    <line x1="120" y1="216" x2="408" y2="216"/>
  </g>

  <rect x="376" y="120" width="32" height="32" fill="#ffe0b2" stroke="#ef6c00"/>
  <text x="392" y="141" text-anchor="middle" font-size="13" font-weight="700" fill="#ef6c00">F</text>
  <rect x="120" y="216" width="32" height="32" fill="#bbdefb" stroke="#1565c0"/>
  <text x="136" y="237" text-anchor="middle" font-size="12" font-weight="700" fill="#1565c0">Cs</text>

  <line x1="104" y1="124" x2="104" y2="242" stroke="#1565c0" stroke-width="2"/>
  <polygon points="99,242 109,242 104,252" fill="#1565c0"/>
  <text x="96" y="184" font-size="12" font-weight="600" fill="#1565c0" transform="rotate(-90 96 184)">atomic radius increases</text>

  <text x="270" y="300" text-anchor="middle" font-size="12" fill="#37474f">Atomic radius also increases right &#8594; left (fewer protons pulling the same shell)</text>
  <text x="270" y="326" text-anchor="middle" font-size="12" fill="#37474f">Ionization energy = energy to remove an electron; harder when radius is small</text>

  <rect x="150" y="352" width="16" height="16" fill="#ffe0b2" stroke="#ef6c00"/>
  <text x="174" y="365" font-size="12" fill="#607d8b">most electronegative (F)</text>
  <rect x="330" y="352" width="16" height="16" fill="#bbdefb" stroke="#1565c0"/>
  <text x="354" y="365" font-size="12" fill="#607d8b">largest atom (Cs)</text>

  <text x="270" y="400" text-anchor="middle" font-size="11" fill="#607d8b">cations are smaller than their atoms &#183; anions are larger</text>
</svg>
