<svg xmlns="http://www.w3.org/2000/svg" viewBox="0 0 540 440" role="img" aria-labelledby="t d" font-family="-apple-system, Segoe UI, Roboto, sans-serif">
  <title id="t">Thermochemistry: exothermic and endothermic enthalpy diagrams</title>
  <desc id="d">Two reaction-coordinate diagrams. Exothermic: products sit lower in enthalpy than reactants, so delta H is negative and heat is released. Endothermic: products sit higher than reactants, so delta H is positive and heat is absorbed. Enthalpy is a state function.</desc>
  <rect x="6" y="6" width="528" height="428" rx="14" fill="#ffffff" stroke="#cfd8dc" stroke-width="2"/>
  <text x="270" y="30" text-anchor="middle" font-size="17" font-weight="700" fill="#263238">Thermochemistry &#8212; enthalpy diagrams</text>

  <!-- exothermic -->
  <line x1="70" y1="80" x2="70" y2="330" stroke="#37474f" stroke-width="2"/>
  <line x1="70" y1="330" x2="250" y2="330" stroke="#37474f" stroke-width="2"/>
  <text x="46" y="210" font-size="11" fill="#37474f" transform="rotate(-90 46 210)">Enthalpy (H)</text>
  <path d="M80,170 L112,170 C140,170 150,110 165,110 C182,110 195,260 220,260 L245,260" fill="none" stroke="#c62828" stroke-width="2.5"/>
  <line x1="112" y1="170" x2="235" y2="170" stroke="#c62828" stroke-width="1" stroke-dasharray="4 3"/>
  <line x1="228" y1="170" x2="228" y2="260" stroke="#37474f" stroke-width="1.5"/>
  <polygon points="223,255 233,255 228,262" fill="#37474f"/>
  <text x="234" y="220" font-size="11" fill="#37474f">&#916;H &lt; 0</text>
  <text x="95" y="162" font-size="10" fill="#607d8b">reactants</text>
  <text x="215" y="278" font-size="10" fill="#607d8b">products</text>
  <text x="160" y="352" text-anchor="middle" font-size="12" font-weight="600" fill="#c62828">exothermic (heat released)</text>

  <!-- endothermic -->
  <line x1="300" y1="80" x2="300" y2="330" stroke="#37474f" stroke-width="2"/>
  <line x1="300" y1="330" x2="500" y2="330" stroke="#37474f" stroke-width="2"/>
  <path d="M310,260 L342,260 C372,260 382,110 398,110 C415,110 430,180 458,180 L488,180" fill="none" stroke="#2e7d32" stroke-width="2.5"/>
  <line x1="342" y1="260" x2="470" y2="260" stroke="#2e7d32" stroke-width="1" stroke-dasharray="4 3"/>
  <line x1="462" y1="180" x2="462" y2="260" stroke="#37474f" stroke-width="1.5"/>
  <polygon points="457,187 467,187 462,180" fill="#37474f"/>
  <text x="468" y="230" font-size="11" fill="#37474f">&#916;H &gt; 0</text>
  <text x="326" y="278" font-size="10" fill="#607d8b">reactants</text>
  <text x="452" y="172" font-size="10" fill="#607d8b">products</text>
  <text x="400" y="352" text-anchor="middle" font-size="12" font-weight="600" fill="#2e7d32">endothermic (heat absorbed)</text>

  <text x="270" y="392" text-anchor="middle" font-size="11" fill="#607d8b">&#916;H depends only on initial and final states (state function)</text>
  <text x="270" y="414" text-anchor="middle" font-size="11" fill="#607d8b">Hess's law: add known reaction steps to reach an unknown &#916;H</text>
</svg>
