<svg xmlns="http://www.w3.org/2000/svg" width="660" height="500" viewBox="0 0 660 500" font-family="Helvetica,Arial,sans-serif">
<rect x="0" y="0" width="660" height="500" fill="#ffffff"/>
<text x="330" y="28" text-anchor="middle" font-size="18" font-weight="bold" fill="#111827">AI evaluation vs pre-committed cutoffs</text>
<text x="330" y="48" text-anchor="middle" font-size="12" fill="#6b7280">gpt-4o-mini, held-out; 40 items per set</text>
<line x1="60" y1="412.0" x2="630" y2="412.0" stroke="#eef2f7" stroke-width="1"/>
<text x="52" y="415.0" text-anchor="end" font-size="10" fill="#6b7280">0%</text>
<line x1="60" y1="345.6" x2="630" y2="345.6" stroke="#eef2f7" stroke-width="1"/>
<text x="52" y="348.6" text-anchor="end" font-size="10" fill="#6b7280">20%</text>
<line x1="60" y1="279.2" x2="630" y2="279.2" stroke="#eef2f7" stroke-width="1"/>
<text x="52" y="282.2" text-anchor="end" font-size="10" fill="#6b7280">40%</text>
<line x1="60" y1="212.8" x2="630" y2="212.8" stroke="#eef2f7" stroke-width="1"/>
<text x="52" y="215.8" text-anchor="end" font-size="10" fill="#6b7280">60%</text>
<line x1="60" y1="146.4" x2="630" y2="146.4" stroke="#eef2f7" stroke-width="1"/>
<text x="52" y="149.4" text-anchor="end" font-size="10" fill="#6b7280">80%</text>
<line x1="60" y1="80.0" x2="630" y2="80.0" stroke="#eef2f7" stroke-width="1"/>
<text x="52" y="83.0" text-anchor="end" font-size="10" fill="#6b7280">100%</text>
<rect x="62.7" y="295.8" width="29.9" height="116.2" fill="#9ca3af"/>
<text x="77.7" y="291.8" text-anchor="middle" font-size="9" fill="#6b7280">35</text>
<rect x="95.6" y="119.8" width="71.2" height="292.2" fill="#2563eb"/>
<text x="131.2" y="115.8" text-anchor="middle" font-size="10" fill="#374151">88%</text>
<line x1="91.6" y1="146.4" x2="170.9" y2="146.4" stroke="#dc2626" stroke-width="1.6" stroke-dasharray="5,3"/>
<text x="131.2" y="430" text-anchor="middle" font-size="11" fill="#374151">KC tagging</text>
<rect x="238.1" y="96.6" width="71.2" height="315.4" fill="#2563eb"/>
<text x="273.8" y="92.6" text-anchor="middle" font-size="10" fill="#374151">95%</text>
<line x1="234.1" y1="129.8" x2="313.4" y2="129.8" stroke="#dc2626" stroke-width="1.6" stroke-dasharray="5,3"/>
<text x="273.8" y="430" text-anchor="middle" font-size="11" fill="#374151">Rewording</text>
<rect x="380.6" y="86.6" width="71.2" height="325.4" fill="#2563eb"/>
<text x="416.2" y="82.6" text-anchor="middle" font-size="10" fill="#374151">98%</text>
<line x1="376.6" y1="80.0" x2="455.9" y2="80.0" stroke="#dc2626" stroke-width="1.6" stroke-dasharray="5,3"/>
<text x="416.2" y="430" text-anchor="middle" font-size="11" fill="#374151">Inject: tagger</text>
<rect x="523.1" y="80.0" width="71.2" height="332.0" fill="#2563eb"/>
<text x="558.8" y="76.0" text-anchor="middle" font-size="10" fill="#374151">100%</text>
<line x1="519.1" y1="80.0" x2="598.4" y2="80.0" stroke="#dc2626" stroke-width="1.6" stroke-dasharray="5,3"/>
<text x="558.8" y="430" text-anchor="middle" font-size="11" fill="#374151">Inject: tutor</text>
<rect x="66" y="79" width="12" height="12" fill="#2563eb"/>
<text x="83" y="89" font-size="11" fill="#374151">result</text>
<rect x="156" y="79" width="12" height="12" fill="#9ca3af"/>
<text x="173" y="89" font-size="11" fill="#374151">baseline</text>
<line x1="251" y1="85" x2="271" y2="85" stroke="#dc2626" stroke-width="1.6" stroke-dasharray="5,3"/>
<text x="276" y="89" font-size="11" fill="#374151">cutoff</text>
<text x="330" y="486" text-anchor="middle" font-size="12" fill="#111827">Leaks 0, contamination 0   --   tagger-injection 98% (1 breach) vs 100% cutoff</text>
</svg>
