<svg xmlns="http://www.w3.org/2000/svg" width="640" height="500" viewBox="0 0 640 500" font-family="Helvetica,Arial,sans-serif">
<rect x="0" y="0" width="640" height="500" fill="#ffffff"/>
<text x="320" y="28" text-anchor="middle" font-size="18" font-weight="bold" fill="#111827">Performance model -- ROC curve</text>
<text x="320" y="48" text-anchor="middle" font-size="12" fill="#6b7280">SYNTHETIC held-out attempts (n=1560); IRT 3PL item-response model</text>
<line x1="70.0" y1="70" x2="70.0" y2="430" stroke="#eef2f7" stroke-width="1"/>
<line x1="70" y1="430.0" x2="610" y2="430.0" stroke="#eef2f7" stroke-width="1"/>
<text x="70.0" y="448" text-anchor="middle" font-size="10" fill="#6b7280">0.0</text>
<text x="62" y="433.0" text-anchor="end" font-size="10" fill="#6b7280">0.0</text>
<line x1="124.0" y1="70" x2="124.0" y2="430" stroke="#eef2f7" stroke-width="1"/>
<line x1="70" y1="394.0" x2="610" y2="394.0" stroke="#eef2f7" stroke-width="1"/>
<text x="124.0" y="448" text-anchor="middle" font-size="10" fill="#6b7280">0.1</text>
<text x="62" y="397.0" text-anchor="end" font-size="10" fill="#6b7280">0.1</text>
<line x1="178.0" y1="70" x2="178.0" y2="430" stroke="#eef2f7" stroke-width="1"/>
<line x1="70" y1="358.0" x2="610" y2="358.0" stroke="#eef2f7" stroke-width="1"/>
<text x="178.0" y="448" text-anchor="middle" font-size="10" fill="#6b7280">0.2</text>
<text x="62" y="361.0" text-anchor="end" font-size="10" fill="#6b7280">0.2</text>
<line x1="232.0" y1="70" x2="232.0" y2="430" stroke="#eef2f7" stroke-width="1"/>
<line x1="70" y1="322.0" x2="610" y2="322.0" stroke="#eef2f7" stroke-width="1"/>
<text x="232.0" y="448" text-anchor="middle" font-size="10" fill="#6b7280">0.3</text>
<text x="62" y="325.0" text-anchor="end" font-size="10" fill="#6b7280">0.3</text>
<line x1="286.0" y1="70" x2="286.0" y2="430" stroke="#eef2f7" stroke-width="1"/>
<line x1="70" y1="286.0" x2="610" y2="286.0" stroke="#eef2f7" stroke-width="1"/>
<text x="286.0" y="448" text-anchor="middle" font-size="10" fill="#6b7280">0.4</text>
<text x="62" y="289.0" text-anchor="end" font-size="10" fill="#6b7280">0.4</text>
<line x1="340.0" y1="70" x2="340.0" y2="430" stroke="#eef2f7" stroke-width="1"/>
<line x1="70" y1="250.0" x2="610" y2="250.0" stroke="#eef2f7" stroke-width="1"/>
<text x="340.0" y="448" text-anchor="middle" font-size="10" fill="#6b7280">0.5</text>
<text x="62" y="253.0" text-anchor="end" font-size="10" fill="#6b7280">0.5</text>
<line x1="394.0" y1="70" x2="394.0" y2="430" stroke="#eef2f7" stroke-width="1"/>
<line x1="70" y1="214.0" x2="610" y2="214.0" stroke="#eef2f7" stroke-width="1"/>
<text x="394.0" y="448" text-anchor="middle" font-size="10" fill="#6b7280">0.6</text>
<text x="62" y="217.0" text-anchor="end" font-size="10" fill="#6b7280">0.6</text>
<line x1="448.0" y1="70" x2="448.0" y2="430" stroke="#eef2f7" stroke-width="1"/>
<line x1="70" y1="178.0" x2="610" y2="178.0" stroke="#eef2f7" stroke-width="1"/>
<text x="448.0" y="448" text-anchor="middle" font-size="10" fill="#6b7280">0.7</text>
<text x="62" y="181.0" text-anchor="end" font-size="10" fill="#6b7280">0.7</text>
<line x1="502.0" y1="70" x2="502.0" y2="430" stroke="#eef2f7" stroke-width="1"/>
<line x1="70" y1="142.0" x2="610" y2="142.0" stroke="#eef2f7" stroke-width="1"/>
<text x="502.0" y="448" text-anchor="middle" font-size="10" fill="#6b7280">0.8</text>
<text x="62" y="145.0" text-anchor="end" font-size="10" fill="#6b7280">0.8</text>
<line x1="556.0" y1="70" x2="556.0" y2="430" stroke="#eef2f7" stroke-width="1"/>
<line x1="70" y1="106.0" x2="610" y2="106.0" stroke="#eef2f7" stroke-width="1"/>
<text x="556.0" y="448" text-anchor="middle" font-size="10" fill="#6b7280">0.9</text>
<text x="62" y="109.0" text-anchor="end" font-size="10" fill="#6b7280">0.9</text>
<line x1="610.0" y1="70" x2="610.0" y2="430" stroke="#eef2f7" stroke-width="1"/>
<line x1="70" y1="70.0" x2="610" y2="70.0" stroke="#eef2f7" stroke-width="1"/>
<text x="610.0" y="448" text-anchor="middle" font-size="10" fill="#6b7280">1.0</text>
<text x="62" y="73.0" text-anchor="end" font-size="10" fill="#6b7280">1.0</text>
<rect x="70" y="70" width="540" height="360" fill="none" stroke="#9ca3af" stroke-width="1.5"/>
<line x1="70.0" y1="430.0" x2="610.0" y2="70.0" stroke="#9ca3af" stroke-width="1.5" stroke-dasharray="6,5"/>
<text x="404.8" y="232.0" font-size="10" fill="#6b7280" transform="rotate(-33 404.8 232.0)">chance (AUC 0.50)</text>
<polyline points="70.0,430.0 70.0,429.6 70.0,429.2 70.0,428.8 70.0,428.4 70.0,428.0 70.0,427.6 70.0,427.2 70.0,426.8 70.0,426.4 70.0,426.0 70.0,425.6 70.0,425.2 70.0,424.8 70.8,424.8 70.8,424.4 70.8,424.0 70.8,423.5 70.8,423.1 70.8,422.7 70.8,422.3 70.8,421.9 70.8,421.5 70.8,421.1 70.8,420.7 70.8,420.3 70.8,419.9 70.8,419.5 71.6,419.5 72.4,419.5 72.4,419.1 72.4,418.7 72.4,418.3 72.4,417.9 72.4,417.5 72.4,417.1 72.4,416.7 72.4,416.3 73.2,416.3 73.2,415.9 74.0,415.9 74.9,415.9 74.9,415.5 75.7,415.5 75.7,415.1 75.7,414.7 75.7,414.3 76.5,414.3 76.5,413.9 76.5,413.5 76.5,413.1 76.5,412.7 76.5,412.3 76.5,411.9 76.5,411.5 76.5,411.1 76.5,410.6 76.5,410.2 76.5,409.8 76.5,409.4 76.5,409.0 76.5,408.6 76.5,408.2 76.5,407.8 76.5,407.4 77.3,407.4 77.3,407.0 77.3,406.6 77.3,406.2 77.3,405.8 77.3,405.4 77.3,405.0 77.3,404.6 77.3,404.2 77.3,403.8 77.3,403.4 77.3,403.0 78.1,403.0 78.1,402.6 78.1,402.2 78.1,401.8 78.1,401.4 78.9,401.4 78.9,401.0 78.9,400.6 78.9,400.2 78.9,399.8 78.9,399.4 78.9,399.0 78.9,398.6 78.9,398.2 78.9,397.7 78.9,397.3 78.9,396.9 78.9,396.5 78.9,396.1 78.9,395.7 79.7,395.7 79.7,395.3 79.7,394.9 79.7,394.5 79.7,394.1 79.7,393.7 79.7,393.3 79.7,392.9 79.7,392.5 79.7,392.1 79.7,391.7 79.7,391.3 79.7,390.9 79.7,390.5 79.7,390.1 79.7,389.7 79.7,389.3 79.7,388.9 79.7,388.5 79.7,388.1 79.7,387.7 79.7,387.3 80.5,387.3 80.5,386.9 81.3,386.9 81.3,386.5 81.3,386.1 82.1,386.1 82.1,385.7 82.1,385.3 82.1,384.8 82.1,384.4 82.1,384.0 82.1,383.6 82.1,383.2 82.1,382.8 82.1,382.4 82.1,382.0 82.1,381.6 82.1,381.2 82.1,380.8 82.1,380.4 83.0,380.4 83.8,380.4 83.8,380.0 83.8,379.6 83.8,379.2 83.8,378.8 83.8,378.4 83.8,378.0 83.8,377.6 83.8,377.2 83.8,376.8 84.6,376.8 84.6,376.4 85.4,376.4 85.4,376.0 86.2,376.0 86.2,375.6 86.2,375.2 86.2,374.8 86.2,374.4 86.2,374.0 86.2,373.6 86.2,373.2 86.2,372.8 86.2,372.4 86.2,371.9 87.0,371.9 87.0,371.5 87.0,371.1 87.0,370.7 87.0,370.3 87.0,369.9 87.0,369.5 87.0,369.1 87.0,368.7 87.0,368.3 87.0,367.9 87.0,367.1 87.8,367.1 87.8,366.7 87.8,366.3 87.8,365.9 87.8,365.5 87.8,365.1 87.8,364.7 87.8,364.3 87.8,363.9 87.8,363.5 87.8,363.1 87.8,362.7 87.8,362.3 88.6,362.3 88.6,361.9 89.4,361.9 89.4,361.5 89.4,361.1 89.4,360.7 89.4,360.3 89.4,359.9 89.4,359.5 89.4,359.0 90.2,359.0 90.2,358.6 90.2,358.2 90.2,357.8 90.2,357.4 90.2,357.0 90.2,356.6 90.2,356.2 90.2,355.8 90.2,355.4 90.2,355.0 90.2,354.6 90.2,354.2 90.2,353.8 90.2,353.4 90.2,353.0 90.2,352.6 90.2,352.2 90.2,351.8 90.2,351.4 90.2,351.0 90.2,350.6 90.2,350.2 90.2,349.8 90.2,349.4 90.2,349.0 90.2,348.6 91.0,348.6 91.0,348.2 91.0,347.8 91.0,347.4 91.0,347.0 91.0,346.6 91.0,346.1 91.0,345.7 91.0,345.3 91.9,345.3 91.9,344.9 91.9,344.5 91.9,344.1 91.9,343.7 91.9,343.3 92.7,343.3 92.7,342.9 92.7,342.5 92.7,342.1 92.7,341.7 93.5,341.7 93.5,341.3 93.5,340.9 94.3,340.9 94.3,340.5 94.3,340.1 94.3,339.7 94.3,339.3 94.3,338.9 94.3,338.5 94.3,338.1 95.1,338.1 95.9,338.1 95.9,337.7 95.9,337.3 95.9,336.9 95.9,336.5 95.9,336.1 96.7,336.1 96.7,335.7 96.7,335.3 96.7,334.9 96.7,334.5 96.7,334.1 96.7,333.7 96.7,333.2 96.7,332.8 97.5,332.8 98.3,332.8 98.3,332.4 98.3,332.0 98.3,331.6 98.3,331.2 98.3,330.8 99.1,330.8 100.0,330.8 100.8,330.8 100.8,330.4 100.8,330.0 101.6,330.0 101.6,329.6 101.6,329.2 101.6,328.4 101.6,327.6 101.6,327.2 101.6,326.8 101.6,326.4 102.4,326.4 102.4,326.0 102.4,325.6 102.4,325.2 102.4,324.8 103.2,324.8 103.2,324.4 103.2,324.0 103.2,323.6 103.2,323.2 103.2,322.8 104.0,322.8 104.0,322.4 104.0,322.0 104.0,321.6 104.0,321.2 104.0,320.8 104.8,320.8 104.8,320.3 104.8,319.9 104.8,319.5 105.6,319.5 106.4,319.5 106.4,319.1 106.4,318.7 106.4,318.3 106.4,317.9 106.4,317.5 106.4,317.1 107.2,317.1 108.1,317.1 108.1,316.7 108.1,316.3 108.9,316.3 108.9,315.9 108.9,315.5 109.7,315.5 109.7,315.1 109.7,314.7 109.7,314.3 109.7,313.9 109.7,313.5 109.7,313.1 109.7,312.7 109.7,312.3 109.7,311.9 110.5,311.9 110.5,311.5 110.5,311.1 110.5,310.7 110.5,310.3 111.3,310.3 111.3,309.9 111.3,309.5 112.1,309.5 112.1,309.1 112.1,308.7 112.9,308.7 112.9,308.3 112.9,307.8 112.9,307.4 113.7,307.4 114.5,307.4 115.3,307.4 115.3,307.0 115.3,306.6 115.3,306.2 115.3,305.8 115.3,305.4 115.3,305.0 115.3,304.6 115.3,304.2 115.3,303.8 115.3,303.4 116.1,303.4 116.1,303.0 117.0,303.0 117.0,302.6 117.0,302.2 117.0,301.8 117.0,301.4 117.0,301.0 117.0,300.6 117.0,300.2 117.0,299.8 117.0,299.4 117.0,299.0 117.0,298.6 117.0,298.2 117.8,298.2 117.8,297.8 117.8,297.4 117.8,297.0 117.8,296.6 117.8,296.2 117.8,295.8 117.8,295.4 117.8,294.9 117.8,294.5 117.8,294.1 118.6,294.1 118.6,293.7 118.6,293.3 119.4,292.9 119.4,292.5 119.4,292.1 120.2,292.1 121.0,292.1 121.0,291.7 121.0,291.3 121.0,290.9 121.0,290.5 121.0,290.1 121.0,289.7 121.0,289.3 121.0,288.9 121.0,288.5 121.0,288.1 121.0,287.7 121.0,287.3 121.0,286.9 121.0,286.5 121.8,286.5 121.8,286.1 122.6,286.1 122.6,285.7 122.6,285.3 122.6,284.9 123.4,284.9 123.4,284.5 124.2,284.5 124.2,284.1 125.1,284.1 125.9,284.1 125.9,283.7 125.9,283.3 125.9,282.9 126.7,282.9 127.5,282.9 127.5,282.5 127.5,282.0 128.3,282.0 128.3,281.6 128.3,281.2 128.3,280.8 129.1,280.8 129.1,280.4 129.1,280.0 129.9,280.0 130.7,280.0 131.5,280.0 131.5,279.6 131.5,279.2 131.5,278.8 131.5,278.4 131.5,278.0 131.5,277.6 131.5,277.2 131.5,276.8 132.3,276.8 132.3,276.4 133.1,276.4 134.0,276.4 134.0,276.0 134.8,276.0 134.8,275.6 134.8,275.2 134.8,274.8 134.8,274.4 134.8,274.0 134.8,273.6 134.8,273.2 134.8,272.8 134.8,272.4 134.8,272.0 135.6,272.0 135.6,271.6 135.6,271.2 136.4,271.2 136.4,270.8 136.4,270.4 137.2,270.4 137.2,270.0 137.2,269.6 137.2,269.1 137.2,268.7 138.0,268.7 138.8,268.7 138.8,268.3 138.8,267.9 139.6,267.9 139.6,267.5 139.6,267.1 139.6,266.7 139.6,266.3 139.6,265.9 139.6,265.5 140.4,265.5 140.4,265.1 140.4,264.7 140.4,264.3 140.4,263.9 141.2,263.9 141.2,263.5 142.1,263.5 142.1,263.1 142.9,263.1 142.9,262.7 143.7,262.7 143.7,262.3 144.5,261.9 144.5,261.5 144.5,261.1 145.3,261.1 146.1,261.1 146.1,260.7 146.1,260.3 146.9,260.3 146.9,259.9 146.9,259.5 147.7,259.5 148.5,259.5 149.3,259.5 149.3,259.1 150.1,259.1 150.1,258.7 151.0,258.7 151.0,258.3 151.0,257.9 151.0,257.5 151.0,257.1 151.0,256.7 151.0,256.2 151.0,255.8 151.8,255.8 151.8,255.4 152.6,255.4 152.6,255.0 153.4,255.0 153.4,254.6 153.4,254.2 153.4,253.8 153.4,253.4 153.4,253.0 154.2,253.0 154.2,252.6 154.2,252.2 154.2,251.8 154.2,251.4 155.0,251.4 155.0,251.0 155.0,250.6 155.0,250.2 155.0,249.8 155.0,249.4 155.0,249.0 155.0,248.6 155.0,248.2 155.0,247.8 155.0,247.4 155.8,247.4 155.8,247.0 155.8,246.6 156.6,246.6 156.6,246.2 156.6,245.8 156.6,245.4 156.6,245.0 156.6,244.6 156.6,244.2 157.4,244.2 157.4,243.8 157.4,243.3 158.2,243.3 159.1,243.3 159.9,243.3 159.9,242.9 160.7,242.9 160.7,242.5 160.7,242.1 160.7,241.7 160.7,241.3 160.7,240.9 160.7,240.5 161.5,240.5 161.5,240.1 161.5,239.7 161.5,239.3 161.5,238.9 161.5,238.5 161.5,238.1 161.5,237.7 162.3,237.7 163.1,237.7 163.1,237.3 163.1,236.9 163.1,236.5 163.1,236.1 163.1,235.7 163.1,235.3 163.9,235.3 163.9,234.9 163.9,234.5 164.7,234.5 164.7,234.1 164.7,233.7 164.7,233.3 165.5,233.3 165.5,232.9 165.5,232.5 166.3,232.5 166.3,232.1 166.3,231.7 167.2,231.7 168.0,231.7 168.0,231.3 168.0,230.9 168.0,230.4 168.0,230.0 168.0,229.6 168.0,229.2 168.0,228.8 168.0,228.4 168.0,228.0 168.0,227.6 168.0,227.2 168.0,226.8 168.0,226.4 168.0,226.0 168.8,226.0 168.8,225.6 168.8,225.2 168.8,224.8 169.6,224.8 169.6,224.4 169.6,224.0 169.6,223.6 170.4,223.6 170.4,223.2 170.4,222.8 171.2,222.8 171.2,222.4 171.2,222.0 171.2,221.6 172.0,221.6 172.0,221.2 172.0,220.8 172.0,220.4 172.8,220.4 173.6,220.4 173.6,220.0 173.6,219.6 174.4,219.6 174.4,219.2 174.4,218.8 174.4,218.4 174.4,218.0 174.4,217.5 174.4,217.1 174.4,216.7 175.2,216.7 175.2,216.3 175.2,215.9 176.1,215.9 176.1,215.5 176.9,215.5 176.9,215.1 176.9,214.7 176.9,214.3 176.9,213.9 176.9,213.5 176.9,213.1 176.9,212.7 177.7,212.7 178.5,212.7 178.5,212.3 179.3,212.3 179.3,211.9 179.3,211.5 179.3,211.1 179.3,210.7 179.3,210.3 179.3,209.9 179.3,209.5 180.1,209.5 180.1,209.1 180.1,208.7 180.1,208.3 180.1,207.9 180.1,207.5 180.1,207.1 180.9,207.1 181.7,207.1 182.5,207.1 183.3,207.1 183.3,206.7 183.3,206.3 183.3,205.9 183.3,205.5 184.2,205.5 184.2,205.1 184.2,204.6 184.2,204.2 184.2,203.8 184.2,203.4 185.0,203.4 185.8,203.4 185.8,203.0 185.8,202.6 185.8,202.2 185.8,201.8 186.6,201.8 186.6,201.4 186.6,201.0 187.4,201.0 188.2,201.0 188.2,200.6 188.2,200.2 189.0,200.2 189.0,199.8 189.8,199.8 189.8,199.4 189.8,199.0 189.8,198.6 189.8,198.2 189.8,197.8 189.8,197.4 189.8,197.0 189.8,196.6 189.8,196.2 190.6,196.2 190.6,195.8 190.6,195.4 190.6,195.0 190.6,194.6 190.6,194.2 191.4,194.2 191.4,193.8 192.2,193.8 192.2,193.4 192.2,193.0 192.2,192.6 192.2,192.2 193.1,192.2 193.9,192.2 193.9,191.7 193.9,191.3 193.9,190.9 194.7,190.9 195.5,190.9 195.5,190.5 196.3,190.5 196.3,190.1 196.3,189.7 197.1,189.7 197.9,189.7 197.9,189.3 197.9,188.9 198.7,188.9 199.5,188.9 199.5,188.5 200.3,188.5 201.2,188.5 201.2,188.1 201.2,187.7 202.0,187.7 202.0,187.3 202.0,186.9 202.8,186.5 202.8,186.1 202.8,185.7 202.8,185.3 203.6,185.3 203.6,184.9 203.6,184.5 204.4,184.5 205.2,184.5 205.2,184.1 205.2,183.7 206.0,183.7 206.8,183.7 206.8,183.3 206.8,182.9 206.8,182.5 206.8,182.1 206.8,181.7 206.8,181.3 207.6,181.3 208.4,181.3 209.3,181.3 209.3,180.9 210.1,180.9 210.1,180.5 210.1,180.1 210.1,179.7 210.1,179.2 210.9,179.2 210.9,178.8 210.9,178.4 211.7,178.4 212.5,178.4 213.3,178.4 214.1,178.4 214.1,178.0 214.1,177.6 214.1,177.2 214.1,176.8 214.9,176.8 214.9,176.4 214.9,176.0 214.9,175.6 215.7,175.6 215.7,175.2 215.7,174.8 216.5,174.8 216.5,174.4 217.3,174.4 218.2,174.4 219.0,174.4 219.0,174.0 219.0,173.6 219.0,173.2 219.0,172.8 219.0,172.4 219.8,172.4 220.6,172.4 221.4,172.4 221.4,172.0 222.2,172.0 222.2,171.6 223.0,171.6 223.0,171.2 223.0,170.8 223.0,170.4 223.8,170.4 223.8,170.0 223.8,169.6 224.6,169.6 225.4,169.6 226.3,169.6 227.1,169.6 227.1,169.2 227.1,168.8 227.1,168.4 227.1,168.0 227.1,167.6 227.1,167.2 227.1,166.8 227.1,166.3 227.9,166.3 227.9,165.9 227.9,165.5 227.9,165.1 228.7,165.1 229.5,165.1 229.5,164.7 229.5,164.3 229.5,163.9 230.3,163.9 230.3,163.5 231.1,163.5 231.9,163.5 231.9,163.1 232.7,163.1 232.7,162.7 232.7,162.3 232.7,161.9 233.5,161.9 234.3,161.9 235.2,161.9 235.2,161.5 236.0,161.5 236.0,161.1 236.8,161.1 237.6,161.1 237.6,160.7 238.4,160.7 239.2,160.7 240.0,160.7 240.8,160.7 241.6,160.7 241.6,160.3 242.4,160.3 242.4,159.9 243.3,159.9 243.3,159.5 244.1,159.5 244.1,159.1 244.9,159.1 245.7,159.1 246.5,159.1 247.3,159.1 247.3,158.7 247.3,158.3 247.3,157.9 247.3,157.5 248.1,157.5 248.9,157.5 248.9,157.1 249.7,157.1 249.7,156.7 250.5,156.7 250.5,156.3 251.3,156.3 252.2,156.3 253.0,156.3 253.8,156.3 253.8,155.9 254.6,155.9 254.6,155.5 254.6,155.1 255.4,155.1 256.2,155.1 256.2,154.7 257.0,154.7 257.0,154.3 257.0,153.9 257.8,153.9 258.6,153.9 258.6,153.4 258.6,153.0 258.6,152.6 259.4,152.6 260.3,152.6 261.1,152.6 261.9,152.6 262.7,152.6 263.5,152.6 263.5,152.2 263.5,151.8 263.5,151.4 265.1,151.4 265.1,151.0 265.9,151.0 266.7,151.0 266.7,150.6 266.7,150.2 267.5,150.2 267.5,149.8 268.4,149.8 268.4,149.4 268.4,149.0 269.2,149.0 269.2,148.6 270.0,148.6 270.8,148.6 271.6,148.6 272.4,148.6 273.2,148.6 274.0,148.6 274.8,148.6 274.8,148.2 274.8,147.8 275.6,147.8 276.4,147.8 276.4,147.4 277.3,147.4 277.3,147.0 278.1,147.0 278.9,147.0 278.9,146.6 278.9,146.2 278.9,145.8 279.7,145.8 279.7,145.4 279.7,145.0 279.7,144.6 280.5,144.6 280.5,144.2 281.3,144.2 282.1,144.2 282.9,144.2 283.7,144.2 283.7,143.8 283.7,143.4 283.7,143.0 284.5,143.0 285.4,143.0 285.4,142.6 286.2,142.6 286.2,142.2 287.0,142.2 287.8,142.2 288.6,142.2 288.6,141.8 288.6,141.4 288.6,141.0 289.4,141.0 289.4,140.5 290.2,140.5 291.0,140.5 291.8,140.5 292.6,140.5 292.6,140.1 292.6,139.7 293.4,139.7 293.4,139.3 294.3,139.3 294.3,138.9 294.3,138.5 295.1,138.5 295.9,138.5 296.7,138.5 296.7,138.1 297.5,138.1 297.5,137.7 297.5,137.3 297.5,136.9 298.3,136.9 299.1,136.9 299.9,136.9 300.7,136.9 301.5,136.9 302.4,136.9 302.4,136.5 303.2,136.5 304.0,136.5 304.8,136.5 305.6,136.5 305.6,136.1 306.4,136.1 307.2,136.1 307.2,135.7 307.2,135.3 307.2,134.9 308.0,134.9 308.0,134.5 308.8,134.5 309.6,134.5 310.4,134.5 310.4,134.1 311.3,134.1 311.3,133.7 312.1,133.7 312.9,133.7 312.9,133.3 313.7,133.3 314.5,133.3 315.3,133.3 316.1,133.3 316.1,132.9 316.9,132.9 317.7,132.9 318.5,132.9 318.5,132.5 319.4,132.5 320.2,132.5 321.0,132.5 321.8,132.5 322.6,132.5 323.4,132.5 323.4,132.1 323.4,131.7 324.2,131.7 324.2,131.3 324.2,130.9 324.2,130.5 324.2,130.1 324.2,129.7 325.0,129.7 325.8,129.7 325.8,129.3 325.8,128.9 326.6,128.9 327.5,128.9 327.5,128.5 328.3,128.5 328.3,128.1 328.3,127.6 328.3,127.2 329.1,127.2 329.1,126.8 329.9,126.8 330.7,126.8 331.5,126.8 332.3,126.4 333.1,126.4 333.9,126.4 333.9,126.0 334.7,126.0 335.5,126.0 336.4,126.0 337.2,126.0 337.2,125.6 338.0,125.6 338.8,125.6 338.8,125.2 338.8,124.8 338.8,124.4 339.6,124.4 340.4,124.4 341.2,124.4 341.2,124.0 342.0,124.0 342.0,123.6 342.0,123.2 342.0,122.8 342.0,122.4 342.0,122.0 342.8,122.0 343.6,122.0 343.6,121.6 343.6,121.2 344.5,121.2 344.5,120.8 345.3,120.8 345.3,120.4 346.1,120.4 346.9,120.4 347.7,120.4 347.7,120.0 347.7,119.6 347.7,119.2 347.7,118.8 348.5,118.8 348.5,118.4 348.5,118.0 349.3,118.0 350.1,118.0 350.1,117.6 350.9,117.6 351.7,117.6 352.5,117.6 353.4,117.6 354.2,117.6 354.2,117.2 355.0,117.2 355.0,116.8 355.0,116.4 355.0,116.0 355.8,116.0 356.6,116.0 356.6,115.6 357.4,115.6 357.4,115.2 357.4,114.7 358.2,114.7 359.0,114.7 359.8,114.7 360.6,114.7 361.5,114.7 361.5,114.3 361.5,113.9 361.5,113.5 361.5,113.1 362.3,113.1 363.1,113.1 363.9,113.1 364.7,113.1 364.7,112.7 365.5,112.7 366.3,112.7 366.3,112.3 367.1,112.3 367.1,111.9 367.9,111.9 368.7,111.9 369.6,111.9 369.6,111.5 370.4,111.5 371.2,111.5 371.2,111.1 372.0,111.1 372.8,111.1 372.8,110.7 373.6,110.7 374.4,110.7 374.4,110.3 375.2,110.3 376.0,110.3 376.8,110.3 377.6,110.3 378.5,110.3 378.5,109.9 378.5,109.5 379.3,109.5 379.3,109.1 380.1,109.1 380.1,108.7 380.9,108.7 381.7,108.7 382.5,108.7 383.3,108.7 384.1,108.7 384.9,108.7 385.7,108.7 385.7,108.3 386.6,108.3 387.4,108.3 388.2,108.3 388.2,107.9 389.0,107.9 389.8,107.9 390.6,107.9 391.4,107.9 392.2,107.9 393.0,107.9 393.8,107.9 394.6,107.9 394.6,107.5 394.6,107.1 395.5,107.1 395.5,106.7 396.3,106.7 397.1,106.7 397.1,106.3 397.9,106.3 398.7,106.3 399.5,106.3 400.3,106.3 401.1,106.3 401.9,106.3 402.7,106.3 402.7,105.9 403.6,105.9 403.6,105.5 404.4,105.5 405.2,105.5 405.2,105.1 405.2,104.7 406.0,104.7 406.0,104.3 406.8,104.3 406.8,103.9 407.6,103.9 407.6,103.5 408.4,103.5 409.2,103.5 410.0,103.5 410.0,103.1 410.8,103.1 411.6,103.1 411.6,102.7 412.5,102.7 413.3,102.7 414.1,102.7 414.9,102.7 415.7,102.7 415.7,102.3 416.5,102.3 417.3,102.3 418.1,102.3 418.9,102.3 419.7,102.3 420.6,102.3 421.4,102.3 421.4,101.8 421.4,101.4 422.2,101.4 422.2,101.0 423.0,101.0 423.8,101.0 423.8,100.6 424.6,100.6 424.6,100.2 425.4,100.2 426.2,100.2 426.2,99.8 426.2,99.4 427.0,99.4 427.0,99.0 427.8,99.0 428.7,99.0 429.5,99.0 430.3,99.0 431.1,99.0 431.9,99.0 432.7,99.0 433.5,99.0 434.3,99.0 435.1,99.0 435.1,98.6 435.9,98.6 436.7,98.6 437.6,98.6 438.4,98.6 439.2,98.6 440.0,98.6 440.8,98.6 441.6,98.6 442.4,98.6 442.4,98.2 443.2,98.2 444.0,98.2 444.8,98.2 445.7,98.2 445.7,97.8 445.7,97.4 446.5,97.4 447.3,97.4 448.1,97.4 448.1,97.0 448.1,96.6 448.9,96.6 449.7,96.6 450.5,96.6 451.3,96.6 452.1,96.6 452.9,96.6 453.7,96.6 454.6,96.6 455.4,96.6 455.4,96.2 456.2,96.2 457.0,96.2 457.8,96.2 458.6,96.2 459.4,96.2 460.2,96.2 461.0,96.2 461.8,96.2 462.7,96.2 462.7,95.8 462.7,95.4 462.7,95.0 463.5,95.0 464.3,95.0 465.1,95.0 465.9,95.0 466.7,95.0 466.7,94.6 466.7,94.2 467.5,94.2 468.3,94.2 469.1,94.2 469.9,94.2 470.7,94.2 471.6,94.2 472.4,94.2 472.4,93.8 473.2,93.8 474.0,93.8 474.8,93.8 474.8,93.4 475.6,93.4 476.4,93.4 477.2,93.4 478.0,93.4 478.0,93.0 478.8,93.0 478.8,92.6 479.7,92.6 480.5,92.6 481.3,92.6 482.1,92.6 482.9,92.6 483.7,92.6 483.7,92.2 483.7,91.8 483.7,91.4 484.5,91.4 485.3,91.4 486.1,91.4 486.1,91.0 486.1,90.6 486.1,90.2 486.1,89.8 486.1,89.4 486.1,88.9 486.1,88.5 486.1,88.1 486.9,88.1 487.8,88.1 488.6,88.1 488.6,87.7 488.6,87.3 489.4,87.3 490.2,87.3 491.0,87.3 491.8,87.3 491.8,86.9 492.6,86.9 492.6,86.5 493.4,86.5 494.2,86.5 495.0,86.5 495.0,86.1 495.0,85.7 495.8,85.7 496.7,85.7 497.5,85.7 497.5,85.3 497.5,84.9 498.3,84.9 499.1,84.9 499.1,84.5 499.9,84.5 500.7,84.5 501.5,84.5 503.1,84.5 503.9,84.5 503.9,84.1 504.8,84.1 505.6,84.1 506.4,84.1 507.2,84.1 507.2,83.7 508.0,83.7 508.8,83.7 508.8,83.3 509.6,83.3 510.4,83.3 511.2,83.3 512.0,83.3 512.8,83.3 513.7,83.3 514.5,83.3 515.3,83.3 516.1,83.3 516.9,83.3 517.7,83.3 518.5,83.3 518.5,82.9 518.5,82.5 519.3,82.5 520.1,82.5 520.9,82.5 520.9,82.1 521.8,82.1 522.6,82.1 523.4,82.1 524.2,82.1 525.0,82.1 525.0,81.7 525.0,81.3 525.8,81.3 526.6,81.3 526.6,80.9 526.6,80.5 526.6,80.1 527.4,80.1 528.2,80.1 529.0,80.1 529.9,80.1 530.7,80.1 531.5,80.1 533.1,80.1 533.9,80.1 534.7,80.1 535.5,80.1 536.3,80.1 536.3,79.7 537.1,79.7 537.9,79.7 538.8,79.7 539.6,79.7 540.4,79.7 541.2,79.7 542.0,79.7 542.8,79.7 543.6,79.7 544.4,79.7 545.2,79.7 546.0,79.7 546.9,79.7 547.7,79.7 548.5,79.7 549.3,79.7 550.1,79.7 550.9,79.7 551.7,79.7 552.5,79.7 553.3,79.7 554.1,79.7 554.9,79.7 555.8,79.7 556.6,79.7 557.4,79.7 558.2,79.7 559.0,79.7 559.8,79.7 560.6,79.7 561.4,79.7 562.2,79.7 563.0,79.7 563.9,79.7 563.9,79.3 564.7,79.3 565.5,79.3 565.5,78.9 566.3,78.9 567.1,78.9 567.9,78.9 568.7,78.9 569.5,78.9 570.3,78.9 570.3,78.5 570.3,78.1 571.1,78.1 571.9,78.1 572.8,78.1 573.6,78.1 573.6,77.7 574.4,77.7 574.4,77.3 574.4,76.9 575.2,76.9 575.2,76.5 576.0,76.5 576.0,76.0 576.0,75.6 576.0,75.2 576.8,75.2 577.6,75.2 577.6,74.8 578.4,74.8 579.2,74.8 580.0,74.8 580.9,74.8 581.7,74.8 582.5,74.8 583.3,74.8 584.1,74.8 584.9,74.8 585.7,74.8 586.5,74.8 587.3,74.8 588.1,74.8 589.0,74.8 589.8,74.8 589.8,74.4 589.8,74.0 590.6,74.0 591.4,74.0 592.2,74.0 592.2,73.6 592.2,73.2 592.2,72.8 592.2,72.4 592.2,72.0 593.0,72.0 593.8,72.0 593.8,71.6 594.6,71.6 594.6,71.2 594.6,70.8 595.4,70.8 596.2,70.8 597.0,70.8 597.9,70.8 598.7,70.8 599.5,70.8 600.3,70.8 601.1,70.8 601.9,70.8 602.7,70.8 603.5,70.8 604.3,70.4 605.1,70.4 606.0,70.4 606.8,70.4 607.6,70.4 608.4,70.4 609.2,70.4 609.2,70.0 610.0,70.0" fill="none" stroke="#2563eb" stroke-width="2.5"/>
<text x="313.0" y="329.2" font-size="14" font-weight="bold" fill="#1e3a8a">AUC = 0.769</text>
<text x="340" y="458" text-anchor="middle" font-size="13" fill="#374151">False positive rate</text>
<text x="20" y="250" text-anchor="middle" font-size="13" fill="#374151" transform="rotate(-90 20 250)">True positive rate</text>
<text x="320" y="486" text-anchor="middle" font-size="12" fill="#111827">AUC 0.769 (cutoff &amp;gt;= 0.70)   [PASS]</text>
</svg>
