<svg xmlns="http://www.w3.org/2000/svg" viewBox="0 0 540 440" role="img" aria-labelledby="t d" font-family="-apple-system, Segoe UI, Roboto, sans-serif">
  <title id="t">Bacterial growth curve</title>
  <desc id="d">A bacterial growth curve plotting the log of the number of cells against time. It has four phases: a flat lag phase, a steep exponential log phase, a flat stationary phase where limited nutrients halt net growth, and a declining death phase. Dashed lines separate the phases.</desc>
  <rect x="6" y="6" width="528" height="428" rx="14" fill="#ffffff" stroke="#cfd8dc" stroke-width="2"/>
  <text x="270" y="34" text-anchor="middle" font-size="18" font-weight="700" fill="#263238">Bacterial growth curve</text>

  <g stroke="#cfd8dc" stroke-width="1" stroke-dasharray="4 4">
    <line x1="150" y1="70" x2="150" y2="360"/>
    <line x1="300" y1="70" x2="300" y2="360"/>
    <line x1="400" y1="70" x2="400" y2="360"/>
  </g>

  <line x1="70" y1="360" x2="500" y2="360" stroke="#90a4ae" stroke-width="2"/>
  <line x1="70" y1="360" x2="70" y2="66" stroke="#90a4ae" stroke-width="2"/>
  <polygon points="500,360 490,355 490,365" fill="#90a4ae"/>
  <polygon points="70,66 65,76 75,76" fill="#90a4ae"/>
  <text x="30" y="215" transform="rotate(-90 30 215)" text-anchor="middle" font-size="11" fill="#607d8b">log(number of cells)</text>

  <polyline points="70,322 150,322 300,130 400,130 490,210" fill="none" stroke="#2e7d32" stroke-width="3" stroke-linejoin="round"/>

  <g font-size="11" font-weight="600" fill="#37474f" text-anchor="middle">
    <text x="110" y="380">Lag</text>
    <text x="225" y="380">Log</text>
    <text x="350" y="380">Stationary</text>
    <text x="445" y="380">Death</text>
  </g>
  <text x="285" y="400" text-anchor="middle" font-size="12" fill="#607d8b">Time</text>

  <text x="270" y="424" text-anchor="middle" font-size="12" fill="#607d8b">Exponential growth occurs only in the log phase; limited nutrients cause the stationary plateau.</text>
</svg>
