<svg xmlns="http://www.w3.org/2000/svg" viewBox="0 0 540 440" role="img" aria-labelledby="t d" font-family="-apple-system, Segoe UI, Roboto, sans-serif">
  <title id="t">Gel electrophoresis</title>
  <desc id="d">A slab gel with wells loaded at the negative cathode end at top. A size-ladder lane and three sample lanes show DNA bands. Smaller fragments migrate farther down toward the positive anode end. Separation is by fragment size because the DNA backbone carries a uniform negative charge.</desc>
  <rect x="6" y="6" width="528" height="428" rx="14" fill="#ffffff" stroke="#cfd8dc" stroke-width="2"/>
  <text x="270" y="34" text-anchor="middle" font-size="18" font-weight="700" fill="#263238">Gel electrophoresis &#8212; separation by size</text>

  <rect x="60" y="66" width="410" height="312" rx="8" fill="#eceff1" stroke="#b0bec5" stroke-width="2"/>

  <g font-size="12" font-weight="700" fill="#37474f" text-anchor="middle">
    <text x="110" y="60">Ladder</text>
    <text x="210" y="60">S1</text>
    <text x="310" y="60">S2</text>
    <text x="400" y="60">S3</text>
  </g>

  <g fill="#37474f">
    <rect x="85" y="72" width="50" height="9" rx="2"/>
    <rect x="185" y="72" width="50" height="9" rx="2"/>
    <rect x="285" y="72" width="50" height="9" rx="2"/>
    <rect x="375" y="72" width="50" height="9" rx="2"/>
  </g>

  <g font-size="10" fill="#607d8b" text-anchor="end">
    <text x="52" y="114">1000 bp</text>
    <text x="52" y="154">750</text>
    <text x="52" y="198">500</text>
    <text x="52" y="248">250</text>
    <text x="52" y="303">100</text>
  </g>

  <g fill="#455a64">
    <rect x="85" y="108" width="50" height="7" rx="2"/>
    <rect x="85" y="150" width="50" height="7" rx="2"/>
    <rect x="85" y="194" width="50" height="7" rx="2"/>
    <rect x="85" y="244" width="50" height="7" rx="2"/>
    <rect x="85" y="299" width="50" height="7" rx="2"/>
  </g>

  <g fill="#1565c0">
    <rect x="185" y="150" width="50" height="7" rx="2"/>
    <rect x="185" y="244" width="50" height="7" rx="2"/>
  </g>
  <rect x="285" y="108" width="50" height="7" rx="2" fill="#2e7d32"/>
  <g fill="#ef6c00">
    <rect x="375" y="194" width="50" height="7" rx="2"/>
    <rect x="375" y="299" width="50" height="7" rx="2"/>
  </g>

  <line x1="500" y1="95" x2="500" y2="350" stroke="#78909c" stroke-width="3"/>
  <polygon points="500,362 493,348 507,348" fill="#78909c"/>
  <text x="500" y="90" text-anchor="middle" font-size="13" font-weight="700" fill="#37474f">&#8722;</text>
  <text x="500" y="380" text-anchor="middle" font-size="15" font-weight="700" fill="#37474f">+</text>

  <text x="265" y="402" text-anchor="middle" font-size="12" font-weight="600" fill="#37474f">Wells loaded at the &#8722; (cathode) end; DNA migrates toward + (anode).</text>
  <text x="265" y="422" text-anchor="middle" font-size="12" fill="#607d8b">Smaller fragments travel farther &#183; separation is by size.</text>
</svg>
