<svg xmlns="http://www.w3.org/2000/svg" viewBox="0 0 540 440" role="img" aria-labelledby="t d" font-family="-apple-system, Segoe UI, Roboto, sans-serif">
  <title id="t">Nephron</title>
  <desc id="d">Schematic nephron. Blood is filtered at the glomerulus inside Bowman's capsule (step 1). The proximal tubule reabsorbs most water and solutes (step 2). The loop of Henle concentrates the urine by countercurrent multiplication (step 3). The distal tubule secretes and fine-tunes (step 4). The collecting duct reabsorbs water under ADH control (step 5). The remaining fluid leaves as urine (step 6).</desc>
  <rect x="6" y="6" width="528" height="428" rx="14" fill="#ffffff" stroke="#cfd8dc" stroke-width="2"/>
  <text x="270" y="34" text-anchor="middle" font-size="18" font-weight="700" fill="#263238">Nephron &#8212; filtration to urine</text>

  <path d="M108 112 Q66 110 66 86 Q66 62 94 62 Q120 62 120 84" fill="#eceff1" stroke="#90a4ae" stroke-width="2"/>
  <path d="M78 86 Q90 72 104 84 Q112 92 100 98 Q86 104 80 92" fill="none" stroke="#ef5350" stroke-width="2"/>
  <path d="M84 82 Q94 84 96 92" fill="none" stroke="#ef5350" stroke-width="1.5"/>

  <path d="M108 112 Q130 96 150 114 Q168 130 176 152 L180 286 Q182 309 200 308 Q218 307 216 286 L212 152 Q210 128 230 110 Q250 94 270 114 Q279 123 288 132" fill="none" stroke="#4fc3f7" stroke-width="4"/>
  <path d="M288 132 L300 324" fill="none" stroke="#29b6f6" stroke-width="6"/>
  <line x1="300" y1="324" x2="300" y2="348" stroke="#29b6f6" stroke-width="6"/>
  <polygon points="300,356 293,344 307,344" fill="#29b6f6"/>

  <g font-size="11" font-weight="700" fill="#ffffff" text-anchor="middle">
    <circle cx="92" cy="48" r="10" fill="#455a64"/><text x="92" y="52">1</text>
    <circle cx="150" cy="88" r="10" fill="#455a64"/><text x="150" y="92">2</text>
    <circle cx="198" cy="330" r="10" fill="#455a64"/><text x="198" y="334">3</text>
    <circle cx="270" cy="86" r="10" fill="#455a64"/><text x="270" y="90">4</text>
    <circle cx="318" cy="215" r="10" fill="#455a64"/><text x="318" y="219">5</text>
    <circle cx="300" cy="374" r="10" fill="#455a64"/><text x="300" y="378">6</text>
  </g>

  <text x="344" y="70" font-size="12" font-weight="700" fill="#263238">Steps</text>
  <g font-size="10" fill="#37474f">
    <text x="344" y="96">1  Glomerulus / Bowman: filtration</text>
    <text x="344" y="128">2  Proximal tubule: reabsorption (most)</text>
    <text x="344" y="160">3  Loop of Henle: concentrates urine</text>
    <text x="344" y="192">4  Distal tubule: secretion, fine-tune</text>
    <text x="344" y="224">5  Collecting duct: ADH water control</text>
    <text x="344" y="256">6  Urine: excretion</text>
  </g>

  <text x="270" y="410" text-anchor="middle" font-size="11" fill="#607d8b">Filtration, then selective reabsorption and secretion, shapes the final urine.</text>
</svg>
