<svg xmlns="http://www.w3.org/2000/svg" viewBox="0 0 540 440" role="img" aria-labelledby="t d" font-family="-apple-system, Segoe UI, Roboto, sans-serif">
  <title id="t">Sarcomere and the sliding-filament model</title>
  <desc id="d">A sarcomere shown relaxed and contracted. Thin actin filaments (blue) anchor at the Z lines; thick myosin filaments (red) sit in the center A band, with the H zone between the actin tips and the M line at the middle. In the contracted state the Z lines move closer as actin and myosin slide past one another; the filaments themselves do not shorten.</desc>
  <rect x="6" y="6" width="528" height="428" rx="14" fill="#ffffff" stroke="#cfd8dc" stroke-width="2"/>
  <text x="270" y="32" text-anchor="middle" font-size="18" font-weight="700" fill="#263238">Sarcomere &#8212; sliding-filament model</text>

  <text x="271" y="66" text-anchor="middle" font-size="12" font-weight="700" fill="#37474f">Relaxed</text>
  <text x="271" y="86" text-anchor="middle" font-size="10" fill="#6a1b9a">H zone</text>

  <rect x="100" y="92" width="6" height="84" fill="#455a64"/>
  <rect x="436" y="92" width="6" height="84" fill="#455a64"/>
  <line x1="271" y1="98" x2="271" y2="170" stroke="#7e57c2" stroke-width="2" stroke-dasharray="3 3"/>

  <g stroke="#42a5f5" stroke-width="3" stroke-linecap="round">
    <line x1="106" y1="108" x2="258" y2="108"/><line x1="106" y1="134" x2="258" y2="134"/><line x1="106" y1="160" x2="258" y2="160"/>
    <line x1="436" y1="108" x2="284" y2="108"/><line x1="436" y1="134" x2="284" y2="134"/><line x1="436" y1="160" x2="284" y2="160"/>
  </g>
  <g stroke="#ef5350" stroke-width="6" stroke-linecap="round">
    <line x1="214" y1="121" x2="328" y2="121"/><line x1="214" y1="147" x2="328" y2="147"/>
  </g>

  <line x1="214" y1="184" x2="328" y2="184" stroke="#90a4ae" stroke-width="1"/>
  <line x1="106" y1="184" x2="214" y2="184" stroke="#90a4ae" stroke-width="1"/>
  <g text-anchor="middle" font-size="10" fill="#37474f">
    <text x="103" y="190">Z line</text>
    <text x="439" y="190">Z line</text>
    <text x="271" y="198">A band</text>
    <text x="160" y="198">I band</text>
  </g>

  <text x="271" y="242" text-anchor="middle" font-size="12" font-weight="700" fill="#37474f">Contracted</text>
  <rect x="170" y="258" width="6" height="72" fill="#455a64"/>
  <rect x="366" y="258" width="6" height="72" fill="#455a64"/>
  <line x1="271" y1="262" x2="271" y2="326" stroke="#7e57c2" stroke-width="2" stroke-dasharray="3 3"/>
  <g stroke="#42a5f5" stroke-width="3" stroke-linecap="round">
    <line x1="176" y1="276" x2="300" y2="276"/><line x1="176" y1="312" x2="300" y2="312"/>
    <line x1="366" y1="276" x2="242" y2="276"/><line x1="366" y1="312" x2="242" y2="312"/>
  </g>
  <g stroke="#ef5350" stroke-width="6" stroke-linecap="round">
    <line x1="214" y1="288" x2="328" y2="288"/><line x1="214" y1="300" x2="328" y2="300"/>
  </g>

  <text x="270" y="358" text-anchor="middle" font-size="11" fill="#37474f">Filaments keep their length; the sarcomere shortens as they slide.</text>
  <text x="270" y="386" text-anchor="middle" font-size="11" font-weight="600" fill="#607d8b">Blue = actin (thin) &#183; Red = myosin (thick)</text>
  <text x="270" y="408" text-anchor="middle" font-size="11" fill="#607d8b">Ca2+ exposes actin sites; ATP powers the cross-bridge cycle.</text>
</svg>
