<svg xmlns="http://www.w3.org/2000/svg" viewBox="0 0 540 440" role="img" aria-labelledby="t d" font-family="-apple-system, Segoe UI, Roboto, sans-serif">
  <title id="t">Neuron structure</title>
  <desc id="d">A labeled neuron. Dendrites on the left receive input into the cell body or soma with its nucleus. The axon extends to the right, wrapped in myelin sheath segments separated by nodes of Ranvier, and ends in axon terminals that meet a target cell at a synapse. The impulse travels from the dendrites toward the axon terminals.</desc>
  <rect x="6" y="6" width="528" height="428" rx="14" fill="#ffffff" stroke="#cfd8dc" stroke-width="2"/>
  <text x="270" y="34" text-anchor="middle" font-size="18" font-weight="700" fill="#263238">Neuron &#8212; structure and signal direction</text>

  <text x="270" y="62" text-anchor="middle" font-size="11" fill="#607d8b">Signal direction: dendrites to axon terminals</text>
  <line x1="70" y1="74" x2="474" y2="74" stroke="#90a4ae" stroke-width="2"/>
  <polygon points="482,74 472,69 472,79" fill="#90a4ae"/>

  <g stroke="#fb8c00" stroke-width="2" fill="none">
    <path d="M84 198 L54 176"/><path d="M54 176 L38 168"/><path d="M54 176 L44 156"/>
    <path d="M86 214 L52 214"/><path d="M52 214 L36 206"/><path d="M52 214 L38 224"/>
    <path d="M88 232 L58 250"/><path d="M58 250 L44 262"/><path d="M58 250 L64 268"/>
  </g>
  <text x="52" y="146" text-anchor="middle" font-size="11" font-weight="700" fill="#e65100">Dendrites</text>

  <circle cx="120" cy="220" r="42" fill="#ffe0b2" stroke="#fb8c00" stroke-width="2"/>
  <circle cx="120" cy="220" r="15" fill="#ff8f00"/>
  <text x="120" y="224" text-anchor="middle" font-size="8" fill="#ffffff">Nucleus</text>
  <text x="120" y="296" text-anchor="middle" font-size="11" font-weight="700" fill="#e65100">Cell body</text>
  <text x="120" y="310" text-anchor="middle" font-size="10" fill="#e65100">(soma)</text>

  <line x1="162" y1="220" x2="420" y2="220" stroke="#ffcc80" stroke-width="6" stroke-linecap="round"/>
  <g fill="#b3e5fc" stroke="#4fc3f7" stroke-width="1.5">
    <rect x="178" y="209" width="54" height="22" rx="11"/>
    <rect x="250" y="209" width="54" height="22" rx="11"/>
    <rect x="322" y="209" width="54" height="22" rx="11"/>
  </g>
  <g stroke="#90a4ae" stroke-width="1">
    <line x1="285" y1="200" x2="285" y2="209"/>
    <line x1="313" y1="246" x2="313" y2="231"/>
    <line x1="168" y1="246" x2="168" y2="224"/>
  </g>
  <text x="285" y="196" text-anchor="middle" font-size="10" fill="#0277bd">Myelin sheath</text>
  <text x="313" y="258" text-anchor="middle" font-size="10" fill="#37474f">Node of Ranvier</text>
  <text x="168" y="258" text-anchor="middle" font-size="10" fill="#e65100">Axon</text>

  <g stroke="#ffcc80" stroke-width="3" fill="none">
    <path d="M420 220 L452 200"/><path d="M420 220 L456 220"/><path d="M420 220 L452 240"/>
  </g>
  <g fill="#ffb74d">
    <circle cx="454" cy="199" r="6"/><circle cx="459" cy="220" r="6"/><circle cx="454" cy="241" r="6"/>
  </g>
  <text x="466" y="182" text-anchor="middle" font-size="10" fill="#e65100">Axon terminals</text>

  <rect x="486" y="192" width="10" height="56" rx="4" fill="#c5cae9" stroke="#5c6bc0" stroke-width="1.5"/>
  <g fill="#0288d1"><circle cx="470" cy="208" r="2.5"/><circle cx="476" cy="222" r="2.5"/><circle cx="470" cy="234" r="2.5"/></g>
  <text x="500" y="266" text-anchor="middle" font-size="10" fill="#607d8b">Synapse</text>

  <text x="270" y="366" text-anchor="middle" font-size="12" font-weight="600" fill="#37474f">Resting membrane potential is about &#8722;70 mV.</text>
  <text x="270" y="388" text-anchor="middle" font-size="12" fill="#607d8b">A stimulus past threshold fires an all-or-none action potential.</text>
</svg>
