<svg xmlns="http://www.w3.org/2000/svg" viewBox="0 0 540 440" role="img" aria-labelledby="t d" font-family="-apple-system, Segoe UI, Roboto, sans-serif">
  <title id="t">Prokaryote versus eukaryote</title>
  <desc id="d">Side by side comparison. Left: a prokaryotic bacterium with a cell wall, a nucleoid of circular DNA with no surrounding membrane, ribosomes, a plasmid, and a flagellum; it is smaller and lacks organelles. Right: a larger eukaryotic animal cell with a membrane-bound nucleus and nucleolus, mitochondria, and ribosomes. Both share DNA, ribosomes, and a plasma membrane.</desc>
  <rect x="6" y="6" width="528" height="428" rx="14" fill="#ffffff" stroke="#cfd8dc" stroke-width="2"/>
  <text x="270" y="34" text-anchor="middle" font-size="18" font-weight="700" fill="#263238">Prokaryote vs eukaryote</text>

  <text x="138" y="62" text-anchor="middle" font-size="13" font-weight="700" fill="#2e7d32">Prokaryote (bacterium)</text>
  <text x="402" y="62" text-anchor="middle" font-size="13" font-weight="700" fill="#1565c0">Eukaryote (animal cell)</text>

  <line x1="270" y1="80" x2="270" y2="312" stroke="#cfd8dc" stroke-width="1" stroke-dasharray="4 4"/>

  <rect x="48" y="96" width="182" height="150" rx="64" fill="#e8f5e9" stroke="#66bb6a" stroke-width="3"/>
  <ellipse cx="112" cy="150" rx="42" ry="26" fill="#fff59d"/>
  <ellipse cx="112" cy="150" rx="30" ry="17" fill="none" stroke="#f9a825" stroke-width="3"/>
  <ellipse cx="182" cy="205" rx="13" ry="8" fill="none" stroke="#f9a825" stroke-width="2"/>
  <g fill="#2e7d32">
    <circle cx="170" cy="128" r="3"/><circle cx="150" cy="205" r="3"/><circle cx="120" cy="210" r="3"/><circle cx="196" cy="160" r="3"/>
  </g>
  <path d="M48 178 Q34 166 26 179 Q18 192 10 181" fill="none" stroke="#66bb6a" stroke-width="3"/>
  <text x="24" y="205" text-anchor="middle" font-size="10" fill="#2e7d32">Flagellum</text>

  <g font-size="10" fill="#37474f" text-anchor="middle">
    <text x="138" y="272">Nucleoid: circular DNA, no membrane</text>
    <text x="138" y="288">Ribosomes, cell wall, sometimes a plasmid</text>
    <text x="138" y="304">Smaller; no membrane-bound organelles</text>
  </g>

  <ellipse cx="405" cy="176" rx="110" ry="80" fill="#e3f2fd" stroke="#42a5f5" stroke-width="3"/>
  <circle cx="378" cy="170" r="40" fill="#c5cae9" stroke="#5c6bc0" stroke-width="2"/>
  <circle cx="378" cy="170" r="13" fill="#7986cb"/>
  <text x="378" y="126" text-anchor="middle" font-size="11" font-weight="700" fill="#283593">Nucleus</text>
  <ellipse cx="452" cy="140" rx="22" ry="11" fill="#ef9a9a" stroke="#c62828" stroke-width="2"/>
  <ellipse cx="446" cy="216" rx="22" ry="11" fill="#ef9a9a" stroke="#c62828" stroke-width="2"/>
  <g fill="#1565c0">
    <circle cx="350" cy="214" r="3"/><circle cx="420" cy="122" r="3"/><circle cx="474" cy="186" r="3"/><circle cx="404" cy="236" r="3"/>
  </g>

  <g font-size="10" fill="#37474f" text-anchor="middle">
    <text x="405" y="272">Nucleus: DNA enclosed by a membrane</text>
    <text x="405" y="288">Membrane-bound organelles (e.g. mitochondria)</text>
    <text x="405" y="304">Larger; compartmentalized</text>
  </g>

  <text x="270" y="360" text-anchor="middle" font-size="12" font-weight="600" fill="#37474f">Shared by both: DNA, ribosomes, and a plasma membrane.</text>
  <text x="270" y="382" text-anchor="middle" font-size="11" fill="#607d8b">These shared features reflect common descent.</text>
  <text x="270" y="414" text-anchor="middle" font-size="10" fill="#90a4ae">Schematic, not to scale (eukaryotes are typically far larger).</text>
</svg>
