<svg xmlns="http://www.w3.org/2000/svg" viewBox="0 0 560 440" role="img" aria-labelledby="t d" font-family="-apple-system, Segoe UI, Roboto, sans-serif">
  <title id="t">Aromatic and heterocyclic ring systems</title>
  <desc id="d">Benzene (6 pi electrons) and fused naphthalene (10 pi electrons) are aromatic carbocycles. Pyridine is an aromatic 6-membered ring whose nitrogen lone pair sits in the ring plane, so it is basic. Pyrrole is an aromatic 5-membered ring whose nitrogen lone pair is part of the pi system, so it is not basic. Aromaticity needs a cyclic, planar, fully conjugated ring with 4n+2 pi electrons.</desc>
  <rect x="6" y="6" width="548" height="428" rx="14" fill="#ffffff" stroke="#cfd8dc" stroke-width="2"/>
  <text x="280" y="34" text-anchor="middle" font-size="18" font-weight="700" fill="#263238">Aromatic and heterocyclic compounds</text>

  <polygon points="150,80 176,95 176,125 150,140 124,125 124,95" fill="none" stroke="#455a64" stroke-width="2.5"/>
  <circle cx="150" cy="110" r="16" fill="none" stroke="#455a64" stroke-width="1.8"/>
  <text x="150" y="164" text-anchor="middle" font-size="12.5" font-weight="700" fill="#37474f">benzene</text>
  <text x="150" y="182" text-anchor="middle" font-size="11" fill="#607d8b">6 pi e&#8722; &#183; aromatic</text>

  <polygon points="378,84 400,97 400,123 378,136 356,123 356,97" fill="none" stroke="#455a64" stroke-width="2.5"/>
  <polygon points="422,84 444,97 444,123 422,136 400,123 400,97" fill="none" stroke="#455a64" stroke-width="2.5"/>
  <circle cx="378" cy="110" r="13" fill="none" stroke="#455a64" stroke-width="1.8"/>
  <circle cx="422" cy="110" r="13" fill="none" stroke="#455a64" stroke-width="1.8"/>
  <text x="400" y="164" text-anchor="middle" font-size="12.5" font-weight="700" fill="#37474f">naphthalene</text>
  <text x="400" y="182" text-anchor="middle" font-size="11" fill="#607d8b">10 pi e&#8722; &#183; fused, aromatic</text>

  <line x1="30" y1="204" x2="530" y2="204" stroke="#e0e0e0" stroke-width="1.5"/>

  <polygon points="150,238 176,253 176,283 150,298 124,283 124,253" fill="none" stroke="#455a64" stroke-width="2.5"/>
  <circle cx="150" cy="268" r="16" fill="none" stroke="#455a64" stroke-width="1.8"/>
  <text x="150" y="303" text-anchor="middle" font-size="13" font-weight="700" fill="#1565c0">N</text>
  <g fill="#1565c0"><circle cx="144" cy="314" r="2"/><circle cx="156" cy="314" r="2"/></g>
  <text x="150" y="340" text-anchor="middle" font-size="12.5" font-weight="700" fill="#37474f">pyridine</text>
  <text x="150" y="358" text-anchor="middle" font-size="10.5" fill="#607d8b">lone pair in ring plane</text>
  <text x="150" y="374" text-anchor="middle" font-size="11" font-weight="700" fill="#2e7d32">&#8594; basic</text>

  <polygon points="400,240 427,260 417,292 383,292 373,260" fill="none" stroke="#455a64" stroke-width="2.5"/>
  <circle cx="400" cy="268" r="13" fill="none" stroke="#455a64" stroke-width="1.8"/>
  <text x="400" y="308" text-anchor="middle" font-size="13" font-weight="700" fill="#1565c0">N&#8722;H</text>
  <text x="400" y="340" text-anchor="middle" font-size="12.5" font-weight="700" fill="#37474f">pyrrole</text>
  <text x="400" y="358" text-anchor="middle" font-size="10.5" fill="#607d8b">lone pair in the pi system</text>
  <text x="400" y="374" text-anchor="middle" font-size="11" font-weight="700" fill="#c62828">&#8594; not basic</text>

  <text x="280" y="410" text-anchor="middle" font-size="11.5" fill="#607d8b">Aromatic = cyclic, planar, fully conjugated, 4n+2 pi electrons (Huckel). Lone-pair location decides basicity.</text>
</svg>
