<svg xmlns="http://www.w3.org/2000/svg" viewBox="0 0 560 430" role="img" aria-labelledby="t d" font-family="-apple-system, Segoe UI, Roboto, sans-serif">
  <title id="t">Simple distillation apparatus</title>
  <desc id="d">A labeled simple-distillation setup used to purify a liquid by boiling point. A heated boiling flask holds the mixture; a thermometer reads the vapor temperature at the still head; vapor passes into a water-cooled condenser (cooling water enters at the bottom and exits at the top) and the condensed distillate drips into a receiving flask. The lowest-boiling component distills first.</desc>
  <rect x="6" y="6" width="548" height="418" rx="14" fill="#ffffff" stroke="#cfd8dc" stroke-width="2"/>
  <text x="280" y="30" text-anchor="middle" font-size="17" font-weight="700" fill="#263238">Simple distillation: separate by boiling point</text>

  <circle cx="130" cy="300" r="42" fill="#ffffff" stroke="#607d8b" stroke-width="2.5"/>
  <path d="M 90,300 A 42 42 0 0 0 170,300 Z" fill="#cfe8f5"/>
  <line x1="118" y1="262" x2="118" y2="176" stroke="#607d8b" stroke-width="2.5"/>
  <line x1="142" y1="262" x2="142" y2="176" stroke="#607d8b" stroke-width="2.5"/>

  <line x1="130" y1="176" x2="130" y2="108" stroke="#455a64" stroke-width="2"/>
  <circle cx="130" cy="180" r="4" fill="#c62828"/>
  <text x="130" y="100" text-anchor="middle" font-size="11" fill="#546e7a">thermometer</text>

  <line x1="142" y1="192" x2="188" y2="210" stroke="#607d8b" stroke-width="2.5"/>

  <polygon points="183.4,217.7 343.4,312.7 352.6,297.3 192.6,202.3" fill="#eef4f8" stroke="#607d8b" stroke-width="2"/>
  <line x1="188" y1="210" x2="348" y2="305" stroke="#b0bec5" stroke-width="1.5"/>
  <text x="300" y="238" text-anchor="middle" font-size="11" fill="#546e7a">condenser (water-cooled)</text>

  <line x1="196" y1="205" x2="214" y2="194" stroke="#1565c0" stroke-width="1.8"/>
  <polygon points="214,194 205,194 210,201" fill="#1565c0"/>
  <text x="250" y="192" text-anchor="middle" font-size="10.5" fill="#1565c0">water out</text>
  <line x1="344" y1="313" x2="362" y2="323" stroke="#1565c0" stroke-width="1.8"/>
  <polygon points="344,313 353,314 348,320" fill="#1565c0"/>
  <text x="398" y="326" text-anchor="middle" font-size="10.5" fill="#1565c0">water in</text>

  <line x1="348" y1="305" x2="360" y2="322" stroke="#607d8b" stroke-width="2.5"/>
  <circle cx="392" cy="356" r="24" fill="#ffffff" stroke="#607d8b" stroke-width="2.5"/>
  <path d="M 369,356 A 24 24 0 0 0 415,356 Z" fill="#cfe8f5"/>
  <line x1="384" y1="333" x2="384" y2="322" stroke="#607d8b" stroke-width="2.5"/>
  <line x1="400" y1="333" x2="400" y2="322" stroke="#607d8b" stroke-width="2.5"/>
  <g fill="#1565c0"><circle cx="368" cy="326" r="2.2"/><circle cx="374" cy="336" r="2.2"/></g>
  <text x="392" y="398" text-anchor="middle" font-size="11" fill="#546e7a">distillate</text>

  <polygon points="122,366 130,348 138,366" fill="#ef6c00"/>
  <polygon points="126,366 130,356 134,366" fill="#ffd54f"/>
  <text x="130" y="384" text-anchor="middle" font-size="11" fill="#ef6c00">heat</text>
  <text x="66" y="330" text-anchor="middle" font-size="11" fill="#546e7a">boiling</text>
  <text x="66" y="344" text-anchor="middle" font-size="11" fill="#546e7a">flask</text>

  <text x="280" y="416" text-anchor="middle" font-size="11" fill="#607d8b">Vapor rises, condenses in the cooled jacket, and drips into the receiver; lowest-boiling component distills first.</text>
</svg>
