<svg xmlns="http://www.w3.org/2000/svg" viewBox="0 0 560 360" role="img" aria-labelledby="t d" font-family="-apple-system, Segoe UI, Roboto, sans-serif">
  <title id="t">E2 anti-periplanar geometry</title>
  <desc id="d">A Newman projection showing the E2 requirement: the beta hydrogen on the front carbon and the leaving group on the back carbon are anti-periplanar, at a 180 degree dihedral. A base removes the hydrogen while the leaving group departs in one concerted step, forming a new carbon-carbon double bond.</desc>
  <rect x="6" y="6" width="548" height="348" rx="14" fill="#ffffff" stroke="#cfd8dc" stroke-width="2"/>
  <text x="280" y="30" text-anchor="middle" font-size="17" font-weight="700" fill="#263238">E2: anti-periplanar H and leaving group</text>

  <line x1="150" y1="128" x2="150" y2="242" stroke="#b0bec5" stroke-width="1.4" stroke-dasharray="5 4"/>

  <g stroke="#78909c" stroke-width="2.5">
    <line x1="122" y1="152" x2="108" y2="140"/>
    <line x1="178" y1="152" x2="192" y2="140"/>
    <line x1="150" y1="215" x2="150" y2="240"/>
  </g>
  <circle cx="150" cy="175" r="40" fill="none" stroke="#607d8b" stroke-width="2.5"/>

  <g stroke="#455a64" stroke-width="2.5">
    <line x1="150" y1="175" x2="150" y2="138"/>
    <line x1="150" y1="175" x2="120" y2="200"/>
    <line x1="150" y1="175" x2="180" y2="200"/>
  </g>
  <circle cx="150" cy="175" r="3.5" fill="#37474f"/>

  <text x="150" y="132" text-anchor="middle" font-size="12" font-weight="700" fill="#2e7d32">H</text>
  <text x="150" y="255" text-anchor="middle" font-size="12" font-weight="700" fill="#c62828">LG</text>
  <g font-size="11" fill="#455a64" text-anchor="middle"><text x="110" y="208">R</text><text x="190" y="208">R</text><text x="100" y="136">R</text><text x="200" y="136">R</text></g>

  <text x="150" y="100" text-anchor="middle" font-size="12" font-weight="700" fill="#1565c0">B:&#8722;</text>
  <line x1="150" y1="108" x2="150" y2="124" stroke="#1565c0" stroke-width="1.8"/>
  <polygon points="150,126 146,118 154,118" fill="#1565c0"/>

  <text x="150" y="300" text-anchor="middle" font-size="11" font-weight="600" fill="#37474f">H and LG anti (180&#176;)</text>

  <line x1="250" y1="175" x2="300" y2="175" stroke="#37474f" stroke-width="1.8"/>
  <polygon points="302,175 294,171 294,179" fill="#37474f"/>
  <text x="276" y="165" text-anchor="middle" font-size="10.5" fill="#c62828">&#8722; H, &#8722; LG</text>

  <g stroke="#607d8b" stroke-width="2.5">
    <line x1="372" y1="171" x2="410" y2="171"/><line x1="372" y1="179" x2="410" y2="179"/>
    <line x1="372" y1="175" x2="348" y2="158"/>
    <line x1="372" y1="175" x2="348" y2="192"/>
    <line x1="410" y1="175" x2="434" y2="158"/>
    <line x1="410" y1="175" x2="434" y2="192"/>
  </g>
  <g font-size="11" fill="#455a64" text-anchor="middle"><text x="340" y="154">R</text><text x="340" y="204">R</text><text x="442" y="154">R</text><text x="442" y="204">R</text></g>
  <text x="391" y="230" text-anchor="middle" font-size="11" fill="#546e7a">alkene (new C=C)</text>

  <text x="280" y="316" text-anchor="middle" font-size="11.5" fill="#546e7a">E2: one concerted step &#183; rate = k[substrate][base]</text>
  <text x="280" y="338" text-anchor="middle" font-size="11.5" fill="#607d8b">Needs the beta-H and leaving group anti-periplanar (dihedral 180&#176;).</text>
</svg>
