<svg xmlns="http://www.w3.org/2000/svg" viewBox="0 0 560 420" role="img" aria-labelledby="t d" font-family="-apple-system, Segoe UI, Roboto, sans-serif">
  <title id="t">Aldehydes vs ketones and keto-enol tautomerism</title>
  <desc id="d">An aldehyde has an H on the carbonyl carbon so it is easily oxidized to a carboxylic acid; a ketone has two carbons on the carbonyl carbon and resists oxidation. Below, keto-enol tautomerism shows the keto form (C double bond O with an alpha C-H) in equilibrium with the enol form (C double bond C with an OH). The alpha C-H is weakly acidic and gives a resonance-stabilized enolate.</desc>
  <rect x="6" y="6" width="548" height="408" rx="14" fill="#ffffff" stroke="#cfd8dc" stroke-width="2"/>
  <text x="280" y="34" text-anchor="middle" font-size="18" font-weight="700" fill="#263238">Aldehydes and ketones</text>

  <text x="100" y="66" text-anchor="middle" font-size="12.5" font-weight="700" fill="#c62828">Aldehyde</text>
  <text x="98" y="118" text-anchor="middle" font-size="12" fill="#455a64">CH3</text>
  <line x1="112" y1="114" x2="126" y2="114" stroke="#607d8b" stroke-width="2.5"/>
  <circle cx="130" cy="114" r="3.5" fill="#37474f"/>
  <line x1="127" y1="108" x2="127" y2="88" stroke="#607d8b" stroke-width="2.5"/><line x1="133" y1="108" x2="133" y2="88" stroke="#607d8b" stroke-width="2.5"/>
  <text x="130" y="82" text-anchor="middle" font-size="12" fill="#c62828">O</text>
  <line x1="134" y1="114" x2="152" y2="114" stroke="#607d8b" stroke-width="2.5"/>
  <rect x="158" y="104" width="18" height="18" rx="4" fill="#fde8e8"/><text x="167" y="118" text-anchor="middle" font-size="12" font-weight="700" fill="#c62828">H</text>
  <text x="120" y="150" text-anchor="middle" font-size="11" fill="#546e7a">H on carbonyl C</text>
  <text x="120" y="165" text-anchor="middle" font-size="11" fill="#2e7d32">&#8594; easily oxidized to acid</text>

  <text x="410" y="66" text-anchor="middle" font-size="12.5" font-weight="700" fill="#c62828">Ketone</text>
  <text x="366" y="118" text-anchor="middle" font-size="12" fill="#455a64">CH3</text>
  <line x1="382" y1="114" x2="396" y2="114" stroke="#607d8b" stroke-width="2.5"/>
  <circle cx="400" cy="114" r="3.5" fill="#37474f"/>
  <line x1="397" y1="108" x2="397" y2="88" stroke="#607d8b" stroke-width="2.5"/><line x1="403" y1="108" x2="403" y2="88" stroke="#607d8b" stroke-width="2.5"/>
  <text x="400" y="82" text-anchor="middle" font-size="12" fill="#c62828">O</text>
  <line x1="404" y1="114" x2="420" y2="114" stroke="#607d8b" stroke-width="2.5"/>
  <text x="436" y="118" text-anchor="middle" font-size="12" fill="#455a64">CH3</text>
  <text x="410" y="150" text-anchor="middle" font-size="11" fill="#546e7a">no H on carbonyl C</text>
  <text x="410" y="165" text-anchor="middle" font-size="11" fill="#c62828">&#8594; resists oxidation</text>

  <line x1="30" y1="188" x2="530" y2="188" stroke="#e0e0e0" stroke-width="1.5"/>
  <text x="280" y="212" text-anchor="middle" font-size="14" font-weight="700" fill="#263238">Keto-enol tautomerism</text>

  <text x="138" y="278" text-anchor="middle" font-size="12" fill="#455a64">CH3</text>
  <line x1="152" y1="274" x2="166" y2="274" stroke="#607d8b" stroke-width="2.5"/>
  <circle cx="170" cy="274" r="3.5" fill="#37474f"/>
  <line x1="167" y1="268" x2="167" y2="248" stroke="#607d8b" stroke-width="2.5"/><line x1="173" y1="268" x2="173" y2="248" stroke="#607d8b" stroke-width="2.5"/>
  <text x="170" y="242" text-anchor="middle" font-size="12" fill="#c62828">O</text>
  <line x1="174" y1="274" x2="190" y2="274" stroke="#607d8b" stroke-width="2.5"/>
  <text x="206" y="278" text-anchor="middle" font-size="12" fill="#455a64">CH3</text>
  <text x="172" y="304" text-anchor="middle" font-size="11" fill="#546e7a">keto (C=O + alpha C&#8722;H)</text>

  <text x="280" y="279" text-anchor="middle" font-size="18" fill="#455a64">&#8596;</text>

  <text x="338" y="278" text-anchor="middle" font-size="12" fill="#455a64">CH2</text>
  <line x1="354" y1="271" x2="374" y2="271" stroke="#607d8b" stroke-width="2.5"/><line x1="354" y1="277" x2="374" y2="277" stroke="#607d8b" stroke-width="2.5"/>
  <circle cx="380" cy="274" r="3.5" fill="#37474f"/>
  <line x1="380" y1="268" x2="380" y2="248" stroke="#607d8b" stroke-width="2.5"/>
  <text x="380" y="242" text-anchor="middle" font-size="12" fill="#c62828">OH</text>
  <line x1="384" y1="274" x2="400" y2="274" stroke="#607d8b" stroke-width="2.5"/>
  <text x="416" y="278" text-anchor="middle" font-size="12" fill="#455a64">CH3</text>
  <text x="380" y="304" text-anchor="middle" font-size="11" fill="#546e7a">enol (C=C&#8722;OH)</text>

  <text x="280" y="344" text-anchor="middle" font-size="11.5" fill="#607d8b">Alpha C&#8722;H is weakly acidic (pKa &#8776; 20): base gives a resonance-stabilized enolate,</text>
  <text x="280" y="364" text-anchor="middle" font-size="11.5" fill="#607d8b">a carbon nucleophile that drives aldol addition and condensation.</text>
</svg>
