<svg xmlns="http://www.w3.org/2000/svg" viewBox="0 0 540 440" role="img" aria-labelledby="t d" font-family="-apple-system, Segoe UI, Roboto, sans-serif">
  <title id="t">Hybridization: sp3, sp2, and sp</title>
  <desc id="d">Three carbon hybridizations. sp3 is tetrahedral (about 109.5 degrees, methane, four sigma bonds). sp2 is trigonal planar (about 120 degrees, ethene, three sigma plus one pi). sp is linear (180 degrees, ethyne, two sigma plus two pi). More s-character gives shorter, stronger bonds.</desc>
  <rect x="6" y="6" width="528" height="428" rx="14" fill="#ffffff" stroke="#cfd8dc" stroke-width="2"/>
  <text x="270" y="34" text-anchor="middle" font-size="18" font-weight="700" fill="#263238">Hybridization: orbitals, geometry, and bond angle</text>

  <rect x="22" y="58" width="156" height="300" rx="10" fill="#f7f9fa" stroke="#cfd8dc" stroke-width="1.5"/>
  <rect x="192" y="58" width="156" height="300" rx="10" fill="#f7f9fa" stroke="#cfd8dc" stroke-width="1.5"/>
  <rect x="362" y="58" width="156" height="300" rx="10" fill="#f7f9fa" stroke="#cfd8dc" stroke-width="1.5"/>

  <g stroke="#78909c" stroke-width="2.5">
    <line x1="100" y1="150" x2="68" y2="120"/>
    <line x1="100" y1="150" x2="132" y2="120"/>
    <line x1="100" y1="150" x2="72" y2="192" stroke-dasharray="3 3"/>
  </g>
  <polygon points="100,150 124.2,194.5 131.8,189.5" fill="#37474f"/>
  <circle cx="100" cy="150" r="14" fill="#37474f"/><text x="100" y="155" text-anchor="middle" font-size="14" font-weight="700" fill="#fff">C</text>
  <text x="60" y="116" text-anchor="middle" font-size="12" fill="#546e7a">H</text>
  <text x="140" y="116" text-anchor="middle" font-size="12" fill="#546e7a">H</text>
  <text x="64" y="204" text-anchor="middle" font-size="12" fill="#546e7a">H</text>
  <text x="136" y="204" text-anchor="middle" font-size="12" fill="#546e7a">H</text>
  <text x="100" y="248" text-anchor="middle" font-size="22" font-weight="700" fill="#1565c0">sp3</text>
  <text x="100" y="270" text-anchor="middle" font-size="13" fill="#37474f">tetrahedral</text>
  <text x="100" y="289" text-anchor="middle" font-size="13" fill="#546e7a">~109.5&#176;</text>
  <text x="100" y="308" text-anchor="middle" font-size="12.5" fill="#546e7a">4 &#963; + 0 &#960;</text>
  <text x="100" y="327" text-anchor="middle" font-size="11.5" fill="#78909c">e.g. CH4, ethane</text>

  <g stroke="#78909c" stroke-width="2.5">
    <line x1="262" y1="146" x2="278" y2="146"/>
    <line x1="262" y1="154" x2="278" y2="154"/>
    <line x1="248" y1="150" x2="224" y2="126"/>
    <line x1="248" y1="150" x2="224" y2="174"/>
    <line x1="292" y1="150" x2="316" y2="126"/>
    <line x1="292" y1="150" x2="316" y2="174"/>
  </g>
  <circle cx="248" cy="150" r="14" fill="#37474f"/><text x="248" y="155" text-anchor="middle" font-size="14" font-weight="700" fill="#fff">C</text>
  <circle cx="292" cy="150" r="14" fill="#37474f"/><text x="292" y="155" text-anchor="middle" font-size="14" font-weight="700" fill="#fff">C</text>
  <text x="216" y="122" text-anchor="middle" font-size="12" fill="#546e7a">H</text>
  <text x="216" y="184" text-anchor="middle" font-size="12" fill="#546e7a">H</text>
  <text x="324" y="122" text-anchor="middle" font-size="12" fill="#546e7a">H</text>
  <text x="324" y="184" text-anchor="middle" font-size="12" fill="#546e7a">H</text>
  <text x="270" y="248" text-anchor="middle" font-size="22" font-weight="700" fill="#2e7d32">sp2</text>
  <text x="270" y="270" text-anchor="middle" font-size="13" fill="#37474f">trigonal planar</text>
  <text x="270" y="289" text-anchor="middle" font-size="13" fill="#546e7a">~120&#176;</text>
  <text x="270" y="308" text-anchor="middle" font-size="12.5" fill="#546e7a">3 &#963; + 1 &#960;</text>
  <text x="270" y="327" text-anchor="middle" font-size="11.5" fill="#78909c">e.g. ethene, C=O</text>

  <g stroke="#78909c" stroke-width="2.5">
    <line x1="434" y1="144" x2="446" y2="144"/>
    <line x1="434" y1="150" x2="446" y2="150"/>
    <line x1="434" y1="156" x2="446" y2="156"/>
    <line x1="406" y1="150" x2="390" y2="150"/>
    <line x1="474" y1="150" x2="490" y2="150"/>
  </g>
  <circle cx="420" cy="150" r="14" fill="#37474f"/><text x="420" y="155" text-anchor="middle" font-size="14" font-weight="700" fill="#fff">C</text>
  <circle cx="460" cy="150" r="14" fill="#37474f"/><text x="460" y="155" text-anchor="middle" font-size="14" font-weight="700" fill="#fff">C</text>
  <text x="382" y="155" text-anchor="middle" font-size="12" fill="#546e7a">H</text>
  <text x="498" y="155" text-anchor="middle" font-size="12" fill="#546e7a">H</text>
  <text x="440" y="248" text-anchor="middle" font-size="22" font-weight="700" fill="#6a1b9a">sp</text>
  <text x="440" y="270" text-anchor="middle" font-size="13" fill="#37474f">linear</text>
  <text x="440" y="289" text-anchor="middle" font-size="13" fill="#546e7a">180&#176;</text>
  <text x="440" y="308" text-anchor="middle" font-size="12.5" fill="#546e7a">2 &#963; + 2 &#960;</text>
  <text x="440" y="327" text-anchor="middle" font-size="11.5" fill="#78909c">e.g. ethyne, C&#8801;N</text>

  <text x="270" y="386" text-anchor="middle" font-size="13" font-weight="700" fill="#37474f">More s-character: sp &gt; sp2 &gt; sp3</text>
  <text x="270" y="408" text-anchor="middle" font-size="12" fill="#607d8b">&#8594; shorter, stronger bonds; atom more electronegative and less basic</text>
</svg>
