<svg xmlns="http://www.w3.org/2000/svg" viewBox="0 0 540 440" role="img" aria-labelledby="t d" font-family="-apple-system, Segoe UI, Roboto, sans-serif">
  <title id="t">IUPAC nomenclature: numbering the parent chain</title>
  <desc id="d">Skeletal structure of 3-methylpentan-2-ol. A five-carbon pentane chain is numbered 1 to 5 so the hydroxyl on carbon 2 gets the lowest locant; a methyl branch sits on carbon 3. The principal group decides numbering; substituents are alphabetized in the written name.</desc>
  <rect x="6" y="6" width="528" height="428" rx="14" fill="#ffffff" stroke="#cfd8dc" stroke-width="2"/>
  <text x="270" y="34" text-anchor="middle" font-size="18" font-weight="700" fill="#263238">Nomenclature: numbering the parent chain</text>

  <g stroke="#607d8b" stroke-width="2.5" fill="none">
    <line x1="170" y1="210" x2="220" y2="175"/>
    <line x1="220" y1="175" x2="270" y2="210"/>
    <line x1="270" y1="210" x2="320" y2="175"/>
    <line x1="320" y1="175" x2="370" y2="210"/>
    <line x1="220" y1="175" x2="220" y2="140"/>
    <line x1="270" y1="210" x2="270" y2="248"/>
  </g>
  <g fill="#37474f"><circle cx="170" cy="210" r="3"/><circle cx="220" cy="175" r="3"/><circle cx="270" cy="210" r="3"/><circle cx="320" cy="175" r="3"/><circle cx="370" cy="210" r="3"/></g>

  <text x="220" y="130" text-anchor="middle" font-size="14" font-weight="700" fill="#c62828">OH</text>
  <text x="270" y="264" text-anchor="middle" font-size="13" font-weight="600" fill="#455a64">CH3</text>

  <g font-size="12" font-weight="700" fill="#fff">
    <circle cx="170" cy="234" r="10" fill="#1565c0"/><text x="170" y="238" text-anchor="middle">1</text>
    <circle cx="196" cy="164" r="10" fill="#1565c0"/><text x="196" y="168" text-anchor="middle">2</text>
    <circle cx="294" cy="232" r="10" fill="#1565c0"/><text x="294" y="236" text-anchor="middle">3</text>
    <circle cx="320" cy="152" r="10" fill="#1565c0"/><text x="320" y="156" text-anchor="middle">4</text>
    <circle cx="370" cy="234" r="10" fill="#1565c0"/><text x="370" y="238" text-anchor="middle">5</text>
  </g>

  <text x="270" y="304" text-anchor="middle" font-size="13" fill="#37474f">Parent chain: pentane (5 carbons)</text>
  <text x="270" y="326" text-anchor="middle" font-size="13" fill="#37474f">Principal group &#8722;OH &#8594; suffix -ol, takes the lowest locant</text>
  <text x="270" y="348" text-anchor="middle" font-size="13" fill="#546e7a">Number so &#8722;OH lands on C2, not C4 (lower locant wins)</text>
  <text x="270" y="380" text-anchor="middle" font-size="17" font-weight="700" fill="#1565c0">Name: 3-methylpentan-2-ol</text>
  <text x="270" y="406" text-anchor="middle" font-size="11.5" fill="#607d8b">Substituents are alphabetized in the name; the principal group decides numbering.</text>
</svg>
