<svg xmlns="http://www.w3.org/2000/svg" viewBox="0 0 560 366" role="img" aria-labelledby="t d" font-family="-apple-system, Segoe UI, Roboto, sans-serif">
  <title id="t">Sugar cyclization and anomers</title>
  <desc id="d">An open-chain aldose (free C1 aldehyde) cyclizes when the C5 hydroxyl adds intramolecularly to the C1 carbonyl, forming a cyclic hemiacetal and a new stereocenter at the anomeric carbon. The alpha-anomer has the anomeric OH pointing down and the beta-anomer has it up. Alpha and beta interconvert through the open chain (mutarotation).</desc>
  <rect x="6" y="6" width="548" height="354" rx="14" fill="#ffffff" stroke="#cfd8dc" stroke-width="2"/>
  <text x="280" y="34" text-anchor="middle" font-size="18" font-weight="700" fill="#263238">Carbohydrates: cyclization and anomers</text>

  <polygon points="63,190 84,168 126,168 147,190 126,212 84,212" fill="none" stroke="#455a64" stroke-width="2.5"/>
  <text x="120" y="164" text-anchor="middle" font-size="12" font-weight="700" fill="#c62828">O</text>
  <line x1="84" y1="168" x2="84" y2="148" stroke="#607d8b" stroke-width="2.5"/><text x="84" y="142" text-anchor="middle" font-size="10.5" fill="#455a64">CH2OH</text>
  <line x1="147" y1="190" x2="147" y2="212" stroke="#607d8b" stroke-width="2.5"/><text x="147" y="226" text-anchor="middle" font-size="11" font-weight="700" fill="#1565c0">OH</text>
  <circle cx="147" cy="190" r="5" fill="none" stroke="#1565c0" stroke-width="2"/>
  <text x="105" y="256" text-anchor="middle" font-size="11" font-weight="700" fill="#37474f">alpha-anomer</text>
  <text x="105" y="271" text-anchor="middle" font-size="10" fill="#607d8b">anomeric OH down</text>

  <text x="200" y="196" text-anchor="middle" font-size="20" fill="#455a64">&#8652;</text>

  <line x1="280" y1="116" x2="280" y2="216" stroke="#607d8b" stroke-width="2.5"/>
  <rect x="262" y="102" width="36" height="18" rx="4" fill="#fde8e8"/><text x="280" y="115" text-anchor="middle" font-size="11" font-weight="700" fill="#c62828">CHO</text>
  <text x="280" y="139" text-anchor="middle" font-size="10.5" fill="#455a64">H&#8722;C&#8722;OH</text>
  <text x="280" y="160" text-anchor="middle" font-size="10.5" fill="#455a64">HO&#8722;C&#8722;H</text>
  <text x="280" y="181" text-anchor="middle" font-size="10.5" fill="#455a64">H&#8722;C&#8722;OH</text>
  <text x="280" y="202" text-anchor="middle" font-size="10.5" fill="#455a64">H&#8722;C&#8722;OH</text>
  <text x="280" y="223" text-anchor="middle" font-size="10.5" fill="#455a64">CH2OH</text>
  <text x="280" y="256" text-anchor="middle" font-size="11" font-weight="700" fill="#37474f">open chain</text>
  <text x="280" y="271" text-anchor="middle" font-size="10" fill="#607d8b">free C1 aldehyde</text>

  <text x="362" y="196" text-anchor="middle" font-size="20" fill="#455a64">&#8652;</text>

  <polygon points="413,190 434,168 476,168 497,190 476,212 434,212" fill="none" stroke="#455a64" stroke-width="2.5"/>
  <text x="470" y="164" text-anchor="middle" font-size="12" font-weight="700" fill="#c62828">O</text>
  <line x1="434" y1="168" x2="434" y2="148" stroke="#607d8b" stroke-width="2.5"/><text x="434" y="142" text-anchor="middle" font-size="10.5" fill="#455a64">CH2OH</text>
  <line x1="497" y1="190" x2="497" y2="168" stroke="#607d8b" stroke-width="2.5"/><text x="497" y="162" text-anchor="middle" font-size="11" font-weight="700" fill="#1565c0">OH</text>
  <circle cx="497" cy="190" r="5" fill="none" stroke="#1565c0" stroke-width="2"/>
  <text x="455" y="256" text-anchor="middle" font-size="11" font-weight="700" fill="#37474f">beta-anomer</text>
  <text x="455" y="271" text-anchor="middle" font-size="10" fill="#607d8b">anomeric OH up</text>

  <text x="280" y="302" text-anchor="middle" font-size="11" fill="#546e7a">Anomeric C1 = new stereocenter from the C5 &#8722;OH adding to the C1 aldehyde (hemiacetal).</text>
  <text x="280" y="322" text-anchor="middle" font-size="11" fill="#546e7a">Mutarotation: alpha and beta interconvert via the open chain until equilibrium.</text>
  <text x="280" y="342" text-anchor="middle" font-size="11" fill="#607d8b">A glycosidic bond locks C1 as an acetal (non-reducing sugar).</text>
</svg>
