<svg xmlns="http://www.w3.org/2000/svg" viewBox="0 0 560 440" role="img" aria-labelledby="t d" font-family="-apple-system, Segoe UI, Roboto, sans-serif">
  <title id="t">Conjugate-base stability sets acidity</title>
  <desc id="d">Acetic acid loses a proton to give acetate. The acetate anion is drawn as two equivalent resonance structures joined by a double-headed arrow, then as a resonance hybrid with the negative charge shared equally over both oxygens as partial delta-minus charges. Resonance stabilization of the conjugate base is why a carboxylic acid (pKa about 4.8) is far more acidic than an alcohol (pKa about 16).</desc>
  <rect x="6" y="6" width="548" height="428" rx="14" fill="#ffffff" stroke="#cfd8dc" stroke-width="2"/>
  <text x="280" y="34" text-anchor="middle" font-size="18" font-weight="700" fill="#263238">Acid-base: stability of the conjugate base</text>

  <text x="100" y="94" text-anchor="middle" font-size="11.5" font-weight="600" fill="#455a64">acetic acid</text>
  <text x="58" y="154" text-anchor="middle" font-size="12" fill="#455a64">CH3</text>
  <line x1="72" y1="150" x2="90" y2="150" stroke="#607d8b" stroke-width="2.5"/>
  <circle cx="95" cy="150" r="3.5" fill="#37474f"/>
  <line x1="92" y1="146" x2="92" y2="124" stroke="#607d8b" stroke-width="2.5"/><line x1="98" y1="146" x2="98" y2="124" stroke="#607d8b" stroke-width="2.5"/>
  <text x="95" y="118" text-anchor="middle" font-size="12" fill="#c62828">O</text>
  <line x1="100" y1="150" x2="122" y2="150" stroke="#607d8b" stroke-width="2.5"/>
  <text x="128" y="154" text-anchor="middle" font-size="12" fill="#c62828">O</text>
  <line x1="134" y1="150" x2="148" y2="150" stroke="#607d8b" stroke-width="2.5"/>
  <text x="154" y="154" text-anchor="middle" font-size="12" fill="#546e7a">H</text>

  <line x1="164" y1="150" x2="198" y2="150" stroke="#37474f" stroke-width="1.8"/>
  <polygon points="198,150 190,146 190,154" fill="#37474f"/>
  <text x="181" y="140" text-anchor="middle" font-size="11" fill="#c62828">&#8722; H+</text>

  <text x="212" y="128" font-size="30" fill="#455a64">[</text>
  <text x="448" y="128" font-size="30" fill="#455a64">]</text>
  <text x="460" y="118" font-size="14" font-weight="700" fill="#1565c0">&#8722;</text>

  <text x="233" y="154" text-anchor="middle" font-size="12" fill="#455a64">CH3</text>
  <line x1="247" y1="150" x2="262" y2="150" stroke="#607d8b" stroke-width="2.5"/>
  <circle cx="270" cy="150" r="3.5" fill="#37474f"/>
  <line x1="267" y1="146" x2="267" y2="124" stroke="#607d8b" stroke-width="2.5"/><line x1="273" y1="146" x2="273" y2="124" stroke="#607d8b" stroke-width="2.5"/>
  <text x="270" y="118" text-anchor="middle" font-size="12" fill="#c62828">O</text>
  <line x1="275" y1="150" x2="298" y2="150" stroke="#607d8b" stroke-width="2.5"/>
  <text x="305" y="154" text-anchor="middle" font-size="12" fill="#c62828">O</text><text x="316" y="147" font-size="11" font-weight="700" fill="#1565c0">&#8722;</text>

  <text x="332" y="156" text-anchor="middle" font-size="18" fill="#455a64">&#8596;</text>

  <text x="363" y="154" text-anchor="middle" font-size="12" fill="#455a64">CH3</text>
  <line x1="377" y1="150" x2="392" y2="150" stroke="#607d8b" stroke-width="2.5"/>
  <circle cx="400" cy="150" r="3.5" fill="#37474f"/>
  <line x1="400" y1="146" x2="400" y2="124" stroke="#607d8b" stroke-width="2.5"/>
  <text x="400" y="118" text-anchor="middle" font-size="12" fill="#c62828">O</text><text x="411" y="116" font-size="11" font-weight="700" fill="#1565c0">&#8722;</text>
  <line x1="405" y1="147" x2="428" y2="147" stroke="#607d8b" stroke-width="2.5"/><line x1="405" y1="153" x2="428" y2="153" stroke="#607d8b" stroke-width="2.5"/>
  <text x="434" y="154" text-anchor="middle" font-size="12" fill="#c62828">O</text>

  <text x="280" y="206" text-anchor="middle" font-size="11.5" fill="#607d8b">which is one delocalized carboxylate ion:</text>

  <text x="233" y="254" text-anchor="middle" font-size="12" fill="#455a64">CH3</text>
  <line x1="247" y1="250" x2="262" y2="250" stroke="#607d8b" stroke-width="2.5"/>
  <circle cx="270" cy="250" r="3.5" fill="#37474f"/>
  <line x1="267" y1="246" x2="267" y2="226" stroke="#607d8b" stroke-width="2.5"/><line x1="273" y1="246" x2="273" y2="226" stroke="#78909c" stroke-width="2" stroke-dasharray="3 3"/>
  <text x="270" y="220" text-anchor="middle" font-size="12" fill="#c62828">O</text><text x="284" y="220" font-size="11" font-weight="700" fill="#1565c0">&#948;&#8722;</text>
  <line x1="275" y1="248" x2="298" y2="248" stroke="#607d8b" stroke-width="2.5"/><line x1="275" y1="254" x2="298" y2="254" stroke="#78909c" stroke-width="2" stroke-dasharray="3 3"/>
  <text x="305" y="254" text-anchor="middle" font-size="12" fill="#c62828">O</text><text x="318" y="254" font-size="11" font-weight="700" fill="#1565c0">&#948;&#8722;</text>

  <line x1="30" y1="294" x2="530" y2="294" stroke="#e0e0e0" stroke-width="1.5"/>
  <text x="280" y="320" text-anchor="middle" font-size="13" font-weight="700" fill="#37474f">Stronger acid = more stable conjugate base</text>
  <text x="280" y="344" text-anchor="middle" font-size="12" fill="#546e7a">Resonance delocalizes acetate's charge &#8594; acetic acid pKa &#8776; 4.8</text>
  <text x="280" y="364" text-anchor="middle" font-size="12" fill="#546e7a">An alkoxide has no such resonance &#8594; alcohol pKa &#8776; 16</text>
  <text x="280" y="398" text-anchor="middle" font-size="11.5" fill="#607d8b">Rank acidity by comparing the conjugate bases, not the acids themselves.</text>
</svg>
