<svg xmlns="http://www.w3.org/2000/svg" viewBox="0 0 560 420" role="img" aria-labelledby="t d" font-family="-apple-system, Segoe UI, Roboto, sans-serif">
  <title id="t">Carboxylic acid derivative reactivity ladder</title>
  <desc id="d">Four carboxylic acid derivatives ranked by reactivity: acyl halide (R-CO-Cl) is most reactive, then anhydride, then ester, and amide (R-CO-NH2) is least reactive. All react by addition-elimination through a tetrahedral intermediate. Reactivity is set by leaving-group ability and by resonance donation into the carbonyl; reactions run downhill from more reactive to less reactive.</desc>
  <rect x="6" y="6" width="548" height="408" rx="14" fill="#ffffff" stroke="#cfd8dc" stroke-width="2"/>
  <text x="280" y="34" text-anchor="middle" font-size="18" font-weight="700" fill="#263238">Acid derivatives: the reactivity ladder</text>

  <g fill="#f7f9fa" stroke="#cfd8dc" stroke-width="1.5">
    <rect x="16" y="60" width="123" height="200" rx="9"/><rect x="151" y="60" width="123" height="200" rx="9"/><rect x="286" y="60" width="123" height="200" rx="9"/><rect x="421" y="60" width="123" height="200" rx="9"/>
  </g>

  <g font-size="12.5" font-weight="700" fill="#c62828" text-anchor="middle">
    <text x="77.5" y="88">acyl halide</text><text x="212.5" y="88">anhydride</text><text x="347.5" y="88">ester</text><text x="482.5" y="88">amide</text>
  </g>

  <g stroke="#c62828" stroke-width="2.5">
    <line x1="75" y1="152" x2="75" y2="132"/><line x1="80" y1="152" x2="80" y2="132"/><line x1="75.5" y1="160" x2="51.5" y2="160"/><line x1="80" y1="160" x2="104" y2="160"/>
    <line x1="210" y1="152" x2="210" y2="132"/><line x1="215" y1="152" x2="215" y2="132"/><line x1="210.5" y1="160" x2="186.5" y2="160"/><line x1="215" y1="160" x2="239" y2="160"/>
    <line x1="345" y1="152" x2="345" y2="132"/><line x1="350" y1="152" x2="350" y2="132"/><line x1="345.5" y1="160" x2="321.5" y2="160"/><line x1="350" y1="160" x2="374" y2="160"/>
    <line x1="480" y1="152" x2="480" y2="132"/><line x1="485" y1="152" x2="485" y2="132"/><line x1="480.5" y1="160" x2="456.5" y2="160"/><line x1="485" y1="160" x2="509" y2="160"/>
  </g>
  <g fill="#c62828"><circle cx="77.5" cy="160" r="3"/><circle cx="212.5" cy="160" r="3"/><circle cx="347.5" cy="160" r="3"/><circle cx="482.5" cy="160" r="3"/></g>
  <g font-size="12" fill="#c62828" text-anchor="middle"><text x="77.5" y="126">O</text><text x="212.5" y="126">O</text><text x="347.5" y="126">O</text><text x="482.5" y="126">O</text></g>
  <g font-size="12" fill="#455a64" text-anchor="middle">
    <text x="43" y="164">R</text><text x="114" y="164">Cl</text>
    <text x="178" y="164">R</text><text x="252" y="164" font-size="10.5">OCOR</text>
    <text x="313" y="164">R</text><text x="386" y="164">OR'</text>
    <text x="448" y="164">R</text><text x="519" y="164">NH2</text>
  </g>

  <g font-size="11" text-anchor="middle">
    <text x="77.5" y="206" fill="#c62828" font-weight="700">most reactive</text>
    <text x="212.5" y="206" fill="#ef6c00">high</text>
    <text x="347.5" y="206" fill="#607d8b">lower</text>
    <text x="482.5" y="206" fill="#455a64" font-weight="700">least reactive</text>
  </g>
  <g font-size="10" fill="#78909c" text-anchor="middle">
    <text x="77.5" y="228">great LG (Cl&#8722;)</text>
    <text x="212.5" y="228">good LG</text>
    <text x="347.5" y="228">weak LG</text>
    <text x="482.5" y="228">poor LG,</text><text x="482.5" y="240">N donates in</text>
  </g>

  <line x1="60" y1="290" x2="486" y2="290" stroke="#37474f" stroke-width="2"/>
  <polygon points="492,290 482,286 482,294" fill="#37474f"/>
  <text x="276" y="284" text-anchor="middle" font-size="11" font-weight="600" fill="#37474f">decreasing reactivity (reactions run this way)</text>

  <text x="280" y="322" text-anchor="middle" font-size="11.5" fill="#546e7a">All react by addition-elimination through a tetrahedral intermediate.</text>
  <text x="280" y="346" text-anchor="middle" font-size="11.5" fill="#546e7a">Rank set by leaving-group ability + resonance donation into the C=O.</text>
  <text x="280" y="372" text-anchor="middle" font-size="11.5" fill="#607d8b">Amides are the most stable - why peptide bonds resist hydrolysis in water.</text>
</svg>
