<svg xmlns="http://www.w3.org/2000/svg" viewBox="0 0 560 432" role="img" aria-labelledby="t d" font-family="-apple-system, Segoe UI, Roboto, sans-serif">
  <title id="t">Isomer classification</title>
  <desc id="d">Isomers share a molecular formula and split into constitutional isomers (different connectivity: chain, positional, functional) and stereoisomers (same connectivity, different 3-D: enantiomers, diastereomers, cis-trans). Example C4H10 has zero degrees of unsaturation and two constitutional isomers: butane and 2-methylpropane. Conformers are not isomers.</desc>
  <rect x="6" y="6" width="548" height="420" rx="14" fill="#ffffff" stroke="#cfd8dc" stroke-width="2"/>
  <text x="280" y="34" text-anchor="middle" font-size="18" font-weight="700" fill="#263238">Isomerism: how to classify isomers</text>

  <g stroke="#90a4ae" stroke-width="1.8"><line x1="280" y1="84" x2="150" y2="122"/><line x1="280" y1="84" x2="410" y2="122"/></g>
  <rect x="190" y="50" width="180" height="34" rx="8" fill="#eef4f8" stroke="#90a4ae" stroke-width="1.5"/>
  <text x="280" y="72" text-anchor="middle" font-size="13" font-weight="700" fill="#263238">Isomers &#183; same formula</text>

  <rect x="46" y="122" width="208" height="46" rx="8" fill="#e8f0fe" stroke="#90a4ae" stroke-width="1.5"/>
  <text x="150" y="143" text-anchor="middle" font-size="12.5" font-weight="700" fill="#1565c0">Constitutional (structural)</text>
  <text x="150" y="159" text-anchor="middle" font-size="11" fill="#607d8b">different connectivity</text>
  <rect x="306" y="122" width="208" height="46" rx="8" fill="#f3e9fb" stroke="#90a4ae" stroke-width="1.5"/>
  <text x="410" y="143" text-anchor="middle" font-size="12.5" font-weight="700" fill="#6a1b9a">Stereoisomers</text>
  <text x="410" y="159" text-anchor="middle" font-size="10.5" fill="#607d8b">same connectivity, different 3-D</text>

  <g stroke="#90a4ae" stroke-width="1.5"><line x1="150" y1="168" x2="150" y2="180"/><line x1="410" y1="168" x2="410" y2="180"/></g>
  <g fill="#f7f9fa" stroke="#cfd8dc" stroke-width="1.2">
    <rect x="48" y="180" width="58" height="22" rx="11"/><rect x="112" y="180" width="76" height="22" rx="11"/><rect x="194" y="180" width="76" height="22" rx="11"/>
    <rect x="312" y="180" width="94" height="22" rx="11"/><rect x="412" y="180" width="104" height="22" rx="11"/>
  </g>
  <g font-size="11" fill="#455a64" text-anchor="middle">
    <text x="77" y="195">chain</text><text x="150" y="195">positional</text><text x="232" y="195">functional</text>
    <text x="359" y="195">enantiomers</text><text x="464" y="195" font-size="9.5">diastereomers / cis-trans</text>
  </g>

  <line x1="30" y1="222" x2="530" y2="222" stroke="#e0e0e0" stroke-width="1.5"/>
  <text x="280" y="244" text-anchor="middle" font-size="13" font-weight="600" fill="#37474f">Example: C4H10 &#183; degrees of unsaturation = 0</text>
  <text x="280" y="262" text-anchor="middle" font-size="11" fill="#607d8b">&#8594; only saturated, acyclic isomers exist</text>

  <g stroke="#607d8b" stroke-width="2.5"><line x1="112" y1="320" x2="142" y2="300"/><line x1="142" y1="300" x2="172" y2="320"/><line x1="172" y1="320" x2="202" y2="300"/></g>
  <g fill="#37474f"><circle cx="112" cy="320" r="3"/><circle cx="142" cy="300" r="3"/><circle cx="172" cy="320" r="3"/><circle cx="202" cy="300" r="3"/></g>
  <text x="157" y="346" text-anchor="middle" font-size="12" font-weight="600" fill="#455a64">butane</text>

  <g stroke="#607d8b" stroke-width="2.5"><line x1="400" y1="308" x2="400" y2="280"/><line x1="400" y1="308" x2="374" y2="330"/><line x1="400" y1="308" x2="426" y2="330"/></g>
  <g fill="#37474f"><circle cx="400" cy="308" r="3"/><circle cx="400" cy="280" r="3"/><circle cx="374" cy="330" r="3"/><circle cx="426" cy="330" r="3"/></g>
  <text x="400" y="346" text-anchor="middle" font-size="12" font-weight="600" fill="#455a64">2-methylpropane</text>

  <text x="288" y="306" text-anchor="middle" font-size="10.5" fill="#607d8b">constitutional</text>
  <text x="288" y="320" text-anchor="middle" font-size="10.5" fill="#607d8b">isomers</text>

  <text x="280" y="392" text-anchor="middle" font-size="11.5" fill="#607d8b">Conformers (rotation about single bonds) interconvert freely &#8594; NOT separate isomers.</text>
</svg>
