<svg xmlns="http://www.w3.org/2000/svg" viewBox="0 0 560 420" role="img" aria-labelledby="t d" font-family="-apple-system, Segoe UI, Roboto, sans-serif">
  <title id="t">Phenol acidity via phenoxide resonance</title>
  <desc id="d">Phenol loses a proton to give phenoxide, whose negative charge delocalizes from oxygen into the aromatic ring at the ortho and para carbons. This resonance stabilization makes phenol (pKa about 10) far more acidic than cyclohexanol (pKa about 17), whose alkoxide charge is stuck on one oxygen. Electron-withdrawing groups at ortho or para lower pKa further.</desc>
  <rect x="6" y="6" width="548" height="408" rx="14" fill="#ffffff" stroke="#cfd8dc" stroke-width="2"/>
  <text x="280" y="34" text-anchor="middle" font-size="18" font-weight="700" fill="#263238">Phenols: ring-enhanced acidity</text>

  <polygon points="130,128 158,144 158,176 130,192 102,176 102,144" fill="none" stroke="#455a64" stroke-width="2.5"/>
  <circle cx="130" cy="160" r="18" fill="none" stroke="#455a64" stroke-width="1.8"/>
  <line x1="130" y1="128" x2="130" y2="104" stroke="#607d8b" stroke-width="2.5"/>
  <text x="130" y="98" text-anchor="middle" font-size="13" font-weight="700" fill="#c62828">OH</text>
  <text x="130" y="216" text-anchor="middle" font-size="11" fill="#546e7a">phenol</text>

  <line x1="182" y1="160" x2="222" y2="160" stroke="#37474f" stroke-width="1.8"/>
  <polygon points="222,160 214,156 214,164" fill="#37474f"/>
  <text x="202" y="150" text-anchor="middle" font-size="11" fill="#c62828">&#8722; H+</text>

  <polygon points="330,128 358,144 358,176 330,192 302,176 302,144" fill="none" stroke="#455a64" stroke-width="2.5"/>
  <circle cx="330" cy="160" r="18" fill="none" stroke="#455a64" stroke-width="1.8"/>
  <line x1="330" y1="128" x2="330" y2="104" stroke="#607d8b" stroke-width="2.5"/>
  <text x="330" y="98" text-anchor="middle" font-size="13" font-weight="700" fill="#c62828">O</text>
  <text x="345" y="94" font-size="12" font-weight="700" fill="#1565c0">&#8722;</text>
  <g fill="#c62828"><circle cx="358" cy="144" r="2.6"/><circle cx="302" cy="144" r="2.6"/><circle cx="330" cy="192" r="2.6"/></g>
  <g font-size="10.5" font-weight="700" fill="#1565c0"><text x="376" y="142" text-anchor="middle">&#948;&#8722;</text><text x="284" y="142" text-anchor="middle">&#948;&#8722;</text><text x="330" y="210" text-anchor="middle">&#948;&#8722;</text></g>
  <text x="330" y="234" text-anchor="middle" font-size="11" fill="#546e7a">phenoxide: charge spreads to ortho and para</text>

  <line x1="30" y1="264" x2="530" y2="264" stroke="#e0e0e0" stroke-width="1.5"/>
  <text x="280" y="290" text-anchor="middle" font-size="13" font-weight="700" fill="#37474f">Why is phenol so acidic?</text>
  <text x="280" y="313" text-anchor="middle" font-size="11.5" fill="#546e7a">Phenol pKa &#8776; 10: phenoxide charge is delocalized into the ring (resonance)</text>
  <text x="280" y="335" text-anchor="middle" font-size="11.5" fill="#546e7a">Cyclohexanol pKa &#8776; 17: alkoxide charge is stuck on one O (no resonance)</text>
  <text x="280" y="357" text-anchor="middle" font-size="11.5" fill="#546e7a">Electron-withdrawing groups at ortho/para (e.g. &#8722;NO2) lower pKa further</text>
  <text x="280" y="383" text-anchor="middle" font-size="11.5" fill="#607d8b">Still weaker acids than carboxylic acids (pKa &#8776; 4-5).</text>
</svg>
