<svg xmlns="http://www.w3.org/2000/svg" viewBox="0 0 560 588" role="img" aria-labelledby="t d" font-family="-apple-system, Segoe UI, Roboto, sans-serif">
  <title id="t">Functional-group recognition chart</title>
  <desc id="d">Sixteen common organic functional groups grouped by type: hydrocarbons (alkane, alkene, alkyne, aromatic), oxygen and nitrogen singles (alcohol, ether, amine, haloalkane), and the carbonyl family (aldehyde, ketone, carboxylic acid, ester, amide, acyl halide, anhydride) plus nitrile. Each carbonyl shares a C double bond O; the neighboring atoms set its chemistry.</desc>
  <rect x="6" y="6" width="548" height="576" rx="14" fill="#ffffff" stroke="#cfd8dc" stroke-width="2"/>
  <text x="280" y="34" text-anchor="middle" font-size="18" font-weight="700" fill="#263238">Functional groups: recognition chart</text>

  <g fill="#f7f9fa" stroke="#cfd8dc" stroke-width="1.5">
    <rect x="16" y="56" width="123" height="118" rx="9"/><rect x="151" y="56" width="123" height="118" rx="9"/><rect x="286" y="56" width="123" height="118" rx="9"/><rect x="421" y="56" width="123" height="118" rx="9"/>
    <rect x="16" y="182" width="123" height="118" rx="9"/><rect x="151" y="182" width="123" height="118" rx="9"/><rect x="286" y="182" width="123" height="118" rx="9"/><rect x="421" y="182" width="123" height="118" rx="9"/>
    <rect x="16" y="308" width="123" height="118" rx="9"/><rect x="151" y="308" width="123" height="118" rx="9"/><rect x="286" y="308" width="123" height="118" rx="9"/><rect x="421" y="308" width="123" height="118" rx="9"/>
    <rect x="16" y="434" width="123" height="118" rx="9"/><rect x="151" y="434" width="123" height="118" rx="9"/><rect x="286" y="434" width="123" height="118" rx="9"/><rect x="421" y="434" width="123" height="118" rx="9"/>
  </g>

  <g stroke="#455a64" stroke-width="2.5">
    <line x1="58" y1="98" x2="98" y2="98"/>
    <line x1="193" y1="95" x2="233" y2="95"/><line x1="193" y1="101" x2="233" y2="101"/>
    <line x1="328" y1="92" x2="368" y2="92"/><line x1="328" y1="98" x2="368" y2="98"/><line x1="328" y1="104" x2="368" y2="104"/>
  </g>
  <g fill="#455a64"><circle cx="58" cy="98" r="2.5"/><circle cx="98" cy="98" r="2.5"/></g>
  <polygon points="483,80 467.4,89 467.4,107 483,116 498.6,107 498.6,89" fill="none" stroke="#455a64" stroke-width="2.5"/>
  <circle cx="483" cy="98" r="8.5" fill="none" stroke="#455a64" stroke-width="1.8"/>
  <text x="78" y="142" text-anchor="middle" font-size="12.5" font-weight="700" fill="#455a64">Alkane</text><text x="78" y="160" text-anchor="middle" font-size="11" fill="#78909c">single C&#8722;C</text>
  <text x="213" y="142" text-anchor="middle" font-size="12.5" font-weight="700" fill="#455a64">Alkene</text><text x="213" y="160" text-anchor="middle" font-size="11" fill="#78909c">C=C</text>
  <text x="348" y="142" text-anchor="middle" font-size="12.5" font-weight="700" fill="#455a64">Alkyne</text><text x="348" y="160" text-anchor="middle" font-size="11" fill="#78909c">C&#8801;C</text>
  <text x="483" y="142" text-anchor="middle" font-size="12.5" font-weight="700" fill="#455a64">Aromatic</text><text x="483" y="160" text-anchor="middle" font-size="11" fill="#78909c">benzene ring</text>

  <text x="78" y="229" text-anchor="middle" font-size="16" fill="#37474f">R&#8722;OH</text>
  <text x="213" y="229" text-anchor="middle" font-size="16" fill="#37474f">R&#8722;O&#8722;R'</text>
  <text x="348" y="229" text-anchor="middle" font-size="16" fill="#37474f">R&#8722;NH2</text>
  <text x="483" y="229" text-anchor="middle" font-size="16" fill="#37474f">R&#8722;X</text>
  <text x="78" y="268" text-anchor="middle" font-size="12.5" font-weight="700" fill="#1565c0">Alcohol</text><text x="78" y="286" text-anchor="middle" font-size="11" fill="#78909c">hydroxyl &#8722;OH</text>
  <text x="213" y="268" text-anchor="middle" font-size="12.5" font-weight="700" fill="#1565c0">Ether</text><text x="213" y="286" text-anchor="middle" font-size="11" fill="#78909c">C&#8722;O&#8722;C</text>
  <text x="348" y="268" text-anchor="middle" font-size="12.5" font-weight="700" fill="#6a1b9a">Amine</text><text x="348" y="286" text-anchor="middle" font-size="11" fill="#78909c">amino &#8722;NH2</text>
  <text x="483" y="268" text-anchor="middle" font-size="12.5" font-weight="700" fill="#00838f">Haloalkane</text><text x="483" y="286" text-anchor="middle" font-size="11" fill="#78909c">X = F,Cl,Br,I</text>

  <g stroke="#c62828" stroke-width="2.5">
    <line x1="75.5" y1="342" x2="75.5" y2="326"/><line x1="80.5" y1="342" x2="80.5" y2="326"/><line x1="76" y1="350" x2="52" y2="350"/><line x1="80" y1="350" x2="104" y2="350"/>
    <line x1="210.5" y1="342" x2="210.5" y2="326"/><line x1="215.5" y1="342" x2="215.5" y2="326"/><line x1="211" y1="350" x2="187" y2="350"/><line x1="215" y1="350" x2="239" y2="350"/>
    <line x1="345.5" y1="342" x2="345.5" y2="326"/><line x1="350.5" y1="342" x2="350.5" y2="326"/><line x1="346" y1="350" x2="322" y2="350"/><line x1="350" y1="350" x2="374" y2="350"/>
    <line x1="480.5" y1="342" x2="480.5" y2="326"/><line x1="485.5" y1="342" x2="485.5" y2="326"/><line x1="481" y1="350" x2="457" y2="350"/><line x1="485" y1="350" x2="509" y2="350"/>
  </g>
  <g fill="#c62828"><circle cx="78" cy="350" r="2.5"/><circle cx="213" cy="350" r="2.5"/><circle cx="348" cy="350" r="2.5"/><circle cx="483" cy="350" r="2.5"/></g>
  <g font-size="12" fill="#c62828" text-anchor="middle"><text x="78" y="320">O</text><text x="213" y="320">O</text><text x="348" y="320">O</text><text x="483" y="320">O</text></g>
  <g font-size="12" fill="#455a64" text-anchor="middle">
    <text x="44" y="354">R</text><text x="114" y="354">H</text>
    <text x="179" y="354">R</text><text x="249" y="354">R'</text>
    <text x="314" y="354">R</text><text x="386" y="354">OH</text>
    <text x="449" y="354">R</text><text x="521" y="354">OR'</text>
  </g>
  <text x="78" y="394" text-anchor="middle" font-size="12.5" font-weight="700" fill="#c62828">Aldehyde</text><text x="78" y="412" text-anchor="middle" font-size="11" fill="#78909c">carbonyl (end)</text>
  <text x="213" y="394" text-anchor="middle" font-size="12.5" font-weight="700" fill="#c62828">Ketone</text><text x="213" y="412" text-anchor="middle" font-size="11" fill="#78909c">carbonyl (mid)</text>
  <text x="348" y="394" text-anchor="middle" font-size="11.5" font-weight="700" fill="#c62828">Carboxylic acid</text><text x="348" y="412" text-anchor="middle" font-size="11" fill="#78909c">&#8722;COOH</text>
  <text x="483" y="394" text-anchor="middle" font-size="12.5" font-weight="700" fill="#c62828">Ester</text><text x="483" y="412" text-anchor="middle" font-size="11" fill="#78909c">&#8722;COOR</text>

  <g stroke="#c62828" stroke-width="2.5">
    <line x1="75.5" y1="468" x2="75.5" y2="452"/><line x1="80.5" y1="468" x2="80.5" y2="452"/><line x1="76" y1="476" x2="52" y2="476"/><line x1="80" y1="476" x2="104" y2="476"/>
    <line x1="210.5" y1="468" x2="210.5" y2="452"/><line x1="215.5" y1="468" x2="215.5" y2="452"/><line x1="211" y1="476" x2="187" y2="476"/><line x1="215" y1="476" x2="239" y2="476"/>
  </g>
  <g fill="#c62828"><circle cx="78" cy="476" r="2.5"/><circle cx="213" cy="476" r="2.5"/></g>
  <g font-size="12" fill="#c62828" text-anchor="middle"><text x="78" y="446">O</text><text x="213" y="446">O</text></g>
  <g font-size="12" fill="#455a64" text-anchor="middle"><text x="44" y="480">R</text><text x="114" y="480">NH2</text><text x="179" y="480">R</text><text x="249" y="480">Cl</text></g>
  <text x="348" y="480" text-anchor="middle" font-size="12" fill="#37474f">R&#8722;CO&#8722;O&#8722;CO&#8722;R'</text>
  <text x="483" y="480" text-anchor="middle" font-size="16" fill="#37474f">R&#8722;C&#8801;N</text>
  <text x="78" y="520" text-anchor="middle" font-size="12.5" font-weight="700" fill="#c62828">Amide</text><text x="78" y="538" text-anchor="middle" font-size="11" fill="#78909c">&#8722;CONH2</text>
  <text x="213" y="520" text-anchor="middle" font-size="12.5" font-weight="700" fill="#c62828">Acyl halide</text><text x="213" y="538" text-anchor="middle" font-size="11" fill="#78909c">&#8722;COCl</text>
  <text x="348" y="520" text-anchor="middle" font-size="12.5" font-weight="700" fill="#c62828">Anhydride</text><text x="348" y="538" text-anchor="middle" font-size="11" fill="#78909c">two acyls, one O</text>
  <text x="483" y="520" text-anchor="middle" font-size="12.5" font-weight="700" fill="#ef6c00">Nitrile</text><text x="483" y="538" text-anchor="middle" font-size="11" fill="#78909c">&#8722;C&#8801;N</text>

  <text x="280" y="570" text-anchor="middle" font-size="11.5" fill="#607d8b">Carbonyl (C=O) family shares the red C=O; the atoms attached to that carbon set the chemistry.</text>
</svg>
